<?xml version="1.0" standalone="no"?>
<!DOCTYPE svg PUBLIC "-//W3C//DTD SVG 20010904//EN"
 "http://www.w3.org/TR/2001/REC-SVG-20010904/DTD/svg10.dtd">
<svg version="1.0" xmlns="http://www.w3.org/2000/svg"
 width="620.000000pt" height="413.000000pt" viewBox="0 0 620.000000 413.000000"
 preserveAspectRatio="xMidYMid meet">

<g transform="translate(0.000000,413.000000) scale(0.100000,-0.100000)"
fill="#000000" stroke="none">
<path d="M0 3970 c0 -103 4 -160 10 -160 7 0 7 -6 0 -19 -7 -13 -10 -377 -10
-1109 l0 -1089 53 -7 c28 -3 63 -6 77 -6 l25 0 -1 813 c-1 446 1 962 4 1145
l5 332 81 0 81 0 0 82 0 82 39 9 c35 9 41 7 58 -14 15 -19 17 -33 12 -69 -13
-89 -13 -100 -4 -100 5 0 13 12 16 28 4 15 15 37 25 50 9 12 15 31 12 42 -11
42 20 57 112 57 47 0 85 -3 85 -6 0 -3 -4 -21 -9 -38 -8 -26 -6 -37 9 -56 10
-13 20 -41 22 -63 2 -31 7 -39 23 -39 16 0 20 8 22 49 2 27 8 55 14 62 8 10 5
16 -10 26 -12 7 -21 23 -21 38 0 14 -5 31 -11 37 -8 8 -7 13 2 18 7 5 17 1 24
-8 18 -25 25 -21 23 14 -4 44 18 48 36 6 11 -27 22 -37 48 -42 53 -12 88 -34
88 -56 0 -11 -7 -22 -15 -25 -21 -8 -19 -31 4 -44 28 -14 69 4 77 34 10 41 38
60 81 53 49 -8 69 -33 46 -59 -9 -10 -23 -18 -32 -18 -9 0 -22 -4 -29 -9 -11
-7 -12 -12 -1 -29 12 -19 10 -23 -15 -43 -15 -12 -24 -25 -19 -30 4 -4 43 -10
85 -12 43 -3 82 -8 88 -12 6 -4 10 -86 10 -230 0 -170 3 -224 13 -228 17 -5
13 -167 -5 -178 -24 -15 0 -19 71 -13 83 8 87 16 35 74 -33 37 -35 42 -22 58
28 31 56 156 38 167 -5 3 -10 16 -10 29 0 14 -10 28 -25 36 -26 14 -26 14 22
26 65 17 101 16 143 -4 39 -19 40 -28 19 -135 -11 -56 -10 -60 17 -104 32 -51
54 -66 54 -36 0 30 24 58 41 47 8 -5 37 -14 64 -19 l50 -10 3 -69 3 -69 -70 7
c-39 3 -81 11 -94 17 -15 7 -35 7 -58 1 l-34 -9 40 -11 c22 -7 54 -12 71 -12
16 0 38 -6 48 -13 16 -12 17 -16 5 -35 -17 -27 -5 -40 16 -18 22 22 42 20 55
-4 9 -18 8 -20 -15 -20 -20 0 -25 -5 -25 -25 0 -20 5 -25 25 -25 28 0 31 -8
13 -32 -17 -21 -55 -7 -68 24 -8 20 -9 18 -9 -14 -1 -27 -7 -40 -21 -48 -27
-14 -25 -34 4 -53 14 -9 26 -30 30 -50 5 -26 13 -37 31 -41 43 -11 58 -47 62
-159 2 -56 6 -103 8 -106 3 -2 16 4 30 13 24 16 29 16 50 2 23 -15 25 -14 59
26 33 38 36 47 37 107 0 56 16 134 18 92 1 -8 9 -19 18 -26 16 -12 16 -16 1
-65 -17 -51 -16 -57 10 -194 14 -78 32 -144 39 -149 7 -4 10 -13 8 -20 -8 -19
98 -84 177 -108 44 -14 101 -23 145 -23 62 -1 75 2 97 23 33 31 33 28 -4 -42
-34 -66 -36 -75 -15 -57 12 10 15 10 15 -3 0 -22 20 -33 30 -17 6 9 12 -1 20
-29 8 -30 15 -41 25 -37 8 3 19 -3 24 -12 6 -10 11 -12 11 -4 0 7 -18 51 -41
98 -30 63 -38 89 -30 97 6 6 11 35 11 65 0 48 2 53 18 47 64 -25 108 -36 130
-32 19 4 35 -5 70 -38 37 -35 54 -44 96 -49 65 -9 146 9 188 39 18 13 48 32
66 41 34 17 34 17 56 -11 16 -19 25 -25 30 -16 4 6 12 9 17 5 6 -3 19 2 29 11
18 16 19 15 25 -29 5 -30 15 -52 28 -61 27 -19 53 -19 61 0 8 23 25 18 32 -9
5 -21 28 -35 57 -36 4 0 12 11 17 25 9 24 40 36 40 15 0 -5 11 -10 24 -10 25
0 43 35 22 44 -7 3 -6 8 4 15 44 30 50 37 50 53 0 10 5 18 11 18 6 0 25 11 42
24 60 43 65 42 79 -24 11 -55 13 -58 29 -45 9 9 24 13 33 9 12 -5 16 0 16 16
0 19 2 21 16 10 8 -8 21 -28 29 -47 17 -41 41 -43 50 -3 5 23 12 30 30 30 13
0 37 12 54 26 28 23 37 25 79 19 85 -12 167 -36 188 -56 31 -29 43 -24 38 17
-2 20 0 51 5 70 6 22 6 36 0 40 -23 14 -29 54 -13 79 9 14 15 41 13 62 -3 58
-2 61 42 89 35 22 40 29 35 51 -10 36 2 63 27 63 12 0 33 9 46 19 l24 18 -28
19 c-27 18 -28 18 -50 -9 l-23 -26 -14 22 c-29 44 -30 47 -14 41 11 -4 17 3
22 22 4 16 13 35 21 42 15 16 3 46 -29 72 -11 9 -22 33 -25 60 -3 25 -12 54
-19 64 -8 12 -12 34 -9 55 4 28 -2 47 -25 86 -16 28 -34 60 -40 73 -5 12 -14
22 -19 22 -12 0 -31 55 -22 66 3 5 19 18 34 27 28 18 28 19 12 44 -15 22 -16
33 -5 87 18 96 22 102 87 123 51 17 64 18 108 7 28 -7 81 -15 118 -19 93 -9
102 -20 111 -127 4 -46 4 -92 0 -101 -6 -18 39 -67 62 -67 9 0 12 -18 11 -67
-2 -75 -13 -92 -61 -93 -26 0 -28 2 -24 35 2 19 0 35 -4 35 -4 0 -8 -12 -8
-28 0 -16 -8 -32 -20 -40 -27 -16 -25 -40 3 -51 13 -5 31 -21 41 -36 16 -24
16 -28 2 -44 -23 -25 -20 -35 19 -66 33 -25 40 -26 101 -20 54 6 68 5 84 -10
11 -10 20 -29 20 -42 0 -38 20 -50 131 -78 57 -15 108 -30 114 -35 5 -4 26
-11 45 -15 39 -8 84 -37 116 -74 19 -22 21 -22 36 -7 21 20 38 21 38 1 0 -26
-4 -30 -29 -27 -13 2 -33 -5 -45 -17 -11 -11 -34 -23 -51 -27 -41 -9 -55 -22
-55 -51 0 -44 -17 -63 -58 -63 -21 0 -48 -9 -62 -19 -24 -19 -24 -20 -7 -55
20 -43 32 -45 69 -9 24 23 30 25 38 13 25 -39 -4 -81 -43 -63 -20 9 -25 7 -39
-18 -9 -15 -14 -36 -11 -47 6 -26 -49 -72 -87 -72 -48 0 -60 -9 -54 -39 4 -18
0 -32 -10 -40 -15 -13 -31 -12 -96 4 -21 5 -29 0 -49 -30 -22 -33 -44 -119
-33 -129 2 -3 16 0 30 5 44 17 53 6 50 -63 -3 -53 -6 -64 -25 -74 -13 -6 -32
-19 -43 -29 -18 -16 -24 -17 -61 -5 -32 11 -47 11 -73 2 -46 -17 -67 -15 -93
10 -28 26 -29 15 -3 -56 18 -47 25 -55 53 -59 63 -10 241 -2 267 13 29 16 359
16 610 0 80 -5 198 -7 262 -3 l118 6 -4 31 c-2 17 -4 41 -5 53 -1 19 -5 21
-37 16 -46 -7 -54 6 -47 70 8 62 -2 68 -87 65 -63 -3 -65 -2 -68 22 -2 17 6
34 23 50 38 36 33 50 -21 50 -45 0 -46 -1 -40 -26 9 -33 -17 -74 -45 -74 -19
0 -20 4 -15 48 14 125 17 222 7 222 -15 0 -14 20 4 53 8 15 12 34 9 42 -4 9 6
27 24 43 17 16 34 41 38 55 7 32 15 33 39 7 21 -24 38 -25 54 -6 9 11 9 19 0
34 -10 16 -10 40 -1 115 16 129 15 195 -2 213 -8 8 -34 14 -60 14 -39 0 -46
-3 -46 -20 0 -21 -37 -47 -50 -33 -5 4 -12 20 -15 36 -7 24 -3 29 31 43 22 9
57 19 79 21 22 3 54 11 71 18 38 18 334 35 352 22 9 -7 17 -6 24 1 13 13 5 17
-57 27 -26 5 -50 18 -71 40 -22 24 -38 32 -51 29 -12 -3 -43 6 -72 21 -51 25
-52 27 -50 68 2 83 7 94 44 101 18 4 39 13 45 22 11 13 16 12 37 -7 12 -13 23
-31 23 -41 0 -30 24 -20 43 19 15 29 16 38 6 42 -7 2 -23 14 -35 26 -13 13
-26 20 -29 16 -4 -3 -38 -7 -77 -8 -43 -1 -79 -8 -93 -17 -14 -9 -27 -16 -30
-16 -7 0 -6 453 2 644 5 136 8 156 20 140 7 -10 13 -28 13 -41 0 -13 5 -23 10
-23 6 0 10 -10 10 -21 0 -12 7 -27 15 -33 16 -12 35 -96 35 -157 0 -22 5 -39
10 -39 6 0 5 -8 -2 -19 -9 -16 -9 -25 0 -43 7 -13 14 -36 17 -53 2 -16 15 -53
29 -81 18 -38 24 -61 19 -87 -7 -46 3 -87 22 -87 9 0 16 14 20 38 13 82 16 87
67 90 68 4 83 -15 91 -113 7 -74 12 -94 21 -84 2 2 7 61 11 131 7 118 6 128
-11 135 -12 4 -22 0 -32 -15 -17 -26 -35 -28 -53 -6 -10 12 -24 15 -52 11 -21
-3 -52 -1 -67 5 -24 8 -30 17 -36 54 -6 43 1 150 13 180 11 29 89 9 123 -33 9
-10 28 -35 44 -55 15 -21 32 -35 37 -32 5 3 9 52 9 109 0 73 4 104 13 107 21
8 37 -2 54 -35 13 -26 18 -80 24 -272 4 -132 12 -258 18 -280 6 -22 13 -83 17
-135 6 -83 4 -98 -11 -113 -13 -13 -26 -16 -52 -11 -33 6 -35 6 -24 -15 7 -11
10 -33 9 -48 -2 -19 2 -28 14 -31 12 -2 16 3 14 22 -3 24 0 26 33 26 20 0 46
3 59 6 l22 6 0 574 0 574 -724 0 -724 0 -20 -44 c-15 -31 -29 -46 -48 -50 -35
-9 -53 -33 -54 -71 -1 -35 -20 -65 -42 -65 -26 0 -41 29 -42 81 -1 43 -6 55
-32 78 -26 23 -45 29 -135 40 -57 7 -114 17 -127 22 -13 5 -555 9 -1312 9
-1259 0 -1290 0 -1290 -19 0 -18 -18 -31 -42 -31 -6 0 -8 11 -6 25 l5 25 -199
0 c-184 0 -199 -1 -196 -17 3 -15 -6 -19 -50 -21 -30 -2 -59 1 -65 6 -21 17
-90 23 -160 14 -49 -6 -72 -5 -81 3 -8 8 -128 12 -434 14 l-422 2 0 -161z
m5565 70 c0 -59 -27 -68 -45 -15 -15 45 -7 67 22 63 20 -3 23 -9 23 -48z
m-5140 30 c4 -6 -10 -10 -34 -10 -22 0 -43 5 -46 10 -4 6 10 10 34 10 22 0 43
-4 46 -10z m3979 -74 c90 -14 106 -23 106 -63 0 -13 7 -40 15 -61 9 -21 17
-72 18 -113 l2 -74 -55 -3 c-52 -3 -158 15 -245 41 -27 8 -41 18 -43 32 -7 51
-13 62 -37 73 -15 7 -25 20 -25 32 0 21 21 33 73 45 37 8 44 31 18 59 -28 30
-27 34 12 39 58 7 71 6 161 -7z m-209 -6 c-3 -5 -10 -10 -16 -10 -5 0 -9 5 -9
10 0 6 7 10 16 10 8 0 12 -4 9 -10z m-2820 -430 c3 -5 1 -10 -4 -10 -6 0 -11
5 -11 10 0 6 2 10 4 10 3 0 8 -4 11 -10z m4268 -427 c0 -43 -3 -107 -9 -143
-9 -62 -9 -59 -14 80 -5 152 -4 168 12 152 6 -6 11 -45 11 -89z m-1880 -5 c16
-41 31 -64 43 -67 55 -10 57 -43 4 -64 -22 -8 -40 -22 -40 -31 0 -8 -7 -19
-16 -24 -24 -14 -10 -76 23 -102 27 -21 68 -27 78 -10 13 21 25 9 25 -24 0
-57 -19 -139 -38 -158 -9 -10 -25 -26 -34 -36 -19 -17 -25 -48 -8 -37 6 3 7
-1 4 -10 -4 -8 -15 -20 -25 -26 -11 -5 -17 -14 -14 -19 7 -11 -50 -99 -84
-127 -26 -23 -65 -29 -111 -16 l-25 7 25 7 25 7 -22 7 c-13 4 -23 11 -23 16 0
5 -5 9 -11 9 -29 0 -76 89 -51 98 12 4 -22 60 -46 75 -8 6 -11 20 -6 42 4 21
0 53 -10 82 -30 91 -35 155 -14 180 10 13 37 7 53 -12 16 -19 52 -35 77 -35
32 0 78 22 78 38 0 18 20 15 27 -4 5 -12 11 -7 24 21 13 26 16 42 9 50 -5 7
-7 15 -3 18 12 12 -30 47 -64 53 -45 8 -50 25 -23 69 22 35 47 49 36 19 -4
-12 -2 -15 9 -10 12 4 14 0 9 -19 -5 -19 -2 -25 10 -25 9 0 16 -4 16 -10 0 -5
7 -7 16 -3 9 3 14 15 12 32 -1 14 0 31 3 36 4 6 9 22 13 38 3 15 10 27 15 27
5 0 20 -28 34 -62z m-850 -77 c-5 -15 -6 -36 -2 -46 12 -32 10 -52 -7 -69 -8
-9 -11 -16 -5 -16 6 0 11 -5 11 -12 0 -6 -10 -2 -22 9 -13 12 -43 25 -68 29
-57 10 -178 6 -203 -7 -24 -13 -19 -51 9 -63 11 -5 25 -18 30 -29 5 -11 21
-29 36 -40 l27 -20 40 26 c22 15 45 27 51 27 6 0 23 6 39 14 15 8 31 11 37 8
22 -16 42 -72 54 -149 14 -95 10 -119 -19 -103 -11 5 -38 10 -60 10 -33 0 -43
5 -61 30 -24 33 -35 37 -43 16 -6 -15 39 -116 56 -127 13 -9 -42 -18 -78 -12
-26 4 -30 9 -33 40 -1 21 4 40 14 50 11 11 12 19 5 26 -8 8 -19 3 -39 -16 -20
-20 -24 -30 -14 -35 8 -6 2 -13 -22 -24 -33 -16 -34 -16 -46 8 -8 13 -21 24
-30 24 -9 0 -20 3 -24 7 -4 4 -15 8 -24 8 -13 0 -16 7 -14 27 3 22 0 27 -12
22 -11 -4 -16 -1 -16 11 0 9 4 14 8 11 5 -3 5 16 0 42 -6 26 -10 59 -10 75 -1
15 -5 27 -10 27 -24 0 -37 28 -28 60 5 18 8 36 5 40 -4 7 59 70 71 70 4 0 15
7 24 15 18 16 99 37 143 36 16 0 27 5 27 13 0 24 42 37 90 28 55 -10 70 -6 70
19 0 18 3 17 27 -7 23 -23 25 -30 16 -53z m-714 -1 c-7 -5 -19 -6 -26 -3 -11
5 -12 8 -2 13 7 5 19 6 26 3 11 -5 12 -8 2 -13z m2461 -30 c0 -5 -2 -10 -4
-10 -3 0 -8 5 -11 10 -3 6 -1 10 4 10 6 0 11 -4 11 -10z m-1075 -26 c29 -19
32 -40 8 -66 -28 -31 -65 -21 -78 21 -5 17 -4 21 4 16 8 -5 10 1 5 19 -5 22
-3 26 15 26 12 0 33 -7 46 -16z m-1400 -5 c4 -6 -2 -17 -14 -25 -27 -19 -27
-38 -1 -31 22 6 37 -8 20 -18 -15 -9 -12 -25 4 -25 16 0 66 -70 66 -93 0 -47
-102 8 -136 74 -21 41 -17 43 16 7 33 -36 41 -21 10 19 -13 17 -17 33 -13 54
4 21 2 29 -8 29 -11 0 -11 2 1 10 20 13 47 13 55 -1z m-66 -26 c0 -5 -4 -17
-9 -28 -8 -18 -9 -17 -9 8 -1 15 4 27 9 27 6 0 10 -3 9 -7z m1749 -35 c-6 -18
-12 -38 -14 -44 -3 -13 -54 -7 -54 6 0 4 -10 10 -22 14 -22 6 -21 7 10 22 17
9 32 20 32 25 0 5 13 9 29 9 29 0 29 -1 19 -32z m-2058 -233 c0 -76 -12 -111
-30 -85 -13 20 -13 136 1 162 18 33 29 3 29 -77z m640 -75 c0 -5 9 -10 20 -10
24 0 37 -27 21 -43 -8 -8 -11 -7 -11 4 0 8 -10 19 -22 24 -23 11 -37 35 -19
35 6 0 11 -4 11 -10z m-254 -47 c17 -23 17 -33 0 -33 -7 0 -16 11 -18 25 -6
29 0 32 18 8z m513 -88 c35 -20 46 -23 54 -13 6 9 7 8 3 -5 -4 -12 1 -21 17
-27 22 -9 22 -9 -3 -9 -29 0 -115 39 -117 54 -1 5 -10 12 -20 16 -17 7 -16 8
2 8 11 0 40 -11 64 -24z m-71 -31 c3 -23 1 -27 -9 -17 -18 18 -23 56 -7 51 7
-3 14 -18 16 -34z m-406 -5 c11 -15 18 -34 16 -43 -2 -14 -10 -11 -41 18 -21
19 -36 40 -32 46 11 17 36 8 57 -21z m696 -94 c-3 -26 0 -30 21 -29 13 0 34
-10 47 -22 20 -21 21 -25 7 -33 -11 -5 -28 -4 -50 6 -19 7 -60 14 -91 14 -83
0 -108 7 -120 33 -13 28 1 52 33 58 12 2 19 11 19 21 -1 9 2 17 7 17 5 0 9 -7
9 -15 0 -8 5 -15 10 -15 6 0 10 -4 10 -10 0 -5 -7 -10 -15 -10 -11 0 -10 -5 7
-22 27 -27 53 -13 54 29 0 16 4 35 9 42 13 22 46 -28 43 -64z m-778 40 c0 -8
-2 -15 -4 -15 -2 0 -6 7 -10 15 -3 8 -1 15 4 15 6 0 10 -7 10 -15z m3209 -9
c7 -13 10 -33 7 -44 -8 -25 12 -72 32 -72 11 0 12 -10 7 -52 -4 -29 -9 -55
-10 -57 -9 -9 -23 13 -29 45 -4 21 -12 34 -19 31 -8 -2 -11 -33 -11 -98 2 -78
5 -95 18 -97 10 -2 16 3 16 14 0 16 1 16 15 -2 27 -35 19 -52 -25 -52 l-39 -1
-26 82 c-35 112 -42 169 -21 186 11 9 16 30 16 67 0 40 4 56 18 63 26 16 38
13 51 -13z m-3178 -29 c-1 -12 -15 -9 -19 4 -3 6 1 10 8 8 6 -3 11 -8 11 -12z
m487 -11 c-4 -13 -59 -14 -83 -2 -19 9 -19 10 5 16 31 8 82 -2 78 -14z m2452
-56 c21 -40 -22 -56 -54 -21 -17 18 -17 20 1 30 27 16 41 13 53 -9z m-3064
-11 c3 -6 22 -17 40 -25 21 -9 34 -21 34 -32 -1 -16 -1 -16 -11 1 -5 9 -17 17
-25 17 -18 0 -64 29 -64 41 0 13 17 11 26 -2z m864 -40 c0 -14 -67 -41 -93
-37 -27 4 -35 35 -10 41 35 9 103 7 103 -4z m-717 -46 c-7 -2 -19 -2 -25 0 -7
3 -2 5 12 5 14 0 19 -2 13 -5z m110 -20 c-7 -2 -19 -2 -25 0 -7 3 -2 5 12 5
14 0 19 -2 13 -5z m2528 -175 c24 -45 -23 -80 -49 -37 -19 29 3 86 25 67 8 -6
19 -20 24 -30z"/>
<path d="M3595 2728 c-9 -34 -4 -41 48 -70 58 -33 116 -18 117 30 0 9 -5 10
-18 3 -12 -6 -25 -5 -42 5 -14 7 -37 13 -51 14 -17 0 -30 8 -36 23 l-11 22 -7
-27z"/>
<path d="M3523 2607 c-4 -6 -1 -13 5 -15 6 -2 21 -21 33 -42 23 -41 32 -47 86
-60 37 -9 77 14 88 50 4 11 13 20 20 20 31 0 24 21 -11 36 -45 19 -211 27
-221 11z m175 -47 c28 0 25 -20 -5 -31 -14 -5 -32 0 -59 17 l-39 25 40 -5 c22
-3 51 -6 63 -6z"/>
<path d="M1610 4100 c0 -5 5 -10 11 -10 5 0 7 5 4 10 -3 6 -8 10 -11 10 -2 0
-4 -4 -4 -10z"/>
<path d="M542 3859 c3 -8 22 -15 49 -17 53 -4 43 13 -15 24 -31 5 -38 4 -34
-7z"/>
<path d="M247 3793 c-4 -3 -7 -83 -7 -177 0 -94 -5 -314 -10 -490 -6 -175 -9
-320 -8 -321 2 -1 22 -5 46 -9 40 -6 43 -5 37 13 -3 10 4 117 16 237 26 273
23 419 -9 454 -22 23 -31 57 -13 45 13 -8 41 -65 41 -84 0 -13 2 -13 14 -1 9
10 19 57 26 130 6 63 15 132 19 152 l9 37 -47 6 c-25 3 -60 8 -77 11 -17 2
-33 1 -37 -3z"/>
<path d="M448 3773 c6 -2 18 -2 25 0 6 3 1 5 -13 5 -14 0 -19 -2 -12 -5z"/>
<path d="M492 3695 c-2 -45 1 -82 8 -90 8 -9 7 -16 -3 -26 -7 -8 -16 -22 -20
-31 -5 -14 -1 -18 18 -18 21 0 25 5 25 30 0 28 2 30 40 30 41 0 76 14 95 38
15 19 106 5 139 -22 l27 -21 -21 -22 -20 -23 26 -6 c14 -4 30 -2 37 5 6 6 19
11 28 11 16 0 17 -8 12 -75 -5 -64 -3 -75 11 -81 9 -4 19 -4 21 -2 3 3 8 39
11 82 7 73 6 77 -14 83 -25 6 -26 8 -12 34 8 13 21 19 46 19 31 0 35 2 29 21
-4 12 -3 24 2 28 6 3 13 20 16 37 l6 30 -202 18 c-111 9 -224 20 -252 23 l-50
5 -3 -77z"/>
<path d="M1050 3625 c0 -57 4 -95 10 -95 6 0 10 -22 10 -49 0 -56 5 -62 38
-50 21 8 22 12 22 147 l0 138 -40 2 -40 3 0 -96z"/>
<path d="M1460 3025 c0 -8 -5 -15 -12 -15 -9 0 -9 -3 0 -12 18 -18 15 -41 -9
-61 -11 -10 -18 -21 -15 -25 4 -3 12 0 18 6 7 7 28 12 48 12 36 0 36 0 32 38
-5 39 -26 72 -49 72 -7 0 -13 -7 -13 -15z"/>
<path d="M1286 2993 c-16 -9 -39 -15 -51 -15 -35 0 -49 -36 -41 -105 4 -32 10
-67 13 -77 5 -17 7 -18 17 -5 6 8 38 21 71 28 33 7 66 18 73 23 19 16 15 62
-8 76 -15 9 -20 23 -20 52 0 44 -7 47 -54 23z"/>
<path d="M392 2940 c0 -14 2 -19 5 -12 2 6 2 18 0 25 -3 6 -5 1 -5 -13z"/>
<path d="M6166 2915 c-11 -8 -16 -15 -11 -15 4 0 0 -9 -9 -19 -15 -16 -18 -41
-20 -136 -2 -64 -7 -120 -13 -126 -6 -6 -22 -4 -46 6 -32 13 -37 20 -37 48 0
25 -23 174 -31 197 -3 11 -20 -89 -25 -157 -7 -72 -7 -73 -35 -73 -15 0 -34
-7 -42 -15 -13 -13 -13 -21 -1 -62 16 -54 13 -72 -13 -74 -10 -1 11 -7 47 -14
40 -8 71 -10 82 -4 9 5 31 9 48 9 18 0 33 6 36 15 10 24 44 19 45 -7 4 -148 7
-207 12 -224 12 -39 -12 -50 -123 -57 -58 -4 -118 -10 -134 -13 -27 -6 -28 -9
-23 -49 6 -40 4 -44 -22 -55 l-28 -11 18 -37 c11 -20 19 -44 19 -53 0 -15 9
-17 51 -15 44 3 52 0 59 -19 4 -11 4 -41 0 -66 -13 -70 1 -79 127 -79 l104 0
-3 128 c-1 70 -7 135 -12 145 -8 12 -7 23 2 37 9 15 12 118 12 415 0 217 -3
395 -7 395 -5 0 -17 -7 -27 -15z m-71 -986 c8 -23 -7 -39 -38 -39 -20 0 -32
23 -23 45 9 23 53 19 61 -6z"/>
<path d="M1570 2910 c0 -5 5 -10 10 -10 6 0 10 5 10 10 0 6 -4 10 -10 10 -5 0
-10 -4 -10 -10z"/>
<path d="M4407 2871 c-7 -27 11 -41 53 -41 58 0 69 15 29 39 -43 26 -75 27
-82 2z"/>
<path d="M4665 2870 c-12 -19 12 -34 57 -36 64 -3 79 11 25 24 -24 7 -51 14
-60 18 -8 3 -18 0 -22 -6z"/>
<path d="M340 2790 c0 -5 12 -10 26 -10 14 0 23 4 19 10 -3 6 -15 10 -26 10
-10 0 -19 -4 -19 -10z"/>
<path d="M413 2783 c9 -2 23 -2 30 0 6 3 -1 5 -18 5 -16 0 -22 -2 -12 -5z"/>
<path d="M203 2700 l2 -50 130 0 c207 0 528 -21 544 -35 8 -8 10 -21 7 -33 -6
-17 -17 -22 -53 -24 l-46 -3 -15 -60 c-8 -33 -23 -65 -32 -72 -23 -17 -34 -57
-13 -49 8 3 23 6 33 6 11 0 20 10 24 26 7 25 10 26 59 22 l53 -4 14 60 15 61
49 3 c27 2 52 0 56 -5 4 -4 0 -41 -10 -80 -14 -61 -15 -75 -4 -84 8 -6 14 -20
14 -30 0 -10 5 -16 13 -14 6 3 18 1 26 -4 12 -8 12 -40 -2 -228 -10 -120 -20
-229 -23 -243 l-6 -25 21 24 c12 13 21 30 21 38 0 8 5 11 10 8 6 -4 8 -11 5
-16 -4 -5 -3 -14 1 -21 5 -8 10 -6 15 8 4 11 1 28 -8 42 -11 18 -14 60 -12
203 2 161 4 183 21 205 18 23 19 36 12 194 l-7 170 -66 1 c-86 1 -195 6 -415
19 -99 5 -227 10 -286 10 -79 0 -111 4 -127 15 -22 15 -22 15 -20 -35z"/>
<path d="M4423 2614 c-11 -30 11 -36 93 -27 l79 9 -40 11 c-81 22 -125 25
-132 7z"/>
<path d="M4600 2590 c0 -5 5 -10 11 -10 5 0 7 5 4 10 -3 6 -8 10 -11 10 -2 0
-4 -4 -4 -10z"/>
<path d="M4906 2573 c-11 -11 -6 -23 8 -23 8 0 17 4 20 9 7 10 -19 23 -28 14z"/>
<path d="M595 2540 c14 -15 21 -17 32 -9 22 19 15 29 -19 29 -30 0 -31 0 -13
-20z"/>
<path d="M1532 2488 c-9 -9 -4 -58 6 -58 2 0 23 5 46 12 44 12 70 28 61 36
-10 10 -105 18 -113 10z"/>
<path d="M1194 2478 c-5 -7 -10 -55 -11 -105 -2 -51 -4 -136 -6 -188 -3 -105
3 -108 44 -28 13 26 53 79 89 117 39 41 60 71 53 73 -7 3 -13 17 -13 31 0 15
-5 44 -11 66 l-11 38 -48 -4 c-26 -3 -55 -1 -63 4 -10 5 -19 4 -23 -4z"/>
<path d="M4550 2480 c0 -5 5 -10 10 -10 6 0 10 5 10 10 0 6 -4 10 -10 10 -5 0
-10 -4 -10 -10z"/>
<path d="M386 2413 c-6 -14 -5 -15 5 -6 7 7 10 15 7 18 -3 3 -9 -2 -12 -12z"/>
<path d="M5996 2412 c-2 -4 -1 -14 5 -22 7 -12 9 -10 9 8 0 23 -5 28 -14 14z"/>
<path d="M357 2353 c-9 -21 -21 -50 -27 -66 -21 -58 -73 -37 -69 28 2 51 0 55
-28 55 l-28 0 1 -120 c1 -70 7 -133 14 -150 10 -23 10 -36 1 -59 -7 -15 -13
-83 -14 -152 -1 -140 2 -189 14 -189 19 0 90 130 125 228 20 59 59 153 86 209
26 56 48 107 48 112 0 14 -17 14 -25 1 -3 -5 -16 -10 -29 -10 -19 0 -24 8 -34
59 -7 32 -9 66 -6 75 13 34 -14 14 -29 -21z"/>
<path d="M4848 2355 c-16 -13 -28 -26 -28 -29 0 -13 72 -17 104 -5 42 15 46
36 10 49 -38 15 -56 12 -86 -15z"/>
<path d="M1000 2241 c0 -20 5 -31 14 -31 9 0 12 8 8 25 -7 37 -22 41 -22 6z"/>
<path d="M4422 2242 c-7 -2 -12 -16 -12 -32 0 -16 -3 -35 -6 -44 -7 -18 -39
-21 -49 -5 -4 5 -18 15 -32 20 -20 7 -28 6 -38 -8 -10 -13 -9 -25 8 -62 27
-63 33 -68 57 -46 19 18 21 18 40 0 23 -21 72 -24 93 -7 10 9 13 32 11 86 -1
41 -5 79 -8 84 -7 11 -47 20 -64 14z"/>
<path d="M841 2229 c-1 -9 -73 -246 -125 -411 -25 -81 -46 -151 -46 -155 0 -4
13 -9 30 -10 24 -2 31 2 34 20 3 12 12 63 21 112 9 50 34 166 56 258 22 93 38
174 35 180 -2 7 -5 9 -5 6z"/>
<path d="M4568 2098 c-13 -10 -15 -22 -10 -52 6 -34 12 -41 43 -52 l36 -12 6
56 c3 31 5 58 3 59 -11 11 -64 12 -78 1z"/>
<path d="M4521 1971 c-8 -14 -7 -22 4 -31 12 -10 16 -7 25 15 13 34 13 35 -5
35 -8 0 -19 -9 -24 -19z"/>
<path d="M2505 1970 c-3 -5 -1 -18 4 -27 9 -15 10 -14 9 10 -3 30 -4 32 -13
17z"/>
<path d="M1130 1930 c-8 -5 -11 -12 -7 -16 4 -4 13 -2 19 4 6 6 10 14 7 16 -2
3 -11 1 -19 -4z"/>
<path d="M1150 1848 c-1 -123 -12 -297 -21 -322 -5 -16 -9 -41 -10 -55 -1 -57
-16 15 -23 110 -8 115 -28 193 -22 89 2 -36 1 -54 -1 -40 -7 39 -23 49 -23 15
l-1 -30 -15 25 -15 25 5 -35 c3 -19 8 -46 11 -60 5 -18 4 -21 -3 -11 -11 16
-16 -9 -32 -168 -5 -51 -12 -96 -15 -100 -4 -3 -82 -6 -173 -6 -92 0 -171 -3
-177 -6 -5 -4 -75 -2 -155 3 -139 10 -147 10 -205 -12 -33 -13 -71 -36 -85
-52 -23 -27 -29 -28 -108 -28 l-83 0 4 -207 c3 -115 5 -212 7 -218 1 -5 -2
-40 -6 -77 -8 -76 6 -93 26 -32 7 20 22 40 36 46 19 9 24 19 24 47 0 29 5 38
27 48 21 10 28 10 35 0 6 -9 8 -8 8 4 0 25 24 41 39 26 11 -10 12 0 6 55 -3
36 -13 88 -21 114 -20 66 -18 91 7 97 14 4 20 13 19 29 -3 37 -1 41 15 28 8
-6 19 -9 24 -6 14 9 25 -14 13 -26 -13 -13 -3 -48 13 -48 19 0 30 -41 14 -51
-7 -4 -10 -11 -6 -15 4 -4 2 -13 -3 -19 -7 -8 -5 -26 5 -54 8 -23 17 -65 19
-94 3 -29 3 -43 0 -33 -4 11 -12 26 -20 33 -7 8 -11 20 -8 28 4 8 1 15 -5 15
-6 0 -11 14 -11 30 0 17 -4 30 -8 30 -5 0 -13 12 -19 28 l-11 27 -1 -26 c-1
-15 6 -43 14 -63 9 -20 17 -49 19 -64 1 -15 9 -45 16 -66 11 -34 11 -40 -4
-48 -12 -7 -15 -16 -10 -31 4 -13 3 -18 -2 -14 -5 5 -14 25 -20 45 -10 31 -12
6 -14 -153 -2 -231 -7 -350 -16 -377 -12 -39 -25 -2 -30 88 -6 106 -22 199
-40 234 -22 41 -70 93 -81 87 -5 -3 -15 -29 -23 -57 -8 -28 -18 -53 -22 -56
-4 -3 -8 -115 -8 -250 l0 -244 369 0 369 0 4 53 c3 28 17 77 31 107 l25 55 1
-50 c1 -27 6 -57 11 -65 7 -10 9 28 9 115 -1 124 1 135 36 238 34 102 71 177
87 177 9 0 29 -72 23 -79 -3 -2 -5 1 -5 7 0 22 -18 12 -30 -17 -12 -30 -6 -77
22 -186 10 -42 33 -75 52 -75 6 -1 20 -8 31 -18 22 -18 125 -148 125 -157 0
-3 -8 -5 -17 -5 -16 -1 -16 -2 2 -16 11 -8 20 -20 21 -27 0 -7 4 -22 8 -34 l7
-23 1480 0 c830 0 1479 4 1479 9 0 4 -38 9 -85 10 -47 0 -94 5 -105 11 -10 5
-28 10 -40 10 -12 0 -19 4 -15 9 8 15 -58 31 -165 41 -52 5 -111 12 -130 15
-19 3 -155 21 -301 40 -344 45 -468 69 -664 127 -118 35 -255 105 -255 131 0
2 57 7 128 11 70 3 223 14 340 23 156 12 215 14 220 6 9 -14 154 -39 272 -48
47 -3 184 -14 305 -25 612 -54 551 -56 788 26 347 119 449 157 473 177 31 24
73 120 45 103 -13 -9 -21 19 -21 76 l0 50 36 -22 c21 -11 40 -17 44 -13 5 4
38 74 76 155 37 82 68 147 69 145 1 -1 5 -15 9 -32 4 -20 4 -25 -3 -16 -7 11
-11 5 -16 -25 -3 -21 -9 -55 -12 -74 -3 -19 -6 -61 -7 -92 -2 -57 -1 -58 25
-58 l27 0 2 118 c1 64 1 134 1 156 -1 21 5 63 14 92 l16 54 45 0 c25 0 59 7
76 16 25 13 33 14 43 2 15 -14 29 -111 27 -173 -1 -22 -5 -89 -8 -148 -6 -120
0 -137 46 -137 36 0 40 21 40 204 0 194 15 239 69 212 14 -7 32 -11 38 -9 7 3
16 -2 19 -11 10 -27 34 -18 49 18 20 47 31 51 52 20 14 -22 18 -56 20 -198 2
-94 6 -190 9 -213 l5 -43 53 0 53 0 6 113 c4 61 7 159 7 217 0 125 6 156 26
139 8 -6 14 -23 14 -37 0 -13 5 -42 12 -64 9 -30 9 -50 -1 -89 -7 -27 -12 -80
-11 -117 4 -147 5 -160 12 -156 3 2 8 -1 10 -6 2 -6 23 -12 47 -13 l43 -2 4
45 c2 25 7 61 12 80 5 19 4 53 -1 75 -10 49 -3 109 25 195 18 56 36 94 39 79
0 -2 5 -40 10 -84 22 -187 23 -190 41 -187 25 4 33 -31 30 -135 -2 -78 0 -93
13 -93 13 0 15 49 15 395 l0 395 -92 -5 c-51 -3 -165 -10 -253 -15 -88 -5
-245 -14 -348 -21 -103 -6 -190 -9 -194 -6 -3 3 11 44 31 90 20 46 36 90 36
97 0 10 -18 11 -82 6 -46 -4 -110 -10 -143 -12 -100 -8 -349 -35 -373 -41 -31
-7 -63 -48 -113 -147 -24 -47 -49 -86 -56 -86 -15 0 -36 37 -28 50 3 6 0 10
-9 10 -8 0 -16 5 -18 11 -8 24 -45 -3 -66 -46 l-22 -46 -71 81 c-40 44 -76 80
-81 80 -5 0 -6 5 -3 10 3 6 -1 10 -10 10 -10 0 -15 6 -12 13 11 30 -8 36 -56
19 -37 -13 -47 -22 -47 -39 0 -15 7 -23 23 -25 24 -3 67 -71 53 -85 -4 -4 -48
-8 -97 -8 -102 0 -95 7 -103 -100 -2 -33 -7 -75 -11 -92 -4 -18 -5 -43 -1 -56
5 -20 11 -22 58 -21 29 1 62 5 73 9 29 9 46 -25 51 -99 5 -84 -3 -94 -51 -62
-21 14 -46 26 -56 26 -21 0 -91 66 -87 83 1 7 -2 26 -6 44 -5 23 -13 31 -26
30 -15 -1 -18 -6 -13 -27 6 -24 5 -24 -14 -7 -11 9 -36 17 -57 17 -50 0 -123
19 -137 36 -17 20 -26 17 -31 -10 -5 -23 -2 -24 67 -30 86 -8 127 -19 152 -40
10 -9 37 -32 61 -52 23 -20 42 -40 42 -44 0 -16 -65 10 -81 32 -11 14 -33 23
-70 29 -30 4 -81 13 -113 18 -33 6 -62 9 -64 6 -2 -2 13 -7 34 -10 64 -11 72
-16 42 -27 -16 -5 -28 -14 -28 -20 0 -5 6 -8 13 -5 6 2 23 0 35 -5 15 -5 39
-4 62 3 34 10 41 9 66 -10 14 -11 32 -21 38 -21 15 0 56 -37 56 -50 0 -15 -19
-12 -48 9 -63 44 -97 46 -192 13 -8 -3 -17 -6 -20 -7 -3 0 -21 -9 -40 -20
l-35 -19 30 -7 c28 -6 27 -7 -11 -8 -43 -1 -63 16 -42 37 6 6 6 12 -2 17 -6 4
-16 3 -22 -3 -5 -5 -18 -7 -29 -5 -15 4 -17 8 -8 19 6 8 20 14 30 14 10 0 21
5 24 11 4 6 19 10 33 9 44 -3 52 -1 52 16 0 13 -7 15 -32 11 -18 -2 -44 0 -57
5 -18 6 -34 3 -62 -11 -29 -15 -40 -17 -45 -8 -4 7 -4 9 1 5 13 -12 35 12 35
38 0 27 35 55 59 47 14 -4 14 -3 1 6 -8 6 -23 11 -32 11 -30 0 -20 19 15 29
l32 9 -29 1 c-20 1 -53 -15 -102 -49 -40 -28 -75 -47 -77 -43 -2 5 4 42 14 83
22 87 52 122 121 140 24 7 71 25 106 41 34 16 68 29 76 29 7 0 19 7 26 16 8 8
44 33 81 55 38 22 74 50 80 62 19 36 92 112 114 118 11 3 -36 4 -105 3 -74 -1
-151 3 -189 11 -35 7 -69 12 -75 11 -6 -2 -8 -1 -3 1 12 8 8 23 -7 23 -19 0
-48 -29 -41 -41 4 -5 -3 -9 -14 -9 -11 0 -22 9 -26 20 -8 24 -23 26 -32 4 -3
-8 -12 -13 -20 -10 -7 3 -16 -1 -19 -9 -10 -25 -44 -18 -44 8 0 28 -35 50 -76
46 -16 -1 -41 1 -56 5 -15 5 -32 6 -39 4 -15 -5 35 -65 71 -83 41 -21 41 -44
-1 -118 -32 -57 -38 -74 -33 -110 4 -38 4 -40 -10 -24 -8 11 -12 25 -9 33 9
24 -23 5 -35 -20 -6 -13 -25 -40 -42 -60 -24 -26 -38 -35 -53 -31 -29 7 -58
-11 -39 -24 12 -7 12 -12 1 -30 -13 -20 -14 -20 -31 12 -10 19 -17 25 -18 15
0 -19 -38 -35 -50 -21 -4 4 -22 35 -40 68 -17 33 -38 67 -45 75 -7 8 -19 27
-26 41 l-14 26 -22 -21 -22 -21 28 -60 c16 -33 31 -77 35 -97 4 -21 11 -38 16
-38 13 0 12 -27 -2 -67 -16 -44 -65 -42 -113 5 -79 78 -125 134 -119 144 5 8
1 9 -12 5 -18 -7 -18 -6 1 9 17 14 17 16 2 11 -69 -24 -141 -37 -150 -28 -8 8
-4 11 13 11 22 0 23 1 5 20 -10 11 -14 20 -10 20 5 0 1 6 -10 13 -17 13 -17
15 5 30 22 15 22 15 2 26 -12 6 -25 11 -30 11 -5 0 -23 -37 -40 -83 -59 -155
-157 -292 -286 -400 l-81 -68 -55 6 c-30 4 -83 10 -117 14 -34 4 -65 10 -69
13 -18 19 -24 107 -20 318 3 129 3 222 0 205 -2 -16 -9 -61 -16 -100 -6 -38
-12 -74 -13 -80 -1 -20 -16 -55 -23 -55 -4 1 -16 15 -27 32 -24 38 -70 54 -92
32 -11 -11 -12 -14 -1 -14 8 0 9 -3 3 -8 -5 -4 -11 -49 -13 -101 -3 -75 -7
-99 -23 -119 -10 -14 -19 -31 -19 -38 0 -22 -20 -16 -49 15 -22 23 -27 25 -27
10 0 -9 4 -16 7 -13 4 2 10 0 13 -5 6 -9 -16 -21 -39 -21 -9 0 -11 7 -7 22 4
18 2 20 -16 16 -21 -6 -22 -2 -22 47 0 45 -6 62 -41 114 -22 33 -45 61 -49 61
-9 0 -80 67 -80 75 0 2 28 6 63 8 48 2 40 4 -34 5 -139 3 -258 -15 -280 -42
-23 -29 -35 -14 -22 29 9 30 9 35 -4 35 -14 0 -15 2 -1 18 12 13 14 31 8 85
-6 51 -4 78 8 110 19 53 31 387 13 387 -6 0 -11 -18 -11 -42z m2440 -289 c0
-7 13 -9 38 -5 20 3 59 9 87 13 46 5 49 5 36 -10 -7 -10 -19 -17 -27 -17 -7 0
-19 -10 -25 -22 -17 -33 -18 -33 -33 -13 -13 18 -14 17 -46 -5 -26 -19 -37
-21 -59 -13 -19 7 -25 15 -23 33 1 13 7 29 13 37 14 16 39 17 39 2z m-3290
-304 c-14 -8 -34 -14 -45 -14 -13 0 -7 5 15 13 47 18 61 18 30 1z m129 -2 c0
-12 -2 -13 -6 -5 -4 10 -8 10 -18 2 -15 -13 -55 -4 -55 11 0 5 18 9 40 9 32 0
40 -4 39 -17z m-181 -45 c17 -17 15 -28 -4 -28 -8 0 -12 -4 -9 -10 3 -5 0 -7
-8 -4 -9 3 -12 14 -9 30 5 27 12 30 30 12z m4290 -24 c-3 -35 -42 -54 -64 -32
-10 10 -12 18 -6 22 6 3 18 -1 26 -10 15 -14 17 -13 27 15 13 38 19 40 17 5z
m-3401 -6 c-3 -8 -6 -5 -6 6 -1 11 2 17 5 13 3 -3 4 -12 1 -19z m3347 -74 c24
-9 18 -51 -20 -134 -26 -58 -44 -76 -44 -44 0 8 -4 13 -9 10 -11 -7 -19 66
-13 124 4 36 7 41 14 25 7 -17 8 -15 5 7 -4 24 -1 26 22 23 14 -2 34 -7 45
-11z m-182 -66 c3 -7 2 -39 -2 -70 -4 -37 -2 -59 4 -61 6 -3 8 -8 4 -12 -4 -4
-14 -5 -23 -2 -11 5 -15 22 -15 75 0 38 3 72 7 75 10 11 20 8 25 -5z m-3270
-35 c-9 -16 -52 -27 -52 -13 0 7 38 28 53 29 4 1 4 -7 -1 -16z m3074 -52 c-4
-5 0 -12 6 -14 8 -4 9 -6 2 -6 -6 -1 -17 6 -24 14 -10 12 -9 15 4 15 10 0 15
-4 12 -9z m-3779 -33 c-3 -8 -6 -5 -6 6 -1 11 2 17 5 13 3 -3 4 -12 1 -19z
m662 17 c-3 -2 -23 -12 -44 -21 -34 -14 -37 -14 -26 -1 11 14 27 20 65 26 5 0
7 -1 5 -4z m3169 -30 c15 -33 15 -35 -3 -35 -17 0 -39 36 -30 50 10 17 21 11
33 -15z m-1820 -36 c-6 -19 -16 -37 -22 -41 -14 -10 -76 -10 -76 0 0 7 103 81
108 77 1 -1 -3 -17 -10 -36z m1614 -2 c7 -7 21 -16 31 -20 30 -11 18 -22 -29
-25 -50 -3 -74 10 -74 39 0 14 7 19 29 19 16 0 36 -6 43 -13z m-2919 -20 c-2
-4 -13 -5 -24 -2 -14 5 -17 3 -13 -9 3 -9 1 -16 -6 -16 -6 0 -9 -4 -6 -8 3 -5
-8 -6 -24 -4 -30 4 -32 22 -4 22 8 0 13 4 10 9 -4 5 0 11 6 14 20 7 67 3 61
-6z m3113 -7 c7 0 15 -8 18 -17 4 -10 4 -14 0 -10 -4 4 -13 -2 -21 -13 -14
-20 -63 -28 -63 -10 0 6 -8 10 -19 10 -10 0 -24 7 -31 15 -10 12 -7 15 17 20
15 4 33 8 38 10 6 2 19 2 30 0 11 -3 25 -5 31 -5z m-3227 -69 c-15 -5 -22 6
-14 19 6 9 10 9 16 -1 5 -8 4 -15 -2 -18z m2311 9 c3 -5 31 -10 61 -10 29 0
62 -1 72 -1 24 0 22 -30 -3 -36 -14 -4 -20 -14 -20 -34 0 -32 -16 -47 -33 -30
-6 6 -26 11 -45 11 -35 0 -95 23 -124 48 -16 13 -16 17 -2 44 14 27 19 30 52
25 19 -4 38 -11 42 -17z m-2387 -57 c-25 -51 -43 -58 -80 -35 -21 13 -23 13
-23 -8 0 -16 -4 -20 -19 -15 -24 7 -39 -13 -20 -27 11 -8 11 -9 -2 -5 -9 3
-21 -4 -29 -16 -12 -20 -11 -21 2 -9 13 10 17 9 22 -10 3 -13 1 -24 -4 -26
-18 -6 -11 -28 13 -40 12 -6 35 -13 51 -17 15 -3 26 -8 23 -11 -12 -13 -88 19
-111 46 -45 54 -9 114 99 166 28 13 55 24 61 24 6 0 17 7 24 15 20 24 19 18
-7 -32z m2755 35 c8 -8 15 -8 26 1 12 10 23 9 55 -5 37 -16 50 -41 14 -27 -11
4 -14 3 -9 -5 4 -7 2 -12 -4 -12 -6 0 -24 -10 -40 -21 -20 -15 -36 -20 -54
-15 -13 3 -27 2 -30 -3 -4 -5 -18 -6 -34 -2 -21 6 -26 13 -24 32 8 50 70 87
100 57z m132 -4 c0 -2 -7 -4 -15 -4 -8 0 -15 4 -15 10 0 5 7 7 15 4 8 -4 15
-8 15 -10z m-1616 -11 c4 -4 30 -8 59 -10 29 -1 79 -7 112 -13 101 -18 236
-22 315 -10 109 17 278 23 378 15 48 -4 81 -10 74 -12 -6 -3 -10 -9 -7 -14 3
-4 -4 -10 -17 -13 -55 -10 -168 -38 -233 -56 -38 -11 -90 -25 -115 -31 -25 -6
-61 -15 -80 -21 -43 -12 -302 -25 -350 -18 -19 3 -51 1 -71 -6 -46 -15 -106
-16 -142 -2 -22 8 -25 13 -14 22 40 34 36 89 -8 97 -53 11 5 66 63 61 13 -1
20 2 17 8 -7 11 8 14 19 3z m1983 -67 c-8 -19 -37 -21 -37 -3 0 7 5 18 12 25
15 15 33 -1 25 -22z m-317 15 c0 -4 -12 -7 -26 -5 -38 4 -42 14 -6 14 18 0 32
-4 32 -9z m-3440 -81 c0 -5 -2 -10 -4 -10 -3 0 -8 5 -11 10 -3 6 -1 10 4 10 6
0 11 -4 11 -10z m504 -44 c-3 -8 -12 -17 -20 -20 -9 -3 -13 -10 -10 -15 7 -10
-9 -9 -36 4 -25 10 -22 19 10 32 40 16 62 16 56 -1z m2451 4 c-11 -5 -37 -9
-58 -9 -23 -1 -36 -5 -32 -11 3 -5 -3 -10 -15 -10 -12 0 -30 -5 -41 -11 -11
-5 -28 -8 -37 -6 -36 8 99 54 163 55 31 0 35 -1 20 -8z m-2341 -55 c5 -22 4
-26 -4 -15 -5 8 -10 24 -10 34 0 26 6 18 14 -19z m52 -62 c-6 -15 36 -46 97
-73 47 -21 69 -41 74 -68 1 -10 6 -38 11 -64 9 -48 2 -75 -16 -64 -5 3 -21 29
-36 58 -14 29 -40 69 -59 88 -40 43 -101 120 -111 140 -4 8 0 6 8 -4 20 -24
32 -15 17 12 -6 12 -11 31 -10 44 0 17 4 13 15 -17 8 -22 12 -45 10 -52z m105
21 c21 -24 22 -26 3 -16 -25 13 -50 42 -37 42 5 0 20 -12 34 -26z m470 -60 c5
-3 7 -9 4 -14 -8 -12 -128 19 -138 35 -4 8 -15 15 -22 15 -8 0 -15 4 -15 8 0
8 149 -30 171 -44z m-553 -89 c-3 -3 -13 1 -22 10 -11 12 -16 13 -16 4 0 -22
-28 12 -35 43 -7 27 -6 27 36 -12 24 -21 40 -42 37 -45z m3192 61 c0 -15 -24
-28 -34 -19 -13 14 -5 33 14 33 11 0 20 -6 20 -14z m-1863 -43 c-3 -10 -5 -2
-5 17 0 19 2 27 5 18 2 -10 2 -26 0 -35z m-835 16 c9 -5 32 -9 51 -9 36 0 70
-27 65 -51 -2 -11 15 -13 91 -11 77 3 96 0 112 -14 31 -28 228 -19 200 9 -8 8
-47 12 -108 11 -119 0 -91 9 91 31 76 10 152 21 170 26 41 12 46 11 46 -4 0
-7 25 -24 55 -36 34 -14 55 -29 56 -39 2 -49 17 -99 35 -116 15 -16 11 -36 -7
-36 -6 0 -8 4 -4 9 3 5 1 12 -4 15 -9 6 -129 -61 -162 -90 -28 -25 -258 -35
-325 -15 -80 25 -134 51 -134 65 0 6 -12 20 -27 32 l-26 21 94 18 c52 10 98
21 103 26 6 5 -30 8 -80 7 -134 -2 -202 7 -227 30 -12 11 -38 28 -57 37 -42
22 -59 42 -60 72 0 12 -6 24 -12 27 -7 3 1 3 17 -1 17 -3 38 -10 47 -14z m36
-186 c-10 -2 -26 -2 -35 0 -10 3 -2 5 17 5 19 0 27 -2 18 -5z"/>
<path d="M2090 265 c-25 -13 -55 -24 -67 -25 -12 0 -24 -4 -27 -9 -8 -12 91
-22 119 -11 26 10 65 45 65 58 0 16 -47 10 -90 -13z m65 5 c-3 -5 -12 -10 -18
-10 -7 0 -6 4 3 10 19 12 23 12 15 0z"/>
<path d="M2155 213 c-19 -10 -25 -18 -16 -21 7 -2 23 5 34 17 25 25 22 26 -18
4z"/>
<path d="M1077 1843 c-10 -9 -9 -41 1 -47 5 -3 9 8 10 24 1 32 -1 34 -11 23z"/>
<path d="M3127 1828 c-28 -10 -41 -39 -35 -79 3 -22 7 -24 60 -23 32 1 65 7
73 14 18 15 20 71 3 88 -14 14 -62 14 -101 0z m91 -41 c3 -21 -2 -28 -21 -32
-14 -4 -38 -5 -53 -3 -23 2 -29 8 -29 28 0 21 6 26 40 31 55 8 60 6 63 -24z"/>
<path d="M981 1794 c0 -11 3 -14 6 -6 3 7 2 16 -1 19 -3 4 -6 -2 -5 -13z"/>
<path d="M921 1743 c-7 -32 -17 -68 -22 -80 -15 -39 51 -61 71 -23 6 11 7 21
3 21 -4 1 -15 2 -23 3 -12 1 -14 14 -12 69 2 37 1 67 -1 67 -2 0 -9 -26 -16
-57z"/>
<path d="M1933 1755 c-6 -17 2 -93 10 -102 10 -9 86 -15 111 -9 23 6 26 12 26
46 0 57 -26 80 -90 80 -37 0 -52 -4 -57 -15z m130 -24 c5 -5 7 -19 5 -32 -3
-21 -9 -24 -48 -25 -48 -1 -58 9 -59 55 -1 23 1 23 46 17 26 -3 51 -10 56 -15z"/>
<path d="M216 1669 c-15 -48 -14 -59 6 -59 10 0 29 5 40 11 16 9 26 7 48 -9
43 -32 100 -33 100 -2 0 26 -23 36 -99 44 -35 3 -70 11 -77 17 -10 8 -15 8
-18 -2z"/>
<path d="M1002 1660 c0 -14 2 -19 5 -12 2 6 2 18 0 25 -3 6 -5 1 -5 -13z"/>
<path d="M850 1660 c0 -5 5 -10 10 -10 6 0 10 5 10 10 0 6 -4 10 -10 10 -5 0
-10 -4 -10 -10z"/>
<path d="M448 1653 c7 -3 16 -2 19 1 4 3 -2 6 -13 5 -11 0 -14 -3 -6 -6z"/>
<path d="M4063 1636 c-61 -11 -71 -26 -15 -25 50 1 83 12 74 24 -5 7 -25 7
-59 1z"/>
<path d="M4160 1589 c0 -5 5 -7 10 -4 6 3 10 8 10 11 0 2 -4 4 -10 4 -5 0 -10
-5 -10 -11z"/>
<path d="M2470 1502 c-46 -47 -110 -136 -110 -151 0 -5 -48 -58 -108 -117
-202 -205 -202 -221 0 -35 32 30 83 87 113 126 30 40 61 75 70 78 8 4 15 14
15 23 0 17 35 79 57 102 12 12 17 22 11 22 -2 0 -23 -21 -48 -48z"/>
<path d="M2490 1215 c-8 -9 -8 -15 -2 -15 12 0 26 19 19 26 -2 2 -10 -2 -17
-11z"/>
<path d="M2440 1168 c-14 -6 -41 -17 -60 -25 -19 -8 -92 -42 -162 -76 -91 -44
-128 -67 -128 -79 0 -22 -8 -23 73 7 96 34 236 110 281 151 39 35 38 40 -4 22z"/>
<path d="M3710 966 c0 -2 7 -6 15 -10 8 -3 15 -1 15 4 0 6 -7 10 -15 10 -8 0
-15 -2 -15 -4z"/>
<path d="M5610 873 c0 -28 3 -34 10 -23 13 20 13 47 0 55 -6 4 -10 -9 -10 -32z"/>
<path d="M210 796 c0 -8 5 -18 10 -21 6 -3 10 3 10 14 0 12 -4 21 -10 21 -5 0
-10 -6 -10 -14z"/>
<path d="M5598 753 c7 -3 16 -2 19 1 4 3 -2 6 -13 5 -11 0 -14 -3 -6 -6z"/>
<path d="M4971 596 c2 -2 56 -6 119 -8 74 -4 97 -3 65 2 -51 8 -192 13 -184 6z"/>
<path d="M840 264 c0 -3 8 -17 17 -31 14 -21 17 -45 14 -130 l-3 -103 26 0
c30 0 31 5 11 53 -9 22 -15 68 -15 114 0 73 -2 79 -25 90 -14 6 -25 9 -25 7z"/>
<path d="M6165 260 c-3 -5 -4 -10 -1 -10 2 0 11 -3 20 -6 11 -4 16 -1 16 10 0
18 -25 22 -35 6z"/>
<path d="M6162 212 c-7 -5 -10 -16 -6 -25 3 -10 1 -17 -6 -17 -6 0 -8 -4 -5
-10 3 -5 17 -10 31 -10 21 0 24 5 24 35 0 35 -12 43 -38 27z"/>
<path d="M1055 90 c-3 -5 1 -10 9 -10 8 0 18 5 21 10 3 6 -1 10 -9 10 -8 0
-18 -4 -21 -10z"/>
<path d="M6137 38 c-39 -14 -28 -32 21 -36 39 -3 42 -1 42 22 0 29 -15 32 -63
14z"/>
<path d="M6020 15 c0 -8 5 -15 10 -15 6 0 10 7 10 15 0 8 -4 15 -10 15 -5 0
-10 -7 -10 -15z"/>
</g>
</svg>
