<?xml version="1.0" standalone="no"?>
<!DOCTYPE svg PUBLIC "-//W3C//DTD SVG 20010904//EN"
 "http://www.w3.org/TR/2001/REC-SVG-20010904/DTD/svg10.dtd">
<svg version="1.0" xmlns="http://www.w3.org/2000/svg"
 width="1200.000000pt" height="801.000000pt" viewBox="0 0 1200.000000 801.000000"
 preserveAspectRatio="xMidYMid meet">

<g transform="translate(0.000000,801.000000) scale(0.100000,-0.100000)"
fill="#000000" stroke="none">
<path d="M1217 7958 c-4 -29 -7 -282 -8 -563 -5 -1086 -38 -2760 -58 -2855 -5
-25 -10 -117 -12 -205 -1 -88 -4 -182 -6 -210 -1 -27 -5 -102 -7 -165 -2 -63
-8 -147 -15 -187 -17 -114 -17 -202 2 -216 26 -20 47 -82 47 -142 0 -75 -19
-195 -34 -220 -7 -11 -15 -66 -19 -123 -3 -56 -10 -109 -16 -116 -6 -7 -9 -20
-6 -28 3 -8 1 -27 -4 -41 -10 -26 -9 -27 23 -27 64 0 84 -86 51 -210 -12 -43
-14 -95 -10 -240 3 -102 8 -199 10 -216 3 -17 -1 -61 -9 -98 -7 -37 -10 -69
-5 -72 11 -6 11 -255 0 -369 -4 -49 -3 -91 3 -107 8 -21 6 -43 -8 -90 -23 -80
-22 -105 5 -157 l22 -42 -23 -47 c-27 -53 -34 -162 -13 -183 7 -7 13 -26 13
-42 0 -15 5 -38 11 -49 9 -17 8 -28 -4 -52 -30 -60 -46 -151 -35 -198 6 -24
15 -47 19 -52 13 -15 11 -70 -4 -85 -20 -20 -12 -166 13 -217 l20 -43 -27 -51
c-47 -90 -60 -96 -225 -104 -78 -4 -150 -7 -158 -8 -31 -1 -327 13 -370 18
-76 9 -89 15 -111 51 -19 31 -27 91 -29 209 0 16 -44 31 -127 43 -127 19 -113
45 -113 -219 l0 -230 6000 0 6000 0 0 4005 0 4005 -2180 0 -2179 0 -3 -281
c-2 -154 0 -283 5 -286 4 -2 7 1 7 6 0 6 6 11 14 11 8 0 17 6 19 13 4 9 8 9
15 -2 8 -11 10 -11 15 0 3 8 6 -2 7 -21 l1 -35 19 24 c13 14 20 18 21 10 0 -8
2 -23 4 -33 2 -11 -3 -29 -11 -40 -9 -13 -14 -15 -14 -7 0 11 -5 9 -20 -4 -19
-17 -20 -17 -20 1 0 15 -2 16 -9 5 -7 -11 -10 -8 -16 10 -7 22 -8 22 -21 4 -8
-10 -14 -15 -14 -9 0 5 -7 1 -14 -9 -10 -12 -16 -15 -21 -7 -5 8 -11 8 -21 -1
-16 -13 -19 -39 -4 -39 6 0 10 -5 10 -12 0 -7 -16 3 -35 22 -19 19 -35 29 -35
24 0 -6 5 -15 12 -22 9 -9 8 -12 -5 -12 -11 0 -15 -6 -11 -17 5 -14 2 -14 -13
3 -24 28 -49 36 -65 21 -28 -27 -67 -47 -73 -37 -3 6 -1 10 4 10 6 0 11 5 11
10 0 6 -11 8 -27 4 -25 -7 -49 -10 -92 -13 -11 -1 -11 -4 -1 -16 7 -8 16 -13
20 -10 9 6 60 -51 60 -66 0 -5 -5 -9 -11 -9 -5 0 -8 3 -6 8 2 4 -7 18 -21 32
l-25 25 17 -25 c22 -33 20 -43 -5 -30 -11 7 -27 26 -34 43 -8 18 -14 27 -15
21 0 -6 -18 -18 -41 -27 -36 -14 -39 -18 -30 -36 15 -28 14 -36 -4 -21 -8 7
-15 18 -15 24 0 7 -15 13 -32 14 -18 0 -51 2 -72 2 l-39 2 7 389 7 389 -590 0
-589 0 -6 -82 c-3 -46 -10 -704 -16 -1463 -11 -1368 -15 -1697 -26 -2180 -3
-137 -8 -484 -10 -770 -3 -286 -6 -536 -8 -555 -2 -19 -5 -152 -6 -295 -2
-143 -6 -298 -11 -345 -4 -47 -9 -120 -11 -162 -2 -43 -6 -78 -10 -78 -5 0 -8
10 -8 21 0 17 -3 19 -14 10 -11 -9 -15 -9 -19 1 -11 28 -27 -18 -27 -79 0 -53
3 -63 18 -64 23 -2 24 -2 44 6 14 6 18 2 17 -16 0 -23 8 -93 17 -135 3 -20 13
-22 101 -28 120 -9 133 -12 133 -36 0 -36 -54 -36 -362 -3 -28 2 -48 0 -48 -5
0 -6 35 -33 79 -61 43 -27 82 -58 85 -68 4 -9 6 -109 5 -221 0 -112 1 -206 4
-209 4 -3 13 2 22 11 9 9 22 16 28 16 19 -1 -31 -39 -293 -226 -135 -96 -281
-201 -325 -233 -44 -32 -123 -87 -175 -123 -52 -36 -159 -109 -237 -164 -301
-210 -509 -349 -572 -381 -81 -41 -133 -51 -231 -42 -41 4 -113 10 -160 13
-47 3 -101 7 -120 10 -48 7 -231 25 -310 31 -56 4 -68 8 -87 32 -34 42 -39
128 -14 246 11 54 23 102 26 107 3 4 1 10 -5 12 -5 1 -15 37 -22 78 -7 41 -15
77 -18 80 -20 17 -40 125 -40 225 -3 398 -2 478 5 543 6 59 5 76 -6 83 -11 7
-14 45 -14 196 1 103 3 231 5 283 3 52 3 151 2 220 -4 152 4 223 28 271 17 32
18 47 10 125 -5 49 -10 131 -10 182 0 85 -2 94 -20 99 -14 4 -22 20 -31 58
-10 46 -9 70 10 176 13 68 30 136 38 150 14 24 15 38 5 111 -7 45 -12 106 -12
134 0 28 -5 76 -10 106 -8 40 -7 83 0 145 13 105 14 287 1 398 -27 226 -21
1932 10 2880 5 165 12 450 16 633 l6 332 -1020 0 -1020 0 -6 -52z m6658 -534
c-30 -44 -23 -82 7 -40 11 14 24 26 30 26 6 0 3 -10 -8 -22 -10 -12 -13 -18
-6 -14 6 4 12 4 13 -1 6 -44 5 -73 -2 -73 -5 0 -9 6 -9 13 0 8 -4 7 -10 -3 -6
-9 -10 -10 -10 -3 0 6 5 15 10 18 6 3 10 14 10 23 0 12 -3 13 -11 5 -6 -6 -17
-9 -23 -7 -7 3 -18 -6 -25 -19 -7 -13 -19 -24 -26 -24 -17 0 -7 27 19 48 13
11 16 18 8 23 -7 4 -12 2 -12 -3 0 -6 -4 -11 -9 -11 -6 0 -9 9 -8 19 0 11 5
17 9 15 4 -3 22 11 39 30 40 46 45 46 14 0z m70 -94 c-3 -5 -10 -10 -16 -10
-5 0 -9 5 -9 10 0 6 7 10 16 10 8 0 12 -4 9 -10z m-581 -55 c11 -16 12 -25 5
-25 -12 0 -38 29 -39 43 0 16 18 6 34 -18z m63 10 c0 -8 -4 -12 -9 -9 -4 3 -8
9 -8 15 0 5 4 9 8 9 5 0 9 -7 9 -15z m-222 -65 c3 -5 1 -10 -4 -10 -6 0 -11 5
-11 10 0 6 2 10 4 10 3 0 8 -4 11 -10z m654 -17 c-40 -47 -42 -49 -34 -33 10
19 47 60 53 60 3 0 -5 -12 -19 -27z m-861 -29 c1 -17 -2 -21 -18 -17 -18 5
-19 2 -12 -18 18 -47 23 -81 12 -74 -5 3 -10 15 -10 26 0 21 -20 27 -20 7 -1
-7 -9 -3 -20 10 -12 14 -16 29 -12 40 5 13 8 11 10 -10 3 -29 16 -36 27 -18 4
6 2 17 -4 24 -6 7 -8 15 -5 19 3 3 1 14 -5 25 -8 15 -8 21 1 24 21 7 54 -15
56 -38z m669 14 c-3 -8 -6 -5 -6 6 -1 11 2 17 5 13 3 -3 4 -12 1 -19z m-587
-28 c0 -12 -3 -12 -16 2 -9 9 -13 21 -9 28 9 14 25 -5 25 -30z m-317 -39 c-2
-6 7 -15 18 -21 12 -7 18 -18 15 -26 -3 -8 -2 -12 3 -9 5 3 24 -8 42 -25 19
-16 30 -30 26 -30 -21 0 -77 31 -102 56 -16 16 -23 21 -15 11 7 -9 10 -21 6
-25 -4 -4 -12 1 -17 11 -6 9 -14 15 -20 12 -5 -4 -9 -2 -9 3 0 10 24 33 31 29
2 -1 -1 3 -8 9 -7 6 -10 13 -7 17 9 9 39 0 37 -12z m92 -21 c9 -7 14 -19 11
-25 -2 -7 3 -23 12 -36 9 -13 -9 -2 -41 25 -31 27 -57 50 -57 52 0 9 61 -5 75
-16z m38 -15 c-3 -11 -1 -13 10 -9 8 3 18 1 22 -5 4 -7 -2 -10 -17 -8 -15 3
-23 11 -24 25 -1 12 2 19 7 16 4 -2 6 -11 2 -19z m-157 -37 c3 -10 10 -15 16
-12 6 4 8 2 5 -3 -11 -17 -46 -23 -40 -7 3 8 0 14 -6 14 -6 0 -11 -4 -11 -9 0
-19 13 -41 24 -41 6 0 38 -18 71 -40 69 -46 68 -52 -2 -14 -26 14 -66 32 -87
39 l-39 14 47 -46 c26 -25 45 -48 42 -51 -4 -3 -12 0 -18 6 -7 7 -16 12 -22
12 -5 0 7 -16 29 -35 40 -38 54 -40 36 -6 -10 17 -9 20 4 15 8 -4 15 -14 16
-23 0 -10 2 -11 6 -3 3 9 13 6 34 -9 17 -12 28 -24 25 -27 -3 -3 -14 2 -24 12
-23 20 -52 11 -52 -16 0 -11 -5 -16 -10 -13 -6 4 -18 1 -26 -6 -12 -10 -12
-14 -2 -21 9 -7 6 -8 -9 -5 -20 4 -21 3 -12 -14 5 -11 15 -16 21 -13 6 4 8 3
5 -3 -4 -6 0 -16 8 -23 8 -7 15 -16 15 -20 0 -5 -33 13 -72 40 -40 26 -75 45
-78 43 -3 -3 0 -8 6 -10 6 -2 20 -11 30 -19 18 -15 18 -15 -8 -10 -14 3 -34 9
-45 12 -17 5 -17 4 1 -10 11 -9 28 -16 38 -16 29 0 68 -29 61 -46 -5 -13 -8
-13 -23 1 -21 19 -36 20 -20 0 10 -12 10 -15 -4 -15 -16 0 -22 -15 -8 -23 4
-2 1 -2 -7 0 -56 15 -104 23 -109 19 -2 -3 16 -10 42 -17 25 -6 49 -16 52 -21
4 -6 -1 -8 -12 -5 -11 4 -32 9 -49 12 l-30 7 25 -22 c14 -12 20 -19 14 -16 -7
3 -15 -1 -18 -10 -3 -8 -2 -13 2 -10 5 3 17 -5 27 -16 13 -16 15 -23 6 -26 -8
-3 -6 -9 6 -18 16 -13 16 -13 -8 -5 -52 19 -48 -5 7 -38 30 -18 53 -35 50 -38
-3 -3 -19 5 -35 17 -17 11 -35 18 -41 15 -14 -9 -12 -25 3 -21 6 1 9 1 5 -1
-4 -2 -5 -10 -2 -18 10 -25 -49 -3 -87 32 -16 15 -29 21 -33 14 -4 -5 -1 -13
6 -18 7 -4 26 -25 41 -45 20 -27 23 -36 11 -31 -13 5 -15 3 -9 -8 18 -30 -37
26 -57 58 -15 25 -19 44 -15 70 4 21 2 42 -5 50 -7 9 -7 13 0 13 6 0 14 21 17
48 4 27 19 64 36 89 16 23 29 46 29 52 0 6 4 11 9 11 5 0 7 8 4 19 -3 11 2 21
11 24 9 4 16 18 16 32 0 14 6 28 14 31 8 3 12 12 9 20 -6 16 15 46 27 39 10
-6 30 63 23 81 -6 16 13 19 22 4 3 -5 13 -10 21 -10 8 0 12 4 9 10 -9 14 11
47 29 47 9 0 18 -9 22 -19z m934 -188 c0 -5 -4 -10 -10 -10 -5 0 -10 5 -10 10
0 6 5 10 10 10 6 0 10 -4 10 -10z m-292 -28 c1 -5 13 -8 25 -5 18 4 20 3 7 -7
-13 -10 -12 -11 4 -6 10 4 25 1 32 -5 17 -14 18 2 2 21 -8 8 -4 7 11 -3 13 -8
30 -13 39 -10 10 4 13 2 8 -5 -5 -9 -1 -9 17 -3 21 8 26 6 30 -10 6 -22 34
-24 61 -4 11 8 24 15 30 15 5 0 1 -7 -10 -15 -19 -14 -18 -14 4 -15 12 0 22
-4 22 -9 0 -4 -12 -7 -27 -5 -24 2 -25 1 -12 -9 26 -20 38 -50 28 -69 -7 -12
-6 -18 1 -18 6 0 8 -5 5 -10 -4 -6 -1 -18 6 -26 10 -12 8 -19 -10 -38 -11 -12
-18 -25 -15 -29 3 -3 -3 -11 -14 -18 -20 -12 -20 -13 2 -30 11 -10 17 -19 11
-20 -37 -6 -55 -5 -55 3 0 5 10 7 23 3 20 -6 19 -4 -7 20 -27 25 -28 27 -11
46 23 24 12 38 -11 15 -9 -10 -23 -15 -31 -12 -8 3 -24 6 -36 7 -17 0 -19 2
-6 7 11 5 14 13 9 27 -7 19 -7 19 -19 -4 -12 -21 -10 -26 12 -45 24 -21 24
-22 7 -44 -10 -12 -23 -22 -29 -22 -6 0 -10 -16 -9 -35 1 -19 5 -35 10 -35 4
0 8 4 8 9 0 5 10 11 23 14 20 5 20 5 5 -7 -10 -7 -18 -20 -18 -28 0 -9 -8 -15
-17 -14 -10 0 -17 -5 -15 -11 1 -7 -3 -13 -9 -13 -8 0 -8 -4 0 -14 6 -8 13
-29 14 -47 1 -22 11 -42 27 -56 14 -12 19 -23 13 -23 -7 0 -13 -5 -13 -12 0
-6 3 -8 7 -5 3 4 12 -1 19 -11 7 -9 14 -12 14 -7 0 6 8 11 19 11 12 0 17 -6
13 -18 -2 -10 0 -18 5 -18 5 0 9 -9 9 -20 -1 -10 4 -19 9 -20 6 0 10 11 10 25
1 34 8 38 29 14 17 -20 17 -21 -6 -13 -19 6 -21 5 -10 -8 17 -21 -3 -36 -103
-84 -44 -20 -92 -46 -107 -56 -16 -11 -28 -16 -28 -12 0 4 -8 0 -18 -9 -14
-13 -21 -14 -30 -5 -9 9 -12 8 -12 -4 0 -9 -10 -18 -23 -22 -35 -8 -119 -90
-112 -108 4 -9 0 -18 -10 -22 -9 -3 -14 -2 -11 2 2 4 -4 8 -14 8 -17 0 -17 -2
-5 -16 7 -8 15 -19 17 -25 2 -5 10 -9 18 -7 48 10 84 -14 76 -50 -2 -10 0 -18
5 -18 5 0 9 -25 9 -55 0 -30 4 -55 10 -55 5 0 7 -7 3 -16 -4 -10 4 -24 20 -38
18 -15 23 -26 17 -36 -5 -8 -5 -17 -1 -20 5 -3 11 -16 15 -30 6 -19 5 -21 -3
-10 -9 13 -11 13 -11 -2 0 -9 -3 -18 -8 -20 -12 -5 -42 -90 -35 -101 3 -5 28
-7 54 -5 27 3 49 2 50 -1 0 -3 3 -18 5 -33 5 -31 -25 -93 -45 -93 -21 0 -40
-36 -22 -42 11 -5 11 -7 0 -15 -10 -7 -6 -8 13 -5 15 2 29 -1 32 -7 2 -6 5 -3
5 7 1 9 3 17 5 17 2 0 11 3 20 6 10 4 16 1 16 -8 0 -8 9 -23 20 -33 11 -10 20
-24 20 -31 0 -8 11 -21 25 -30 24 -16 27 -16 39 1 9 13 15 15 20 6 4 -6 12 -8
18 -5 6 4 15 0 20 -7 7 -10 8 -6 4 12 -5 21 -1 28 14 32 23 6 26 -3 8 -22 -10
-11 -10 -12 -1 -7 15 8 20 -14 26 -98 3 -34 10 -62 18 -67 11 -6 10 -9 -4 -15
-19 -7 -23 -44 -7 -60 5 -5 11 -23 12 -39 0 -17 14 -47 30 -68 16 -20 26 -42
22 -49 -4 -7 -3 -8 4 -4 11 7 18 -22 12 -49 -1 -5 -2 -25 -2 -44 0 -19 -6 -44
-13 -55 -14 -22 -38 -101 -61 -201 -25 -112 -2 -751 29 -801 3 -5 8 -27 11
-49 4 -22 11 -56 16 -75 5 -19 12 -69 16 -110 4 -41 8 -79 9 -85 14 -71 20
-95 32 -122 7 -18 9 -33 4 -33 -5 0 1 -27 14 -59 13 -33 25 -77 27 -98 9 -75
18 -82 111 -85 l82 -3 3 -161 2 -161 -39 10 c-37 10 -42 9 -63 -15 -13 -14
-28 -33 -33 -43 -10 -16 -14 -16 -35 -5 -14 7 -31 21 -38 32 -9 12 -26 18 -52
18 -22 0 -54 9 -72 20 -18 11 -49 20 -68 20 -23 0 -42 7 -53 20 -28 33 -53 9
-61 -59 -14 -111 -16 -103 42 -124 28 -11 52 -23 52 -28 0 -5 -18 -12 -40 -15
-22 -4 -40 -10 -40 -15 0 -5 5 -9 10 -9 17 0 11 -41 -11 -68 -18 -24 -20 -35
-14 -92 3 -36 11 -82 17 -102 8 -28 8 -41 -1 -52 -18 -22 3 -30 94 -36 73 -5
80 -7 83 -27 3 -20 -1 -21 -57 -22 -33 0 -73 -7 -89 -15 -23 -12 -37 -13 -67
-5 -34 10 -40 8 -54 -9 -12 -14 -25 -19 -47 -16 -24 3 -33 -1 -37 -15 -3 -15
6 -21 48 -35 28 -9 63 -16 77 -16 14 0 40 -5 58 -12 30 -10 32 -12 14 -19 -10
-4 -34 -8 -51 -8 -18 -1 -33 -4 -33 -8 0 -11 83 -93 94 -93 5 0 17 -6 25 -13
15 -13 206 -45 296 -50 l40 -2 1 -220 c1 -139 -1 -200 -6 -165 -5 30 -9 109
-11 175 -1 89 -4 108 -9 75 -4 -25 -8 -37 -8 -27 -3 30 -22 8 -23 -26 0 -18
-3 -26 -6 -19 -2 6 -9 10 -13 7 -5 -3 -7 -12 -3 -20 3 -8 1 -15 -4 -15 -6 0
-9 -13 -8 -29 1 -21 -2 -28 -12 -24 -7 3 -16 -2 -19 -11 -3 -9 -12 -16 -19
-16 -8 0 -11 -11 -9 -30 4 -33 -10 -47 -30 -31 -10 9 -15 8 -19 -4 -4 -8 -13
-12 -22 -9 -8 3 -15 2 -15 -4 0 -6 6 -13 13 -15 7 -3 5 -6 -6 -6 -10 -1 -17
-7 -16 -13 3 -20 -14 -53 -29 -56 -9 -2 -11 4 -7 18 3 11 2 20 -3 20 -5 0 -13
-10 -16 -22 -6 -18 -9 -20 -14 -8 -11 24 -46 18 -59 -10 -6 -14 -12 -19 -12
-13 -1 7 -9 12 -18 11 -10 -1 -27 0 -38 1 -16 1 -17 3 -5 11 12 8 12 10 -3 15
-13 6 -14 11 -6 26 6 11 12 39 14 62 2 23 1 34 -2 25 -2 -10 -9 -18 -14 -18
-5 0 -8 -5 -6 -11 1 -6 -4 -14 -11 -16 -11 -4 -12 -1 -3 15 8 15 8 23 -1 28
-8 5 -6 10 8 16 16 7 16 8 -6 7 -39 -2 -50 0 -50 10 0 4 10 6 23 4 12 -2 40 3
62 11 22 8 32 15 23 15 -11 1 -18 9 -18 21 0 17 -3 18 -26 10 -21 -8 -29 -7
-39 7 -9 12 -24 17 -49 15 -21 -2 -36 1 -36 7 0 6 -5 11 -11 11 -22 0 -40 31
-42 70 -1 22 -4 40 -8 40 -4 0 -10 24 -13 53 -5 38 -1 80 14 147 27 122 28
142 2 175 -28 36 -82 207 -123 390 -19 83 -35 140 -37 128 -2 -13 -8 -23 -13
-23 -5 0 -9 -4 -9 -10 0 -5 -9 -19 -20 -30 -11 -11 -20 -32 -20 -47 0 -19 -3
-24 -9 -15 -16 26 -21 -29 -6 -72 30 -86 -26 -109 -195 -82 -58 9 -117 16
-132 16 -30 0 -76 -37 -61 -49 4 -5 46 -13 93 -20 98 -14 240 -48 256 -62 6
-5 14 -6 17 -2 4 3 7 -1 7 -10 0 -10 -5 -17 -11 -17 -5 0 -7 -5 -4 -10 4 -6
-8 -10 -29 -10 -19 0 -37 -4 -40 -9 -3 -4 -45 -2 -93 6 -151 25 -288 3 -332
-53 -11 -14 -17 -33 -14 -44 7 -26 17 -25 32 4 7 13 39 37 71 55 65 34 124 39
252 21 65 -9 193 -54 203 -70 10 -16 -20 -66 -37 -62 -21 4 -34 -16 -19 -31 8
-8 11 -8 11 1 0 7 5 12 10 12 6 0 10 -9 10 -21 0 -31 18 -13 31 31 7 22 16 37
21 34 5 -3 7 -12 4 -20 -3 -9 0 -11 11 -7 12 5 15 2 10 -9 -4 -11 1 -18 15
-21 11 -3 17 -10 14 -16 -4 -6 0 -25 9 -42 24 -45 6 -56 -41 -26 -22 13 -43
25 -49 26 -5 1 -19 4 -30 7 -11 2 -34 6 -50 7 -17 2 -36 6 -42 10 -7 4 -14 3
-18 -3 -3 -5 -1 -10 5 -10 23 0 110 -92 110 -117 0 -51 -39 -66 -122 -49 -23
5 -26 4 -21 -11 5 -15 4 -16 -8 -7 -8 6 -29 14 -47 17 -43 9 -114 58 -132 92
-8 15 -32 36 -53 47 -21 10 -61 43 -88 72 -44 45 -54 51 -82 48 -18 -2 -56 1
-85 6 -45 8 -54 7 -68 -9 -15 -17 -15 -19 -2 -19 22 0 35 -46 30 -103 -4 -44
-6 -48 -26 -43 -11 3 -26 6 -32 6 -14 0 -146 88 -156 104 -14 21 4 81 33 111
22 23 36 29 66 28 131 -5 203 -12 222 -22 17 -10 21 -9 21 5 0 9 17 44 37 78
21 33 44 81 53 106 8 25 37 85 64 134 l49 89 -6 141 c-5 101 -3 168 8 238 8
53 19 163 25 245 5 81 13 186 16 233 3 47 15 137 26 200 52 312 64 398 60 436
-2 24 5 73 17 118 12 42 21 104 21 139 0 89 24 236 47 288 11 24 40 64 65 87
l46 44 1 641 c1 353 3 653 4 667 2 22 6 25 44 25 23 1 39 -3 37 -7 -3 -4 1 -8
9 -8 21 0 27 -24 17 -61 -5 -18 -8 -35 -5 -37 4 -5 8 4 17 35 2 9 15 7 45 -7
l43 -19 -5 42 c-8 65 -12 71 -55 90 -42 18 -85 18 -130 0 -14 -6 -29 -11 -34
-11 -5 0 -12 -6 -17 -14 -15 -24 -38 23 -39 79 0 41 -9 70 -40 131 -41 82 -87
243 -92 322 -3 44 -2 45 27 45 17 0 36 4 44 9 10 7 12 6 6 -4 -19 -30 52 3 91
43 23 23 60 58 82 77 23 19 41 42 42 50 0 8 10 31 22 50 12 19 21 45 19 57 -2
21 23 70 44 85 6 5 4 8 -4 8 -11 0 -9 6 7 20 12 11 24 20 27 20 6 0 24 13 56
43 11 10 33 20 49 24 17 3 30 9 30 14 0 11 53 4 58 -9z m-673 -102 c3 -5 2
-10 -4 -10 -5 0 -13 5 -16 10 -3 6 -2 10 4 10 5 0 13 -4 16 -10z m1554 -190
c-48 -43 -59 -48 -59 -26 0 20 57 66 82 66 17 0 13 -7 -23 -40z m-684 -70 c-3
-5 -10 -10 -16 -10 -5 0 -9 5 -9 10 0 6 7 10 16 10 8 0 12 -4 9 -10z m194
-482 c1 9 6 10 20 3 10 -6 22 -7 26 -3 4 4 3 -3 -4 -15 -13 -25 -15 -44 -2
-24 17 27 31 0 30 -56 -2 -46 -7 -60 -33 -88 -28 -30 -39 -64 -15 -49 17 10 9
-9 -18 -45 -15 -20 -30 -38 -33 -41 -12 -9 -20 -70 -10 -70 6 0 10 5 10 12 0
6 3 8 7 5 3 -4 -2 -17 -13 -29 -16 -19 -16 -20 -1 -9 9 8 20 11 23 8 7 -6 7
-56 1 -100 -4 -27 -4 -27 15 -10 10 9 16 23 13 30 -3 8 0 11 6 7 6 -3 10 1 9
12 -5 42 0 56 16 50 11 -4 15 -2 11 7 -3 8 -2 20 3 27 6 9 9 7 14 -8 4 -11 6
-24 5 -28 -1 -5 -1 -17 0 -26 2 -26 21 -22 21 4 0 12 3 18 6 15 7 -7 -14 -96
-25 -109 -4 -4 -6 10 -6 32 0 22 -3 47 -7 57 -7 19 -8 13 -13 -67 -2 -43 -15
-76 -24 -61 -4 6 -15 -3 -26 -22 -16 -27 -16 -30 -2 -18 9 7 17 9 17 4 0 -15
-63 -71 -92 -82 -33 -13 -38 -5 -5 9 16 8 11 9 -23 4 -25 -3 -47 -6 -50 -6
-25 -1 -39 4 -43 16 -5 11 2 14 30 11 27 -2 45 3 70 22 38 29 44 24 11 -7
l-23 -22 28 13 c15 7 27 19 27 28 0 13 2 13 9 3 7 -11 9 -11 14 1 4 11 0 15
-14 12 -10 -2 -19 0 -19 5 0 4 -9 6 -19 3 -11 -3 -28 0 -38 6 -16 9 -15 10 10
11 20 0 27 5 27 21 0 11 -5 17 -10 14 -6 -4 -8 -11 -5 -16 4 -5 -3 -5 -17 0
-14 5 -31 5 -40 0 -11 -6 -21 -4 -32 7 -19 18 -20 42 -6 80 9 22 8 29 -4 36
-9 5 -17 7 -20 6 -2 -2 -13 5 -24 15 -12 11 -25 16 -30 13 -12 -7 -25 22 -16
35 6 11 -9 12 -20 2 -3 -4 -14 -8 -22 -9 -13 -2 -13 0 2 17 22 24 12 36 -10
13 -9 -9 -20 -13 -24 -10 -3 4 0 12 8 17 11 8 12 12 2 16 -6 2 -10 9 -7 13 3
5 1 11 -5 15 -6 4 -10 -6 -11 -22 -2 -60 -5 -68 -21 -71 -10 -2 -18 2 -18 8 0
6 5 8 10 5 14 -9 12 21 -2 46 -11 17 -10 23 7 36 11 9 13 13 5 11 -8 -3 -22 2
-30 10 -13 14 -12 15 2 9 12 -4 15 -2 12 7 -4 9 3 14 20 14 14 0 26 -3 26 -7
0 -3 11 -6 25 -6 14 0 25 4 25 8 0 5 5 5 10 2 6 -3 10 1 10 9 0 9 39 34 96 63
94 46 98 50 116 98 11 28 29 59 41 71 19 18 23 19 29 5 4 -10 7 -11 7 -3z
m-249 -56 c0 -14 -23 -32 -41 -32 -12 0 -16 6 -12 20 3 13 14 20 29 20 13 0
24 -4 24 -8z m1270 -335 c0 -2 -9 -12 -20 -22 -19 -18 -20 -17 -20 3 0 15 6
22 20 22 11 0 20 -2 20 -3z m65 -27 c11 -17 19 -37 17 -45 -2 -8 2 -24 8 -35
9 -16 8 -18 -5 -14 -18 7 -21 -23 -4 -46 8 -12 9 -11 5 6 -4 14 -2 21 7 21 9
0 12 -7 10 -18 -3 -11 3 -19 16 -24 16 -5 21 -15 21 -41 0 -21 4 -33 10 -29
18 11 10 -9 -50 -130 -33 -66 -60 -126 -60 -132 0 -7 -4 -13 -10 -13 -5 0 -10
-11 -10 -24 0 -14 -4 -36 -9 -49 -7 -18 -6 -30 4 -43 13 -18 14 -18 36 1 l22
20 -12 -22 c-6 -13 -9 -23 -7 -23 3 0 -1 -19 -9 -41 -17 -48 -18 -52 -7 -46
11 7 52 -11 52 -23 0 -6 -4 -9 -8 -6 -4 2 -9 -5 -9 -16 -1 -12 -7 -24 -14 -29
-8 -5 -5 -11 11 -19 12 -6 19 -14 16 -18 -4 -3 4 -12 16 -20 18 -10 19 -12 3
-7 -52 18 -61 18 -35 -1 14 -10 27 -21 30 -24 13 -16 81 -49 77 -38 -2 7 3 25
11 40 l16 27 13 -31 c15 -36 8 -52 -12 -25 -7 11 -16 14 -19 8 -4 -5 2 -16 13
-23 18 -13 18 -14 -5 -25 -19 -9 -24 -8 -24 3 0 23 -28 28 -57 9 -18 -12 -28
-14 -31 -7 -5 15 -32 16 -32 2 0 -5 3 -9 8 -7 4 1 22 -14 41 -33 19 -19 31
-27 28 -17 -8 22 -1 22 30 -3 27 -21 58 -26 68 -11 3 5 -3 11 -12 14 -15 3
-14 6 7 14 20 9 28 7 43 -8 20 -21 37 -25 37 -8 0 5 5 7 10 4 6 -4 10 6 10 24
0 16 6 32 13 34 9 4 8 8 -3 17 -12 9 -10 10 9 5 16 -5 21 -4 17 4 -4 6 0 11 9
11 15 0 15 -2 1 -22 -23 -32 -19 -47 4 -19 17 20 20 20 20 5 0 -9 3 -14 6 -11
4 3 15 2 25 -3 12 -7 19 -6 21 2 3 7 5 -5 6 -26 1 -33 -1 -36 -14 -25 -8 7
-12 19 -9 26 3 9 0 13 -7 10 -7 -2 -12 -11 -10 -18 1 -9 -2 -8 -11 3 -10 13
-16 15 -25 6 -7 -7 -12 -19 -12 -28 1 -12 2 -12 11 3 9 15 12 15 25 3 8 -8 14
-20 14 -26 0 -7 7 -10 15 -7 12 5 12 2 3 -18 -12 -27 -30 -24 -22 3 5 15 3 14
-10 -2 -9 -11 -23 -17 -35 -13 -12 3 -22 -1 -26 -11 -3 -9 -3 -14 0 -10 4 3
20 2 35 -4 31 -10 32 -38 1 -38 -11 0 -12 -3 -4 -8 9 -6 3 -26 -22 -77 -19
-38 -38 -71 -43 -74 -4 -3 -16 -28 -27 -55 -11 -27 -29 -54 -40 -60 -11 -6
-25 -17 -31 -25 -7 -9 -16 -11 -25 -6 -12 7 -12 6 0 -9 14 -17 16 -16 33 6 14
19 18 20 18 6 0 -10 -9 -23 -19 -30 -10 -6 -18 -16 -17 -22 2 -6 1 -8 -2 -3
-2 4 -13 12 -25 19 -19 10 -20 9 -10 -4 11 -12 9 -18 -6 -32 -11 -10 -25 -15
-32 -11 -7 5 -10 3 -7 -6 2 -8 17 -15 32 -17 24 -3 27 -1 21 17 -5 16 -3 20 9
15 12 -4 13 -11 4 -29 -6 -13 -16 -21 -23 -19 -8 4 -11 -3 -9 -18 4 -24 -21
-66 -33 -55 -3 4 1 15 10 25 21 23 21 36 3 51 -19 16 -50 -30 -33 -49 9 -10 9
-11 -1 -5 -9 4 -15 0 -19 -14 -3 -12 -9 -21 -14 -21 -5 0 -9 -7 -9 -16 0 -15
-2 -15 -25 0 -30 20 -39 20 -31 1 3 -8 1 -15 -4 -15 -6 0 -10 -6 -10 -14 0 -7
-12 -16 -27 -19 -25 -5 -26 -4 -10 8 25 18 18 37 -21 56 -18 8 -29 18 -26 22
4 3 19 0 35 -8 38 -20 46 -19 21 4 -22 18 -28 32 -14 30 19 -3 23 2 12 16 -10
12 -15 13 -20 4 -6 -9 -12 -8 -26 1 -16 10 -16 11 -1 6 9 -3 17 -1 17 5 0 6 9
8 23 3 22 -7 22 -6 3 14 -10 12 -23 19 -27 16 -5 -3 -9 0 -9 5 0 6 -7 11 -15
11 -8 0 -15 5 -15 11 0 6 -6 9 -13 6 -8 -3 -14 1 -14 9 0 9 7 12 18 9 11 -4
22 1 28 12 6 10 11 13 11 6 0 -6 -5 -15 -10 -18 -8 -5 -7 -11 1 -21 6 -7 15
-11 20 -8 5 3 12 -2 15 -10 3 -9 14 -16 23 -15 12 0 11 3 -6 16 -27 18 -30 35
-5 27 14 -5 14 -4 2 4 -10 8 -19 7 -29 -1 -12 -10 -13 -9 -4 7 6 10 8 28 5 39
-4 15 -2 18 8 12 9 -5 11 -4 6 4 -4 6 -21 18 -38 27 -25 13 -32 14 -39 2 -5
-7 -7 -19 -4 -25 2 -7 -1 -12 -7 -10 -7 1 -14 -6 -16 -17 -2 -11 0 -16 7 -12
7 4 9 1 5 -8 -3 -9 -12 -12 -21 -9 -13 5 -15 2 -11 -15 4 -12 2 -22 -4 -22 -5
0 -6 -4 -3 -10 3 -5 -2 -10 -12 -10 -14 -1 -12 -6 12 -27 17 -15 22 -24 13
-20 -10 4 -24 9 -31 12 -8 3 -13 -3 -14 -16 -1 -12 -8 -26 -14 -30 -17 -10
-19 -47 -2 -53 13 -5 7 -36 -8 -36 -4 0 -6 7 -3 15 4 8 1 15 -5 15 -16 0 -24
-46 -11 -69 9 -17 8 -21 -5 -21 -8 0 -15 -7 -15 -16 0 -9 5 -12 13 -8 6 4 4
-2 -5 -13 -10 -11 -18 -29 -18 -41 0 -11 -4 -24 -10 -27 -5 -3 -10 -15 -10
-25 0 -10 -6 -20 -12 -23 -9 -3 -8 -9 5 -19 17 -13 17 -15 3 -27 -9 -8 -16
-20 -16 -27 0 -8 -4 -14 -10 -14 -5 0 -7 -7 -4 -15 4 -8 1 -15 -4 -15 -6 0
-14 -16 -18 -35 -3 -19 -10 -38 -15 -41 -5 -3 -7 -10 -4 -15 4 -5 -1 -16 -9
-25 -9 -8 -16 -21 -16 -27 0 -7 4 -6 10 3 5 8 12 12 15 8 8 -8 -13 -48 -25
-48 -5 0 -7 -7 -4 -15 4 -8 10 -12 15 -9 5 3 9 0 9 -6 0 -6 -6 -13 -13 -16
-18 -6 -16 -62 3 -74 8 -5 11 -12 7 -16 -4 -4 -16 1 -27 11 -20 18 -20 17 -20
-10 0 -21 -4 -26 -16 -21 -14 5 -15 4 -4 -9 14 -16 45 -21 35 -5 -3 6 -2 10 3
10 6 0 9 -11 8 -24 -1 -21 -4 -22 -26 -14 -23 9 -24 8 -6 -10 11 -13 14 -22 7
-27 -6 -3 -11 -1 -11 5 0 6 -4 8 -10 5 -15 -9 -12 -25 5 -25 8 0 15 -4 15 -10
0 -5 -4 -10 -10 -10 -5 0 -7 -7 -4 -15 4 -8 2 -15 -4 -15 -18 0 -21 -29 -5
-46 16 -16 16 -16 -5 -10 -23 8 -27 0 -12 -24 6 -9 5 -20 -3 -29 -10 -12 -9
-14 6 -8 11 4 16 3 12 -4 -4 -6 -21 -8 -38 -4 -30 6 -31 5 -13 -10 18 -14 18
-15 2 -15 -9 0 -14 -4 -11 -10 3 -6 -2 -10 -11 -10 -16 0 -16 -1 0 -19 17 -19
17 -19 -6 -14 -17 3 -19 2 -9 -5 19 -14 8 -82 -17 -103 -11 -8 -19 -28 -19
-43 0 -16 -6 -31 -12 -35 -6 -4 -13 -17 -15 -28 -3 -11 -13 -38 -24 -59 -31
-62 -37 -88 -19 -81 11 4 13 0 10 -13 -4 -15 4 -21 39 -30 65 -18 98 -38 98
-60 0 -27 -38 -26 -92 0 -23 11 -46 20 -51 20 -6 0 -25 11 -43 25 -18 14 -37
25 -43 25 -6 0 -11 5 -11 10 0 24 53 232 76 300 14 41 28 102 31 134 3 40 14
76 33 110 33 59 89 244 89 296 0 63 10 204 18 260 11 78 4 467 -9 449 -6 -9
-8 13 -5 67 3 65 8 87 25 109 12 15 22 36 22 46 0 10 4 20 9 24 6 3 10 13 10
23 0 9 4 40 10 67 5 28 6 54 1 58 -13 14 4 61 34 97 15 19 26 27 22 18 -3 -10
-1 -18 4 -18 6 0 10 6 10 14 0 19 43 45 66 41 10 -2 21 -4 24 -4 3 -1 -2 -6
-10 -12 -12 -9 -12 -10 3 -5 10 3 26 6 35 6 18 1 -110 71 -211 117 l-58 26
-22 -22 c-40 -36 -41 -23 -2 17 33 33 131 148 242 284 21 26 76 93 123 149
121 145 166 206 196 269 23 49 25 63 19 128 -7 81 5 94 40 42z m-130 9 c-8
-11 -55 -12 -55 -1 0 5 14 9 30 10 17 0 28 -4 25 -9z m-1274 -79 c-11 -11 -23
-14 -37 -9 -13 4 -26 3 -33 -4 -8 -8 -11 -8 -11 0 0 6 14 26 32 43 l31 32 17
-22 c16 -21 16 -24 1 -40z m1460 -7 c13 -16 12 -17 -3 -4 -10 7 -18 15 -18 17
0 8 8 3 21 -13z m52 -20 c-7 -2 -19 -2 -25 0 -7 3 -2 5 12 5 14 0 19 -2 13 -5z
m-1417 -138 c10 -8 14 -15 8 -15 -5 0 -19 7 -30 15 -10 8 -14 15 -8 15 5 0 19
-7 30 -15z m-16 -46 c0 -4 -11 -6 -24 -3 -26 4 -28 -5 -11 -49 7 -17 6 -17
-23 0 -22 13 -28 21 -20 30 5 7 7 17 3 22 -3 7 0 8 9 5 9 -3 16 -2 16 4 0 5
11 7 25 4 14 -2 25 -8 25 -13z m77 -15 c-3 -3 -12 -4 -19 -1 -8 3 -5 6 6 6 11
1 17 -2 13 -5z m2417 -175 c-3 -5 -10 -7 -15 -4 -5 3 -6 0 -3 -8 4 -11 -1 -13
-20 -10 -30 6 -31 7 -11 26 15 16 59 12 49 -4z m-2477 -11 c-3 -8 -6 -5 -6 6
-1 11 2 17 5 13 3 -3 4 -12 1 -19z m110 3 c13 11 18 -4 14 -38 -1 -7 6 -27 16
-45 9 -18 16 -38 15 -45 -1 -6 2 -14 8 -18 5 -3 10 -12 10 -18 0 -7 -9 2 -20
18 -11 17 -20 26 -21 20 -1 -5 -7 17 -15 50 l-13 60 0 -60 c1 -77 0 -80 -8
-72 -3 4 -9 41 -12 82 -4 47 -3 71 3 65 6 -6 14 -5 23 1z m2193 -161 c0 -5 -2
-10 -4 -10 -3 0 -8 5 -11 10 -3 6 -1 10 4 10 6 0 11 -4 11 -10z m-140 -20 c0
-5 -2 -10 -4 -10 -3 0 -8 5 -11 10 -3 6 -1 10 4 10 6 0 11 -4 11 -10z m520 6
c0 -2 -7 -7 -16 -10 -8 -3 -12 -2 -9 4 6 10 25 14 25 6z m-557 -13 c-7 -2 -21
-2 -30 0 -10 3 -4 5 12 5 17 0 24 -2 18 -5z m211 -2 c3 -5 -1 -11 -9 -14 -9
-4 -12 -1 -8 9 6 16 10 17 17 5z m-990 -16 c-4 -8 -10 -12 -15 -9 -11 6 -2 24
11 24 5 0 7 -7 4 -15z m906 5 c0 -5 -5 -10 -11 -10 -5 0 -7 5 -4 10 3 6 8 10
11 10 2 0 4 -4 4 -10z m43 -31 c-6 -6 -9 -1 -7 13 3 33 6 36 11 14 3 -10 1
-22 -4 -27z m-983 21 c0 -5 -2 -10 -4 -10 -3 0 -8 5 -11 10 -3 6 -1 10 4 10 6
0 11 -4 11 -10z m883 -25 c21 -7 20 -8 -8 -15 -16 -4 -24 -8 -17 -9 6 0 12
-13 12 -27 0 -23 1 -24 16 -10 16 17 27 20 57 17 9 -1 20 5 23 14 6 13 8 14
15 3 14 -22 10 -38 -10 -38 -11 0 -42 -5 -70 -12 -36 -8 -47 -14 -39 -21 8 -5
-3 -7 -31 -4 -24 3 -48 11 -52 19 -6 8 -9 -5 -9 -34 0 -27 -4 -48 -8 -48 -4 0
-6 15 -4 34 4 32 3 33 -38 40 -24 4 -44 5 -46 4 -2 -3 -7 -67 -15 -223 -1 -11
-3 -14 -6 -7 -6 17 -33 15 -33 -2 0 -8 -3 -21 -6 -30 -4 -11 0 -14 15 -13 12
1 21 6 21 11 0 6 6 4 13 -3 10 -10 8 -15 -7 -27 -24 -17 -72 -18 -80 -1 -3 6
-4 3 -1 -9 3 -12 -1 -27 -10 -34 -9 -7 -15 -8 -15 -2 0 6 6 12 12 14 9 3 7 10
-6 24 -19 18 -19 19 5 24 16 4 26 1 31 -9 4 -9 7 2 7 27 1 24 -4 42 -10 42 -6
0 -9 -7 -5 -15 4 -10 -1 -15 -14 -15 -16 0 -20 7 -19 33 1 30 1 31 9 7 4 -14
8 -19 9 -12 1 6 7 12 15 12 8 0 14 10 14 25 0 13 -5 22 -10 19 -5 -3 -7 -12
-4 -20 3 -8 1 -14 -4 -14 -6 0 -10 10 -10 23 0 18 -2 19 -10 7 -8 -12 -10 -9
-10 13 0 15 -4 27 -10 27 -5 0 -10 -7 -10 -15 0 -8 -6 -15 -12 -15 -9 0 -9 -3
-2 -8 13 -9 13 -52 1 -52 -5 0 -3 -7 4 -16 12 -14 11 -16 -6 -13 -14 3 -20 13
-21 36 -1 18 1 31 5 29 3 -2 6 22 5 55 0 32 3 59 8 59 5 0 6 16 2 36 -7 36 -6
37 19 30 15 -3 29 -1 32 5 4 6 13 8 20 5 8 -3 17 4 20 15 4 10 10 19 14 19 11
0 8 -44 -3 -52 -7 -5 -7 -11 2 -20 17 -17 15 -33 -3 -18 -11 9 -15 9 -15 1 0
-6 6 -14 14 -17 8 -3 13 -14 11 -25 -2 -10 -2 -19 1 -19 11 0 34 29 34 42 0
10 -3 9 -11 -2 -8 -12 -9 -9 -5 13 4 15 2 27 -4 27 -5 0 -10 5 -10 11 0 6 7 8
16 5 14 -5 15 -4 5 8 -8 9 -8 16 -2 20 16 10 2 34 -22 38 -15 3 -9 6 16 9 26
4 37 1 37 -8 0 -7 -5 -13 -11 -13 -8 0 -8 -4 0 -14 14 -17 51 -9 51 10 0 8 -8
14 -17 14 -13 0 -14 3 -5 12 16 16 35 -2 35 -35 0 -13 5 -24 12 -24 7 0 11 6
8 12 -2 7 7 15 21 17 20 4 26 1 26 -12 0 -10 7 -21 16 -24 14 -5 15 -4 5 8
-15 18 -5 40 14 32 8 -3 11 2 8 15 -3 10 -9 19 -14 19 -5 0 -2 12 8 27 14 20
19 23 21 11 2 -9 13 -19 25 -23z m447 21 c0 -3 -4 -8 -10 -11 -5 -3 -10 -1
-10 4 0 6 5 11 10 11 6 0 10 -2 10 -4z m-520 -24 c0 -24 -36 -46 -44 -27 -4
10 2 15 17 15 21 1 22 1 3 15 -19 15 -19 15 2 15 14 0 22 -6 22 -18z m125 8
c3 -5 1 -10 -4 -10 -6 0 -11 5 -11 10 0 6 2 10 4 10 3 0 8 -4 11 -10z m89 3
c-5 -5 -12 -12 -16 -18 -4 -6 -8 -2 -8 8 0 9 7 17 17 17 9 0 12 -3 7 -7z
m-997 -9 c-3 -3 -12 -4 -19 -1 -8 3 -5 6 6 6 11 1 17 -2 13 -5z m1265 -40
c-22 -16 -26 -11 -12 16 9 17 14 20 20 9 6 -8 2 -17 -8 -25z m-2475 14 c-2 -7
3 -22 12 -33 16 -20 16 -20 -6 -1 -13 11 -23 15 -23 11 0 -5 -3 -6 -6 -2 -3 3
0 13 7 21 17 19 22 20 16 4z m2233 -13 c11 -13 10 -14 -4 -9 -9 3 -16 10 -16
15 0 13 6 11 20 -6z m-977 -12 c-3 -8 -13 -11 -23 -8 -21 7 -37 -25 -18 -37
15 -9 6 -11 -16 -2 -14 5 -14 9 3 33 20 27 63 38 54 14z m457 7 c0 -5 -5 -10
-11 -10 -5 0 -7 5 -4 10 3 6 8 10 11 10 2 0 4 -4 4 -10z m477 -22 c-3 -7 -5
-2 -5 12 0 14 2 19 5 13 2 -7 2 -19 0 -25z m259 -15 c-1 -10 -9 -31 -16 -48
-7 -16 -14 -32 -15 -35 -1 -3 -7 -18 -13 -33 -7 -16 -10 -33 -6 -38 3 -5 1 -9
-4 -9 -5 0 -15 -19 -22 -42 -7 -24 -16 -54 -21 -68 -7 -23 -11 -41 -26 -140
-3 -19 -10 -41 -15 -47 -6 -7 -7 -24 -4 -38 4 -14 2 -25 -4 -25 -5 0 -10 -7
-10 -15 0 -8 4 -15 10 -15 9 0 7 -12 -7 -47 -4 -10 -8 -47 -9 -83 -3 -130 -4
-140 -14 -140 -14 0 -12 149 4 255 8 50 12 93 9 98 -2 4 3 10 12 13 10 4 13 9
6 13 -10 6 9 122 25 161 4 8 8 21 10 29 10 52 100 271 110 271 2 0 2 -8 0 -17z
m-2155 -42 l36 -25 -32 -41 c-17 -23 -37 -57 -44 -76 -19 -52 -53 -119 -74
-145 -20 -25 -75 -59 -84 -51 -2 3 2 25 10 49 12 36 25 131 32 236 1 13 6 27
11 30 5 4 9 13 9 21 0 16 63 41 85 33 8 -3 31 -17 51 -31z m1374 29 c3 -5 1
-10 -4 -10 -6 0 -11 5 -11 10 0 6 2 10 4 10 3 0 8 -4 11 -10z m221 -16 c-3 -9
-6 -20 -6 -25 0 -5 -4 -9 -10 -9 -8 0 -8 23 -1 48 1 1 6 2 12 2 6 0 8 -7 5
-16z m278 -16 c-3 -4 -13 -8 -22 -7 -11 0 -12 3 -4 6 6 2 12 12 12 21 0 14 2
15 9 2 6 -8 7 -18 5 -22z m-757 6 c-3 -3 -12 -4 -19 -1 -8 3 -5 6 6 6 11 1 17
-2 13 -5z m576 -14 c-4 -15 0 -20 13 -20 11 0 26 -5 34 -11 11 -8 6 -9 -20 -4
-26 5 -31 4 -20 -4 13 -9 12 -11 -5 -11 -17 0 -21 7 -23 35 -2 25 2 35 12 35
9 0 12 -7 9 -20z m52 11 c-3 -5 3 -12 12 -14 12 -3 8 -5 -9 -6 -27 -1 -43 11
-31 23 10 10 35 7 28 -3z m-666 -23 c0 -13 -3 -17 -6 -10 -2 6 -9 10 -14 6
-10 -6 -12 9 -2 19 13 14 23 7 22 -15z m79 -1 c2 -9 -3 -17 -10 -17 -8 0 -14
9 -15 21 -2 24 20 20 25 -4z m214 -7 c-5 -35 -16 -31 -18 5 0 14 4 25 11 25 7
0 10 -11 7 -30z m458 20 c0 -5 -5 -10 -11 -10 -5 0 -7 5 -4 10 3 6 8 10 11 10
2 0 4 -4 4 -10z m-1655 -22 c7 -8 3 -9 -13 -5 -13 3 -36 2 -52 -3 -28 -8 -59
8 -44 23 9 9 98 -3 109 -15z m1102 -21 c25 -15 31 -22 21 -28 -20 -13 -28 -11
-22 6 8 19 -26 21 -45 3 -10 -11 -12 -9 -9 6 1 10 -3 21 -11 24 -8 3 -11 0 -7
-7 9 -13 -4 -14 -24 -1 -11 7 -11 10 -2 10 7 0 10 5 6 11 -10 17 51 1 93 -24z
m330 18 c-4 -8 -1 -17 5 -21 7 -4 2 -12 -13 -21 -17 -10 -18 -12 -4 -8 11 4
28 10 38 12 17 5 17 6 0 19 -17 12 -16 13 5 7 12 -3 22 -11 22 -18 0 -10 8
-11 35 -4 19 6 40 7 45 4 17 -10 50 5 51 23 1 15 2 15 6 0 5 -20 53 -26 53 -7
0 6 -7 9 -15 5 -8 -3 -15 -1 -15 4 0 17 48 11 54 -6 4 -9 5 -18 4 -19 -2 -2
-30 -5 -63 -9 -99 -9 -150 -18 -155 -26 -7 -10 -40 -8 -40 2 0 5 -5 6 -10 3
-6 -3 -8 -17 -6 -31 3 -14 0 -24 -7 -24 -8 0 -8 -3 1 -12 7 -7 12 -16 12 -22
0 -5 -9 1 -20 14 -16 18 -17 25 -8 32 8 5 9 8 2 8 -14 0 -15 51 -2 68 7 8 7
12 -1 12 -8 0 -8 4 1 15 17 19 32 19 25 0z m-617 -5 c0 -5 -2 -10 -4 -10 -3 0
-8 5 -11 10 -3 6 -1 10 4 10 6 0 11 -4 11 -10z m81 -16 c2 2 4 -7 4 -20 0 -33
-8 -30 -22 7 -10 25 -9 28 1 20 7 -6 15 -9 17 -7z m901 4 c-11 -11 -82 -17
-82 -7 0 11 21 16 59 17 22 0 30 -3 23 -10z m-842 -38 c0 -13 -30 -33 -38 -25
-4 4 -1 10 6 12 9 4 10 8 2 18 -9 11 -7 12 9 8 12 -3 21 -9 21 -13z m560 -37
c0 -19 -3 -24 -10 -17 -6 6 -8 18 -4 27 9 24 14 21 14 -10z m25 17 c-3 -5 -1
-10 4 -10 6 0 11 6 11 13 0 8 3 7 10 -3 7 -11 5 -17 -8 -22 -28 -11 -32 -9
-32 12 0 11 5 20 11 20 5 0 7 -4 4 -10z m160 0 c-3 -5 -23 -9 -43 -9 l-37 2
40 7 c22 4 41 8 43 9 2 0 0 -3 -3 -9z m78 3 c3 -5 -6 -8 -19 -8 -13 0 -24 3
-24 8 0 4 9 7 19 7 11 0 22 -3 24 -7z m-863 -23 c27 -21 21 -26 -11 -9 -15 7
-27 6 -49 -5 -32 -15 -40 -7 -15 14 8 7 15 9 15 4 0 -4 5 -3 12 4 16 16 18 15
48 -8z m-110 0 c0 -5 -4 -10 -10 -10 -5 0 -10 5 -10 10 0 6 5 10 10 10 6 0 10
-4 10 -10z m683 -10 c3 -11 1 -20 -4 -20 -5 0 -9 2 -9 4 0 2 -3 11 -6 20 -3 9
-2 16 4 16 5 0 12 -9 15 -20z m307 -5 c0 -13 -4 -14 -20 -5 -11 6 -20 13 -20
15 0 3 9 5 20 5 11 0 20 -7 20 -15z m-596 -14 c4 -5 1 -11 -5 -13 -8 -3 -9
-15 -4 -38 5 -19 10 -30 12 -23 6 18 43 -7 43 -28 0 -27 -30 -32 -39 -7 -6 16
-10 18 -16 9 -4 -7 -4 -16 1 -20 5 -3 15 -13 21 -22 10 -13 10 -16 -2 -16 -8
0 -15 7 -16 16 0 12 -3 11 -9 -4 -5 -14 -3 -24 8 -32 14 -12 13 -13 -6 -13
-15 0 -22 6 -22 20 0 11 -4 20 -9 20 -5 0 -7 -9 -4 -20 3 -11 0 -20 -6 -20
-19 0 -12 39 9 50 11 6 18 15 14 21 -4 6 -11 6 -20 -2 -16 -13 -17 -4 -4 26 5
11 9 14 9 7 1 -7 6 -10 12 -7 6 4 10 21 9 39 -3 50 -1 66 9 66 6 0 12 -4 15
-9z m362 -18 c-10 -10 -19 5 -10 18 6 11 8 11 12 0 2 -7 1 -15 -2 -18z m44 1
c0 -2 -7 -4 -15 -4 -8 0 -15 4 -15 10 0 5 7 7 15 4 8 -4 15 -8 15 -10z m-126
-15 c-31 -12 -39 -10 -19 5 11 8 24 12 29 8 5 -3 1 -9 -10 -13z m-69 1 c3 -5
1 -10 -4 -10 -6 0 -11 5 -11 10 0 6 2 10 4 10 3 0 8 -4 11 -10z m130 -20 c-4
-6 5 -10 19 -10 16 0 26 -6 26 -15 0 -9 -9 -15 -25 -15 -30 0 -24 -27 8 -34
14 -2 10 -4 -8 -3 -27 2 -30 5 -31 37 -1 35 3 50 12 50 3 0 2 -4 -1 -10z m166
-37 l-11 -28 4 28 c3 23 1 25 -12 15 -13 -12 -14 -10 -3 11 18 34 37 12 22
-26z m73 31 c3 -8 2 -12 -4 -9 -6 3 -10 10 -10 16 0 14 7 11 14 -7z m-341 -5
c-6 -6 -9 -18 -6 -25 3 -9 -2 -14 -14 -14 -11 0 -20 7 -20 15 0 8 6 15 14 15
7 0 13 5 13 10 0 6 5 10 12 10 9 0 9 -3 1 -11z m61 -4 c-19 -15 -19 -15 1 -9
20 6 20 5 1 -10 -23 -19 -42 -20 -51 -5 -9 13 24 38 49 39 20 0 20 0 0 -15z
m-378 -99 c-1 -63 -4 -76 -18 -80 -10 -2 -18 0 -18 5 0 5 5 9 10 9 6 0 10 9
10 21 0 11 -4 17 -10 14 -14 -9 -12 8 3 24 9 11 9 12 0 7 -9 -5 -11 -2 -7 8 3
9 10 16 16 16 5 0 6 5 3 10 -6 11 0 40 8 40 3 0 4 -34 3 -74z m499 64 c-3 -5
-12 -10 -18 -10 -7 0 -6 4 3 10 19 12 23 12 15 0z m-156 -27 c12 -14 5 -17
-30 -14 -9 1 -19 -6 -23 -15 -4 -12 -2 -15 9 -10 11 4 15 -2 15 -24 0 -17 5
-30 10 -30 6 0 10 -5 10 -11 0 -5 -5 -7 -10 -4 -13 8 -10 -67 2 -76 12 -8 -12
-59 -28 -59 -12 0 -31 -96 -21 -106 10 -10 -15 -64 -29 -64 -8 0 -14 -4 -14
-10 0 -5 -7 -10 -15 -10 -8 0 -15 -9 -15 -19 0 -11 -9 -22 -19 -26 -12 -3 -21
-17 -23 -33 -2 -15 -8 -27 -14 -27 -6 0 -18 -8 -28 -17 -17 -17 -16 -18 15
-18 43 0 33 -8 -14 -12 -21 -1 -43 -9 -50 -17 -9 -11 -9 -13 0 -8 6 4 14 3 17
-2 6 -9 -30 -24 -51 -22 -7 1 -13 -3 -13 -9 0 -5 6 -10 14 -10 8 0 13 -8 11
-17 -2 -10 -4 -20 -4 -22 -1 -3 -7 3 -14 13 -12 16 -13 14 -9 -19 4 -31 2 -36
-14 -33 -12 2 -19 -3 -19 -17 -3 -50 -5 -54 -20 -49 -9 4 -24 -3 -35 -16 -11
-13 -20 -19 -21 -14 0 5 -5 -2 -11 -16 -6 -14 -12 -20 -15 -13 -3 10 -7 10
-17 0 -11 -9 -10 -14 3 -24 14 -11 13 -12 -6 -13 -13 0 -23 -4 -23 -8 0 -4
-19 -8 -42 -7 -32 0 -49 -6 -64 -22 -20 -22 -47 -32 -41 -15 3 11 -6 14 -25 7
-29 -11 -10 -25 33 -25 42 0 43 -1 40 -70 -3 -66 -6 -80 -16 -81 -5 -1 -30 -8
-55 -15 -25 -7 -90 -20 -145 -29 -101 -17 -147 -32 -65 -22 25 3 108 12 185
21 77 9 157 18 178 21 21 3 37 1 37 -5 0 -5 -9 -10 -19 -10 -11 0 -27 -8 -37
-17 -9 -10 -28 -16 -41 -15 -19 3 -22 0 -16 -15 6 -16 5 -16 -10 -4 -15 12
-17 11 -17 -12 0 -14 8 -31 18 -36 15 -9 13 -10 -9 -11 -24 0 -26 -4 -26 -37
1 -28 -3 -37 -17 -39 -26 -4 -29 -9 -11 -24 13 -11 14 -10 8 6 -6 17 -5 17 10
6 22 -18 3 -62 -27 -61 -21 0 -21 1 -1 9 18 8 18 9 -5 9 -23 1 -25 -2 -25 -44
1 -24 4 -47 8 -51 10 -10 -3 -56 -21 -76 -8 -10 -26 -18 -40 -18 -14 0 -23 -3
-19 -6 7 -8 -17 -34 -32 -34 -6 0 -15 -9 -21 -20 -6 -11 -15 -18 -20 -15 -5 3
-12 -5 -16 -17 -4 -12 -17 -31 -30 -41 -13 -10 -23 -21 -22 -25 2 -13 -14 -42
-24 -42 -6 0 -6 6 1 14 8 9 8 16 2 20 -5 3 -12 -7 -16 -23 -4 -17 -15 -33 -26
-36 -10 -4 -19 -11 -19 -16 0 -5 -8 -9 -17 -10 -12 0 -13 -2 -5 -6 7 -3 19 0
26 6 11 9 12 6 8 -14 -3 -19 -9 -24 -23 -20 -18 6 -45 -26 -32 -39 3 -3 -4 -6
-16 -6 -12 0 -19 -4 -16 -10 3 -5 -2 -10 -12 -11 -16 0 -16 -1 2 -8 16 -7 13
-9 -18 -15 -20 -4 -37 -11 -37 -17 0 -6 -8 -9 -17 -7 -10 1 -24 -1 -31 -5 -7
-5 -14 -2 -17 7 -3 9 -7 23 -10 31 -2 8 0 17 4 19 8 5 26 83 22 99 0 4 6 7 14
7 20 0 19 10 -2 27 -17 13 -16 14 4 10 27 -6 40 8 20 20 -22 13 -28 53 -9 54
15 1 15 2 0 6 -10 2 -18 8 -18 13 0 5 8 14 18 19 14 9 15 12 2 20 -12 9 -12
15 3 46 10 20 15 40 12 45 -6 9 22 65 43 89 8 7 11 22 9 32 -3 12 0 19 8 19 8
0 12 10 10 25 -1 14 2 25 6 25 5 0 9 14 9 30 0 19 6 33 16 37 13 5 13 7 2 14
-10 7 -10 9 0 9 6 0 12 6 12 14 0 8 13 27 28 44 15 16 26 34 25 39 -6 16 27
84 43 90 10 4 12 8 5 12 -7 5 -6 16 4 35 8 15 20 45 26 66 8 27 20 42 40 51
16 6 29 17 29 23 0 15 57 94 95 132 44 44 75 83 75 93 0 5 9 13 20 16 11 3 20
13 20 22 0 9 6 13 13 10 8 -3 20 -1 28 4 10 6 10 9 2 9 -7 0 -13 7 -13 16 0 8
4 13 10 9 5 -3 14 9 19 27 9 31 10 31 16 11 4 -13 10 -23 14 -23 7 0 41 74 41
90 0 6 9 10 20 10 16 0 19 5 16 23 -2 13 0 30 5 38 8 12 10 12 19 -1 9 -13 10
-13 11 0 1 8 1 18 0 23 0 4 3 7 9 7 6 0 10 -7 10 -16 0 -8 4 -13 10 -9 13 8 1
35 -16 35 -8 0 -14 10 -14 25 0 14 5 25 10 25 6 0 10 -8 8 -17 -2 -11 5 -19
17 -21 17 -4 18 -2 6 12 -12 14 -11 16 4 16 12 0 15 5 11 16 -4 11 -2 15 8 11
8 -3 17 -3 21 1 3 4 14 7 23 7 9 0 17 5 16 10 -1 6 7 18 17 28 11 9 19 13 19
7 0 -5 7 -10 15 -10 8 0 15 5 15 11 0 5 -4 7 -10 4 -5 -3 -10 -1 -10 4 0 6 5
11 11 11 5 0 7 5 4 10 -3 6 -2 10 2 10 5 0 14 10 19 23 6 12 9 16 7 9 -1 -7 2
-10 7 -7 14 9 12 42 -2 48 -7 3 -3 6 10 6 18 1 22 -4 22 -31 1 -32 1 -32 16
-13 13 17 16 18 24 5 9 -13 11 -13 20 0 14 22 12 30 -6 23 -12 -4 -15 -2 -12
8 3 8 11 13 17 12 6 -2 11 1 11 7 0 5 8 7 18 3 14 -5 13 -3 -3 10 -11 9 -21
11 -23 6 -2 -5 -13 -9 -24 -9 -18 0 -18 1 -3 16 9 9 13 19 10 22 -3 4 -10 0
-15 -8 -8 -13 -10 -13 -10 1 0 9 7 20 16 23 21 8 8 27 -14 20 -13 -5 -14 -4
-3 4 11 8 10 12 -5 21 -18 10 -18 10 -1 11 26 0 47 -24 47 -54 0 -26 13 -35
25 -16 3 6 1 10 -5 10 -6 0 -8 5 -5 10 4 6 11 8 16 5 5 -4 9 3 9 14 0 12 -5
21 -10 21 -7 0 -6 6 1 18 12 20 61 23 78 5z m41 2 c0 -8 -3 -15 -6 -15 -3 0
-12 7 -20 15 -14 13 -13 15 5 15 12 0 21 -6 21 -15z m-153 -1 c-3 -3 -12 -4
-19 -1 -8 3 -5 6 6 6 11 1 17 -2 13 -5z m-107 -19 c0 -8 -2 -15 -4 -15 -2 0
-6 7 -10 15 -3 8 -1 15 4 15 6 0 10 -7 10 -15z m-1374 -97 c-10 -151 -34 -289
-59 -336 -13 -26 -36 -78 -50 -117 -15 -38 -42 -108 -61 -155 -20 -47 -36
-101 -37 -120 0 -19 -4 -44 -8 -54 -7 -17 -9 -16 -29 11 -25 36 -29 83 -7 83
22 0 39 74 26 113 -6 18 -18 77 -27 132 -13 84 -14 119 -4 225 6 69 12 150 13
180 2 50 5 56 32 69 17 8 50 16 75 16 25 1 63 11 85 23 50 25 57 17 51 -70z
m1604 88 c0 -2 -8 -10 -17 -17 -16 -13 -17 -12 -4 4 13 16 21 21 21 13z m-186
-21 c-7 -16 -24 -21 -24 -6 0 8 7 13 27 20 1 1 0 -6 -3 -14z m249 -27 c-10
-21 -10 -21 -9 9 1 19 5 28 10 23 6 -6 5 -18 -1 -32z m-383 -8 c0 -5 -4 -10
-10 -10 -5 0 -10 5 -10 10 0 6 5 10 10 10 6 0 10 -4 10 -10z m30 0 c0 -5 -4
-10 -10 -10 -5 0 -10 5 -10 10 0 6 5 10 10 10 6 0 10 -4 10 -10z m37 4 c-3 -3
-12 -4 -19 -1 -8 3 -5 6 6 6 11 1 17 -2 13 -5z m-143 -19 c-7 -16 -44 -41 -44
-29 0 9 33 43 42 43 4 1 5 -6 2 -14z m426 6 c0 -12 -28 -22 -34 -12 -3 5 -3
11 1 15 9 9 33 7 33 -3z m-205 -20 c0 -8 -8 -15 -17 -17 -12 -1 -18 4 -18 18
0 13 6 18 18 16 9 -2 17 -10 17 -17z m-125 1 c0 -4 -9 -8 -20 -8 -11 0 -20 4
-20 8 0 4 9 8 20 8 11 0 20 -4 20 -8z m-63 -34 c-3 -8 -6 -5 -6 6 -1 11 2 17
5 13 3 -3 4 -12 1 -19z m-64 -5 c-7 -2 -19 -2 -25 0 -7 3 -2 5 12 5 14 0 19
-2 13 -5z m44 1 c-3 -3 -12 -4 -19 -1 -8 3 -5 6 6 6 11 1 17 -2 13 -5z m-57
-24 c0 -5 -4 -10 -10 -10 -5 0 -10 5 -10 10 0 6 5 10 10 10 6 0 10 -4 10 -10z
m80 0 c0 -5 -5 -10 -11 -10 -5 0 -7 5 -4 10 3 6 8 10 11 10 2 0 4 -4 4 -10z
m-87 -32 c-2 -5 -10 -8 -18 -8 -8 0 -16 3 -18 8 -3 4 5 7 18 7 13 0 21 -3 18
-7z m187 -28 c0 -5 -4 -10 -10 -10 -5 0 -10 5 -10 10 0 6 5 10 10 10 6 0 10
-4 10 -10z m-30 -30 c0 -5 -5 -10 -11 -10 -5 0 -7 5 -4 10 3 6 8 10 11 10 2 0
4 -4 4 -10z m-660 -16 c0 -8 -5 -12 -10 -9 -6 4 -8 11 -5 16 9 14 15 11 15 -7z
m900 -14 c0 -5 -5 -10 -11 -10 -5 0 -7 5 -4 10 3 6 8 10 11 10 2 0 4 -4 4 -10z
m-440 -150 c-12 -8 -12 -10 -1 -10 8 0 12 -3 8 -6 -9 -9 -28 6 -22 17 4 5 12
9 18 9 7 0 6 -4 -3 -10z m-306 -246 c-47 -93 -107 -207 -132 -254 -26 -47 -52
-97 -59 -112 -7 -16 -17 -28 -23 -28 -5 0 -10 -8 -10 -18 0 -19 -18 -42 -33
-42 -4 0 -1 10 7 22 9 12 16 30 16 40 0 10 5 18 10 18 24 0 8 38 -20 50 -16 7
-30 16 -30 21 0 14 16 11 30 -6 16 -19 34 -19 49 -1 10 12 9 14 -6 10 -10 -2
-29 5 -43 16 -18 14 -20 20 -9 20 8 0 20 -5 27 -12 6 -6 15 -8 19 -4 4 4 2 11
-5 15 -9 6 -7 14 10 32 25 26 28 45 13 69 -8 13 -7 13 8 1 14 -11 18 -11 23 5
3 11 10 27 15 37 6 10 7 28 4 40 -4 13 -3 17 2 10 14 -20 34 1 35 36 1 20 8
36 20 42 10 5 16 14 13 18 -2 5 2 15 11 22 13 11 17 10 26 -4 13 -25 48 -4 48
28 0 14 4 25 9 25 5 0 13 9 16 21 7 22 37 61 42 55 1 -1 -36 -79 -83 -172z
m-114 162 c0 -3 -4 -8 -10 -11 -5 -3 -10 -1 -10 4 0 6 5 11 10 11 6 0 10 -2
10 -4z m12 -28 c-7 -7 -12 -8 -12 -2 0 14 12 26 19 19 2 -3 -1 -11 -7 -17z
m108 -4 c14 -9 17 -13 6 -10 -13 5 -17 2 -12 -9 3 -9 0 -15 -8 -15 -8 0 -17
-6 -19 -12 -3 -7 -6 -3 -6 9 -1 12 2 23 7 26 4 2 1 2 -5 1 -14 -4 -17 8 -6 19
9 10 14 8 43 -9z m-100 -54 c0 -5 -7 -7 -15 -4 -8 4 -15 8 -15 10 0 2 7 4 15
4 8 0 15 -4 15 -10z m-10 -31 c0 -6 -4 -7 -10 -4 -5 3 -10 11 -10 16 0 6 5 7
10 4 6 -3 10 -11 10 -16z m1222 -11 c-9 -9 -12 -7 -12 12 0 19 3 21 12 12 9
-9 9 -15 0 -24z m-1237 -8 c3 -6 -1 -7 -9 -4 -18 7 -21 14 -7 14 6 0 13 -4 16
-10z m-20 -50 c3 -5 2 -10 -4 -10 -5 0 -13 5 -16 10 -3 6 -2 10 4 10 5 0 13
-4 16 -10z m-44 -67 c-12 -20 -14 -14 -5 12 4 9 9 14 11 11 3 -2 0 -13 -6 -23z
m-26 -83 c3 -6 -1 -7 -9 -4 -18 7 -21 14 -7 14 6 0 13 -4 16 -10z m582 -16
c-3 -3 -12 -4 -19 -1 -8 3 -5 6 6 6 11 1 17 -2 13 -5z m-627 -154 c0 -5 -2
-10 -4 -10 -3 0 -8 5 -11 10 -3 6 -1 10 4 10 6 0 11 -4 11 -10z m485 -40 c3
-6 -1 -7 -9 -4 -18 7 -21 14 -7 14 6 0 13 -4 16 -10z m-10 -19 c3 -5 2 -12 -3
-15 -5 -3 -9 1 -9 9 0 17 3 19 12 6z m122 -47 c-3 -3 -12 -4 -19 -1 -8 3 -5 6
6 6 11 1 17 -2 13 -5z m-732 -52 c-7 -8 -35 7 -35 18 0 6 7 6 20 -2 10 -7 17
-14 15 -16z m585 -42 c0 -5 -5 -10 -11 -10 -5 0 -7 5 -4 10 3 6 8 10 11 10 2
0 4 -4 4 -10z m-50 -194 c0 -3 -4 -8 -10 -11 -5 -3 -10 -1 -10 4 0 6 5 11 10
11 6 0 10 -2 10 -4z m-1223 -737 c13 -13 -24 -78 -45 -79 -19 0 -31 41 -19 68
11 23 45 30 64 11z m1966 -15 c29 -5 35 -10 27 -20 -9 -10 -6 -11 10 -7 13 4
26 0 31 -8 13 -20 11 -29 -5 -29 -8 0 -18 -9 -21 -20 -3 -11 -11 -20 -16 -20
-5 0 -9 -6 -9 -12 0 -7 -16 -24 -34 -36 -19 -13 -33 -29 -30 -36 3 -7 -4 -21
-16 -31 -11 -10 -20 -30 -20 -45 0 -19 -6 -29 -20 -33 -10 -3 -21 0 -23 7 -3
8 -9 7 -20 -3 -11 -9 -17 -10 -17 -2 0 6 5 11 10 11 14 0 13 106 -2 129 -11
17 -14 18 -35 4 -14 -10 -23 -11 -23 -4 0 6 -7 11 -15 11 -17 0 -20 16 -5 25
17 11 11 28 -7 20 -15 -5 -16 -4 -5 6 17 18 15 30 -3 23 -8 -4 -15 -1 -15 5 0
6 5 11 10 11 6 0 10 5 10 11 0 6 -7 9 -15 5 -8 -3 -15 -2 -15 3 0 14 93 23
101 10 4 -6 12 -8 18 -5 6 4 9 11 7 15 -3 4 15 6 40 6 24 -1 44 2 44 7 0 10
12 10 63 2z m-693 -72 c0 -5 16 -9 35 -10 38 -1 173 -61 140 -62 -17 0 -17 -2
-5 -10 13 -8 12 -10 -2 -10 -11 0 -18 -8 -18 -21 0 -16 -4 -19 -22 -14 -13 4
-30 9 -40 11 -9 3 -19 0 -22 -5 -8 -12 -34 -4 -57 16 -13 11 -19 10 -39 -7
l-24 -20 -28 30 c-22 25 -35 31 -61 28 -17 -2 -31 -8 -30 -14 1 -7 -6 -10 -18
-7 -12 4 -25 -1 -33 -12 -15 -21 -52 -13 -40 7 4 7 -2 4 -14 -6 -22 -19 -22
-19 -43 8 -23 30 -41 35 -32 9 5 -15 3 -14 -10 2 -13 16 -18 17 -26 6 -7 -11
-12 -10 -30 5 -12 11 -25 19 -30 19 -4 0 -14 7 -22 15 -14 13 0 15 125 17 78
1 177 8 221 16 96 18 125 20 125 9z m313 2 c11 -11 -15 -63 -35 -70 -37 -11
-44 13 -13 46 29 31 37 35 48 24z m-430 -101 c-7 -2 -19 -2 -25 0 -7 3 -2 5
12 5 14 0 19 -2 13 -5z m-1218 -73 c-3 -5 -1 -10 4 -10 6 0 11 -4 11 -9 0 -12
-63 -23 -84 -15 -16 6 -16 8 0 25 17 19 80 27 69 9z m-1945 -15 c-7 -9 -15
-13 -17 -11 -7 7 7 26 19 26 6 0 6 -6 -2 -15z m-30 -10 c0 -8 -4 -15 -10 -15
-5 0 -10 7 -10 15 0 8 5 15 10 15 6 0 10 -7 10 -15z m1299 -57 c-8 -14 -14
-18 -17 -10 -4 13 17 46 25 38 3 -2 -1 -15 -8 -28z m2579 7 c-2 -1 -14 -8 -28
-15 -25 -13 -25 -13 -6 8 10 12 23 19 28 16 5 -3 8 -7 6 -9z m8 -33 c0 -10 -8
-18 -18 -18 -20 0 -24 22 -5 29 20 9 23 8 23 -11z m-3689 -378 c22 -24 29 -26
77 -20 63 8 136 -6 153 -30 27 -36 8 -77 -40 -88 -23 -5 -30 -2 -47 26 -11 18
-20 28 -20 22 0 -6 -11 -17 -25 -24 -13 -7 -27 -21 -30 -31 -4 -10 -9 -18 -13
-17 -4 1 -18 -3 -32 -9 -14 -6 -46 -13 -72 -16 -41 -5 -50 -3 -63 16 -19 27
-19 80 0 116 13 26 69 81 82 81 3 0 17 -12 30 -26z m1024 -63 c13 -11 22 -22
19 -25 -3 -3 -19 6 -35 19 -17 13 -25 24 -19 25 7 0 22 -9 35 -19z m-315 -72
c29 -28 21 -53 -26 -74 -58 -26 -107 0 -65 35 9 7 14 19 11 25 -13 36 46 46
80 14z m214 -23 c24 -3 48 -10 53 -15 14 -14 0 -30 -23 -24 -11 3 -20 0 -20
-6 0 -14 -53 -41 -80 -41 -17 0 -20 4 -15 20 6 18 3 19 -24 14 -35 -7 -40 5
-13 29 19 17 64 37 73 31 3 -1 25 -5 49 -8z m-790 -76 c14 -12 32 -23 41 -26
24 -8 42 -48 34 -73 -5 -17 -14 -21 -46 -21 -27 0 -42 5 -46 16 -6 16 -58 17
-80 2 -29 -22 -35 67 -7 109 13 21 21 24 47 19 18 -3 43 -15 57 -26z m1357 4
c-3 -3 -12 -4 -19 -1 -8 3 -5 6 6 6 11 1 17 -2 13 -5z m369 -64 c0 -11 -4 -20
-8 -20 -10 0 -11 24 -1 33 9 9 9 10 9 -13z m-1618 -116 c69 -6 82 -9 80 -23
-2 -9 -11 -15 -20 -13 -8 1 -21 -5 -28 -13 -7 -8 -23 -15 -37 -15 -13 0 -35
-11 -49 -25 l-25 -25 -8 23 c-5 12 -13 41 -18 65 -9 37 -8 42 6 38 9 -3 53 -8
99 -12z m1745 -44 c-7 -28 -13 -25 -13 6 0 14 4 23 9 20 5 -3 7 -15 4 -26z
m-1627 -125 c-26 -20 -57 -20 -50 0 4 9 19 15 38 15 29 -1 30 -1 12 -15z
m-596 -9 c0 -3 -15 -14 -32 -26 l-33 -22 30 26 c31 27 35 29 35 22z m-70 -50
c0 -3 -15 -14 -32 -26 l-33 -22 30 26 c31 27 35 29 35 22z m190 -55 c-15 -8
-146 -31 -209 -37 -38 -3 -45 -11 -63 -71 -10 -35 -17 -43 -36 -43 -13 0 -20
4 -17 10 4 6 12 7 18 3 7 -4 6 0 -2 10 -10 12 -11 24 -3 46 12 33 5 46 -15 30
-24 -20 -14 0 12 24 28 25 108 37 120 17 3 -6 12 -7 18 -3 11 8 97 19 162 21
21 1 25 -1 15 -7z m960 -11 c-20 -37 -75 -70 -116 -70 -29 0 -35 -3 -24 -10
17 -11 10 -13 -14 -4 -37 14 -15 32 47 38 53 6 66 11 86 37 27 33 36 38 21 9z
m-229 -37 c13 -16 12 -17 -3 -4 -17 13 -22 21 -14 21 2 0 10 -8 17 -17z m44
-31 c-3 -3 -11 0 -18 7 -9 10 -8 11 6 5 10 -3 15 -9 12 -12z m-1155 -8 c-8 -8
-23 -20 -34 -25 -13 -6 -10 0 9 15 34 29 43 33 25 10z m1308 -21 c-10 -2 -26
-2 -35 0 -10 3 -2 5 17 5 19 0 27 -2 18 -5z m49 1 c-3 -3 -12 -4 -19 -1 -8 3
-5 6 6 6 11 1 17 -2 13 -5z"/>
<path d="M6670 6862 c0 -19 57 -62 73 -56 19 7 23 28 5 22 -7 -3 -24 6 -38 19
-26 24 -40 29 -40 15z"/>
<path d="M6497 6693 c-12 -11 -8 -23 9 -23 8 0 13 4 9 9 -3 5 3 12 12 14 15 4
14 5 -3 6 -11 0 -24 -2 -27 -6z"/>
<path d="M6515 6630 c3 -5 11 -10 16 -10 6 0 7 5 4 10 -3 6 -11 10 -16 10 -6
0 -7 -4 -4 -10z"/>
<path d="M7497 6701 c-16 -17 -16 -19 1 -34 24 -22 29 -21 35 2 3 14 1 18 -9
14 -17 -6 -18 9 -2 25 7 7 8 12 3 11 -6 0 -18 -8 -28 -18z"/>
<path d="M7610 6716 c0 -2 7 -7 16 -10 8 -3 12 -2 9 4 -6 10 -25 14 -25 6z"/>
<path d="M7548 6654 c-5 -4 -8 -21 -8 -38 0 -21 3 -27 11 -19 6 6 9 23 7 38
-2 15 -6 23 -10 19z"/>
<path d="M7480 5040 c0 -5 5 -10 10 -10 6 0 10 5 10 10 0 6 -4 10 -10 10 -5 0
-10 -4 -10 -10z"/>
<path d="M7601 4874 c0 -11 3 -14 6 -6 3 7 2 16 -1 19 -3 4 -6 -2 -5 -13z"/>
<path d="M6988 4413 c-54 -63 -99 -205 -97 -305 1 -34 4 -26 14 37 14 92 48
198 74 235 35 50 40 69 9 33z"/>
<path d="M6880 3970 c-6 -75 -5 -88 5 -78 3 3 5 39 3 79 l-3 74 -5 -75z"/>
<path d="M6881 3634 c1 -27 5 -62 9 -79 5 -18 6 -1 3 45 -6 86 -14 107 -12 34z"/>
<path d="M6979 2866 c-8 -9 0 -75 12 -98 10 -19 1 -46 -16 -47 -5 -1 -10 -6
-10 -12 0 -7 -7 -15 -15 -18 -8 -3 -16 -17 -18 -31 -1 -14 -10 -32 -20 -40
-22 -20 -72 -86 -72 -97 0 -4 4 -2 9 6 7 10 9 7 8 -11 -2 -18 -7 -24 -17 -21
-13 4 -13 4 0 -6 8 -6 21 -11 29 -11 8 0 23 -7 33 -17 17 -15 18 -15 18 0 0
10 8 17 19 17 10 0 35 16 55 35 21 19 42 33 47 30 13 -9 12 3 -15 128 -13 62
-28 132 -33 155 -4 24 -11 41 -14 38z"/>
<path d="M6839 2229 c-63 -7 -139 -37 -139 -55 0 -6 -10 -15 -22 -19 -18 -6
-7 -10 42 -16 161 -19 230 -22 230 -10 0 6 -4 11 -10 11 -5 0 -10 5 -10 11 0
5 5 7 10 4 6 -3 10 -1 10 4 0 6 7 11 15 11 22 0 19 13 -8 37 -31 26 -51 30
-118 22z"/>
<path d="M7307 2165 c-16 -11 -16 -13 -1 -19 25 -9 34 -7 34 8 0 22 -13 26
-33 11z"/>
<path d="M6830 1818 c-37 -10 -68 -33 -58 -44 3 -3 22 -7 42 -8 25 -2 39 2 46
13 8 14 9 14 10 0 0 -16 26 -19 48 -5 15 9 16 56 1 56 -6 0 -9 -7 -6 -15 4 -8
2 -17 -3 -20 -6 -4 -10 0 -10 8 0 12 -25 31 -33 26 -1 0 -18 -5 -37 -11z"/>
<path d="M6945 1810 c-3 -5 -1 -10 4 -10 6 0 11 5 11 10 0 6 -2 10 -4 10 -3 0
-8 -4 -11 -10z"/>
<path d="M6910 1639 c-7 -11 -10 -23 -7 -25 2 -2 9 7 15 21 14 30 7 33 -8 4z"/>
<path d="M6838 1573 c-10 -2 -18 -9 -18 -14 0 -6 10 -5 23 2 37 20 36 23 -5
12z"/>
<path d="M7504 1430 c2 -22 0 -40 -5 -40 -5 0 -9 -4 -9 -10 0 -5 9 -10 20 -10
15 0 20 7 20 24 0 14 -4 27 -10 31 -5 3 -7 12 -4 19 3 8 1 17 -5 20 -7 5 -9
-7 -7 -34z"/>
<path d="M7470 1378 c0 -36 12 -31 16 7 1 14 -2 25 -7 25 -5 0 -9 -14 -9 -32z"/>
<path d="M7734 5534 c-5 -19 -9 -22 -15 -12 -6 9 -9 6 -9 -10 0 -17 5 -23 17
-20 18 3 37 55 22 63 -4 3 -11 -6 -15 -21z"/>
<path d="M7678 5523 c7 -3 16 -2 19 1 4 3 -2 6 -13 5 -11 0 -14 -3 -6 -6z"/>
<path d="M7761 5446 c-8 -10 -9 -16 -1 -21 5 -3 13 1 16 10 9 22 -1 29 -15 11z"/>
<path d="M8863 5385 c-10 -11 -9 -13 7 -12 11 1 20 7 20 14 0 17 -12 16 -27
-2z"/>
<path d="M8808 4753 c7 -3 16 -2 19 1 4 3 -2 6 -13 5 -11 0 -14 -3 -6 -6z"/>
<path d="M8839 4681 c9 -6 10 -11 2 -15 -16 -10 -34 -46 -22 -46 5 0 13 9 16
20 6 20 35 28 35 10 0 -5 7 -7 15 -4 8 4 12 10 9 15 -3 5 -9 7 -14 4 -4 -3
-10 2 -14 10 -3 8 -13 15 -23 15 -14 0 -15 -2 -4 -9z"/>
<path d="M8805 4568 c20 -33 21 -33 29 -11 4 10 4 14 0 10 -4 -4 -16 1 -27 10
-20 18 -20 18 -2 -9z"/>
<path d="M8856 4555 c-4 -11 -2 -22 6 -27 11 -6 10 -8 0 -8 -7 0 -11 -4 -7 -9
3 -6 -2 -14 -11 -19 -14 -8 -14 -10 5 -15 12 -3 19 -1 16 3 -8 13 6 41 17 34
7 -4 7 0 0 12 -5 11 -11 26 -14 33 -3 12 -6 11 -12 -4z"/>
<path d="M9025 4541 c-4 -8 22 -23 57 -35 11 -3 15 -1 12 7 -6 16 -62 38 -69
28z"/>
<path d="M8890 4480 c-27 -54 -25 -64 5 -16 13 21 29 43 37 47 10 7 9 9 -4 9
-10 0 -26 -16 -38 -40z"/>
<path d="M8393 4440 c0 -41 2 -58 4 -37 2 20 2 54 0 75 -2 20 -4 3 -4 -38z"/>
<path d="M8940 4500 c-8 -5 -10 -10 -5 -10 6 0 4 -4 -3 -9 -10 -6 -9 -11 4
-22 16 -12 17 -12 11 5 -5 14 -3 17 8 13 8 -4 17 -2 20 3 4 6 -1 10 -10 10 -9
0 -13 5 -10 10 8 12 4 12 -15 0z"/>
<path d="M8990 4470 c0 -5 5 -10 10 -10 6 0 10 5 10 10 0 6 -4 10 -10 10 -5 0
-10 -4 -10 -10z"/>
<path d="M8968 4448 c5 -5 16 -8 23 -6 8 3 3 7 -10 11 -17 4 -21 3 -13 -5z"/>
<path d="M8901 4441 c-8 -5 -9 -11 -3 -15 5 -3 15 1 22 9 14 16 3 20 -19 6z"/>
<path d="M9010 4436 c0 -3 9 -10 20 -16 11 -6 20 -8 20 -6 0 3 -9 10 -20 16
-11 6 -20 8 -20 6z"/>
<path d="M8925 4419 c-4 -5 2 -6 11 -2 11 4 15 2 11 -4 -4 -6 -1 -13 6 -16 7
-3 13 3 13 12 0 18 -32 26 -41 10z"/>
<path d="M8841 4383 c-10 -26 -10 -27 4 -9 8 11 15 23 15 28 0 15 -7 8 -19
-19z"/>
<path d="M8885 4401 c-3 -5 -2 -12 3 -15 5 -3 9 1 9 9 0 17 -3 19 -12 6z"/>
<path d="M8760 4390 c0 -5 5 -10 10 -10 6 0 10 5 10 10 0 6 -4 10 -10 10 -5 0
-10 -4 -10 -10z"/>
<path d="M9115 4380 c3 -5 8 -10 11 -10 2 0 4 5 4 10 0 6 -5 10 -11 10 -5 0
-7 -4 -4 -10z"/>
<path d="M8745 4360 c3 -5 13 -10 21 -10 8 0 12 5 9 10 -3 6 -13 10 -21 10 -8
0 -12 -4 -9 -10z"/>
<path d="M8875 4360 c3 -5 8 -10 11 -10 2 0 4 5 4 10 0 6 -5 10 -11 10 -5 0
-7 -4 -4 -10z"/>
<path d="M8847 4348 c-3 -8 5 -14 20 -14 13 -1 23 -1 21 0 -2 1 -10 7 -19 14
-13 10 -18 10 -22 0z"/>
<path d="M8803 4335 c0 -8 4 -12 9 -9 4 3 8 9 8 15 0 5 -4 9 -8 9 -5 0 -9 -7
-9 -15z"/>
<path d="M8722 4299 c-14 -22 -7 -25 14 -5 8 8 11 17 6 20 -4 2 -13 -4 -20
-15z"/>
<path d="M8920 4306 c0 -2 7 -7 16 -10 8 -3 12 -2 9 4 -6 10 -25 14 -25 6z"/>
<path d="M8745 4280 c-3 -5 -1 -10 4 -10 6 0 11 5 11 10 0 6 -2 10 -4 10 -3 0
-8 -4 -11 -10z"/>
<path d="M9034 4255 c11 -8 22 -12 25 -9 6 6 -19 24 -34 24 -5 -1 -1 -7 9 -15z"/>
<path d="M8713 4240 c3 -10 -1 -24 -9 -31 -8 -6 -11 -15 -8 -20 10 -16 33 -9
45 14 l12 22 -23 -20 -23 -20 10 20 c6 11 8 27 5 35 -4 12 -2 13 9 3 7 -7 20
-13 29 -13 8 0 2 7 -14 15 -37 19 -39 19 -33 -5z"/>
<path d="M8666 4214 c-5 -14 -4 -15 9 -4 17 14 19 20 6 20 -5 0 -12 -7 -15
-16z"/>
<path d="M8301 4175 c-1 -11 -4 -31 -6 -45 l-6 -25 11 25 c6 13 9 33 7 45 -4
19 -4 19 -6 0z"/>
<path d="M8875 4079 c-4 -6 -5 -12 -2 -15 2 -3 7 2 10 11 7 17 1 20 -8 4z"/>
<path d="M8783 4063 c-3 -10 -8 -21 -9 -24 -2 -4 3 -9 11 -13 9 -3 19 3 26 17
11 20 11 21 -6 7 -16 -14 -17 -13 -11 8 9 26 -2 30 -11 5z"/>
<path d="M8858 4040 c-21 -13 -51 -70 -36 -70 6 0 8 -11 4 -26 -9 -35 9 -22
23 16 6 18 6 28 1 25 -13 -8 -12 6 0 25 8 12 10 12 10 1 0 -11 3 -11 15 -1 16
13 21 40 8 40 -5 0 -16 -5 -25 -10z"/>
<path d="M8764 3981 c4 -5 0 -11 -6 -14 -7 -2 -9 -8 -5 -13 4 -5 12 -2 17 6
13 20 12 30 -1 30 -5 0 -8 -4 -5 -9z"/>
<path d="M8170 2430 c-13 -8 -12 -10 3 -10 9 0 17 5 17 10 0 12 -1 12 -20 0z"/>
<path d="M9411 4751 c-19 -12 -23 -41 -6 -41 7 0 18 -7 25 -15 7 -8 19 -15 28
-15 11 0 9 5 -8 20 -13 11 -18 20 -12 20 7 0 12 9 12 20 0 21 -16 26 -39 11z"/>
<path d="M9405 4674 c19 -15 19 -15 -7 -10 -21 3 -28 1 -28 -11 0 -10 6 -13
16 -9 9 4 24 0 33 -8 24 -22 35 -20 41 6 5 17 0 26 -18 35 -13 7 -32 13 -41
13 -13 -1 -13 -3 4 -16z m40 -24 c3 -5 1 -10 -4 -10 -6 0 -11 5 -11 10 0 6 2
10 4 10 3 0 8 -4 11 -10z"/>
<path d="M9483 4621 c0 -22 4 -28 16 -24 12 4 12 1 -2 -10 -13 -11 -15 -17 -6
-22 26 -17 33 49 7 66 -6 4 -5 9 3 12 11 4 10 6 -2 6 -11 1 -16 -8 -16 -28z"/>
<path d="M9550 4273 c0 -68 11 -63 17 7 2 31 0 50 -6 50 -7 0 -11 -24 -11 -57z"/>
<path d="M9518 4270 c-3 -16 -1 -30 4 -30 4 0 8 14 8 30 0 17 -2 30 -4 30 -2
0 -6 -13 -8 -30z"/>
<path d="M9175 3970 c4 -6 11 -8 16 -5 14 9 11 15 -7 15 -8 0 -12 -5 -9 -10z"/>
<path d="M9068 3563 c6 -2 18 -2 25 0 6 3 1 5 -13 5 -14 0 -19 -2 -12 -5z"/>
<path d="M8968 3463 c6 -2 18 -2 25 0 6 3 1 5 -13 5 -14 0 -19 -2 -12 -5z"/>
<path d="M8935 3440 c3 -5 11 -10 16 -10 6 0 7 5 4 10 -3 6 -11 10 -16 10 -6
0 -7 -4 -4 -10z"/>
<path d="M8658 3253 c7 -3 16 -2 19 1 4 3 -2 6 -13 5 -11 0 -14 -3 -6 -6z"/>
<path d="M8943 3153 c0 -18 5 -29 9 -25 5 5 4 19 -1 33 -10 23 -10 22 -8 -8z"/>
<path d="M8861 2924 c0 -11 3 -14 6 -6 3 7 2 16 -1 19 -3 4 -6 -2 -5 -13z"/>
<path d="M8854 2891 c4 -5 0 -12 -6 -14 -7 -3 -3 -6 10 -6 13 -1 22 5 22 14 0
8 -7 15 -16 15 -8 0 -13 -4 -10 -9z"/>
<path d="M8780 3775 c14 -17 13 -18 -2 -12 -10 3 -18 2 -18 -3 0 -6 4 -10 10
-10 5 0 6 -8 3 -17 -7 -17 -6 -17 11 0 20 20 18 48 -4 55 -13 5 -13 3 0 -13z"/>
<path d="M8747 3700 c3 -12 0 -20 -6 -20 -7 0 -9 -5 -6 -11 5 -6 13 -3 22 10
14 20 11 41 -7 41 -4 0 -6 -9 -3 -20z"/>
<path d="M8685 3570 c3 -5 8 -10 11 -10 2 0 4 5 4 10 0 6 -5 10 -11 10 -5 0
-7 -4 -4 -10z"/>
<path d="M9495 2220 c-3 -5 -1 -10 4 -10 6 0 11 5 11 10 0 6 -2 10 -4 10 -3 0
-8 -4 -11 -10z"/>
<path d="M8991 2136 c-1 -12 -6 -16 -16 -12 -8 3 -15 1 -15 -4 0 -6 15 -10 33
-10 17 0 27 4 21 8 -6 4 -14 14 -17 22 -4 11 -6 11 -6 -4z"/>
<path d="M8715 2100 c-3 -5 -1 -10 4 -10 6 0 11 5 11 10 0 6 -2 10 -4 10 -3 0
-8 -4 -11 -10z"/>
<path d="M7580 7406 c0 -2 7 -6 15 -10 8 -3 15 -1 15 4 0 6 -7 10 -15 10 -8 0
-15 -2 -15 -4z"/>
<path d="M7380 7367 c0 -14 45 -16 57 -2 5 4 3 5 -4 1 -6 -3 -14 -2 -18 4 -9
14 -35 12 -35 -3z"/>
<path d="M470 3431 c-19 -9 -50 -32 -69 -50 -34 -31 -34 -32 -26 -94 5 -34 8
-85 7 -113 -2 -54 21 -184 38 -213 5 -9 10 -11 10 -3 0 17 20 15 20 -3 0 -8 7
-15 15 -15 18 0 19 12 3 28 -9 9 -9 12 0 12 7 0 12 -3 12 -7 0 -5 15 -9 33
-10 17 -2 59 -5 91 -7 62 -5 113 9 148 41 22 20 49 73 43 83 -2 4 5 36 17 70
16 50 18 67 9 81 -6 10 -11 29 -11 41 0 13 -8 45 -17 71 -15 42 -20 47 -41 42
-14 -3 -29 0 -38 10 -9 8 -26 15 -38 15 -13 0 -49 9 -81 20 -70 24 -80 24
-125 1z"/>
<path d="M364 2867 c-9 -5 -41 -11 -72 -14 -32 -3 -64 -9 -72 -13 -9 -5 -36
-11 -60 -15 -56 -8 -57 -9 -65 -43 -7 -34 -58 -92 -79 -92 -10 0 -16 -9 -16
-24 0 -35 11 -86 19 -86 4 0 23 14 42 31 29 26 39 29 69 24 19 -4 42 -13 50
-21 9 -7 42 -16 73 -20 36 -4 57 -11 57 -20 0 -7 11 -21 25 -32 17 -13 21 -22
13 -25 -7 -2 -10 -7 -7 -11 3 -3 44 0 90 7 74 12 84 16 81 33 -2 10 -10 24
-18 30 -24 19 7 25 159 31 76 3 134 9 130 13 -13 12 -103 21 -103 10 0 -6 -27
-9 -62 -8 l-63 1 50 7 c28 4 38 8 24 8 -22 2 -28 8 -33 37 -4 19 -14 38 -23
43 -13 8 -11 10 11 16 28 7 34 23 12 32 -8 3 -12 12 -9 20 3 9 -2 14 -14 14
-10 0 -25 9 -33 19 -10 15 -18 17 -31 10 -27 -14 -31 -11 -24 14 6 17 5 19 -5
10 -15 -14 -40 -6 -40 13 0 16 -49 16 -76 1z"/>
<path d="M631 2681 c-21 -13 24 -25 46 -12 10 6 13 11 6 11 -6 0 -17 2 -25 5
-7 3 -19 1 -27 -4z"/>
<path d="M0 2396 c0 -74 4 -106 13 -109 10 -4 10 -6 0 -6 -19 -1 -16 -19 5
-24 16 -4 16 -5 0 -6 -16 -1 -18 -15 -18 -149 l0 -148 147 -11 c194 -15 208
-9 183 77 -11 35 -10 36 52 93 35 31 55 55 46 51 -10 -3 -18 -10 -18 -16 0 -5
-4 -7 -9 -4 -5 3 -14 -1 -21 -9 -7 -8 -17 -15 -22 -15 -6 0 -5 7 2 15 16 20 6
19 -25 -1 -18 -12 -35 -14 -62 -9 -26 5 -33 9 -23 15 8 5 11 12 8 16 -4 3 4
18 18 33 22 24 23 27 7 39 -9 6 -23 12 -30 12 -7 0 -13 4 -13 8 0 4 -14 13
-30 19 -19 7 -28 16 -25 25 8 19 -49 89 -88 110 -18 9 -45 18 -62 18 l-30 2
32 14 c42 18 55 39 19 32 -20 -4 -26 -1 -26 13 0 11 -7 19 -15 19 -12 0 -15
-18 -15 -104z"/>
<path d="M0 1550 c0 -5 5 -10 11 -10 5 0 7 5 4 10 -3 6 -8 10 -11 10 -2 0 -4
-4 -4 -10z"/>
<path d="M0 1311 c0 -42 11 -51 34 -28 16 16 5 61 -17 65 -14 3 -17 -4 -17
-37z"/>
</g>
</svg>
