<?xml version="1.0" encoding="UTF-8"?>
<!DOCTYPE svg PUBLIC "-//W3C//DTD SVG 1.1//EN" "http://www.w3.org/Graphics/SVG/1.1/DTD/svg11.dtd">
<svg xmlns="http://www.w3.org/2000/svg" version="1.1" width="800px" height="450px" style="shape-rendering:geometricPrecision; text-rendering:geometricPrecision; image-rendering:optimizeQuality; fill-rule:evenodd; clip-rule:evenodd" xmlns:xlink="http://www.w3.org/1999/xlink">
<g><path style="opacity:1" fill="#c184fe" d="M -0.5,-0.5 C 266.167,-0.5 532.833,-0.5 799.5,-0.5C 799.5,149.5 799.5,299.5 799.5,449.5C 652.833,449.5 506.167,449.5 359.5,449.5C 394.301,428.929 429.301,408.596 464.5,388.5C 473.236,384.048 481.403,378.715 489,372.5C 490.275,370.283 491.275,367.949 492,365.5C 492.183,357.255 492.683,349.088 493.5,341C 530.057,320.563 566.057,299.397 601.5,277.5C 601.832,264.816 601.499,252.149 600.5,239.5C 598.222,237.777 595.722,236.444 593,235.5C 570.939,247.447 549.106,259.78 527.5,272.5C 527.167,271.833 526.833,271.167 526.5,270.5C 530.364,254.742 534.531,239.076 539,223.5C 540.873,221.291 543.04,219.458 545.5,218C 558.037,214.792 566.87,207.292 572,195.5C 572.579,190.473 572.913,185.473 573,180.5C 571.951,179.483 570.784,179.316 569.5,180C 567.333,181.5 565.167,183 563,184.5C 562.667,173.833 562.333,163.167 562,152.5C 558.757,148.76 558.757,145.093 562,141.5C 565.267,128.734 561.767,118.4 551.5,110.5C 551.5,110.167 551.5,109.833 551.5,109.5C 552.404,108.791 552.737,107.791 552.5,106.5C 554.328,99.9693 551.995,96.6359 545.5,96.5C 543.307,96.3262 541.473,96.9929 540,98.5C 539.503,101.146 539.336,103.813 539.5,106.5C 539.5,107.167 539.5,107.833 539.5,108.5C 539.5,109.167 539.5,109.833 539.5,110.5C 528.864,120.764 526.53,132.764 532.5,146.5C 532.196,148.441 531.363,150.107 530,151.5C 529.667,163.833 529.333,176.167 529,188.5C 524.913,191.916 521.58,195.916 519,200.5C 514.561,221.651 507.061,241.651 496.5,260.5C 495.818,259.757 495.151,259.091 494.5,258.5C 494.217,257.711 493.717,257.044 493,256.5C 492.667,182.5 492.333,108.5 492,34.5C 491.626,33.5838 491.126,32.7504 490.5,32C 486.5,29.6667 482.5,27.3333 478.5,25C 476.5,24.3333 474.5,24.3333 472.5,25C 418.33,56.586 363.997,87.9193 309.5,119C 305.509,121.989 302.676,125.822 301,130.5C 300.667,178.5 300.333,226.5 300,274.5C 293.809,281.385 289.309,289.218 286.5,298C 286.952,301.409 288.119,304.576 290,307.5C 293.333,311.5 296.667,315.5 300,319.5C 300.5,362.832 300.667,406.165 300.5,449.5C 200.167,449.5 99.8333,449.5 -0.5,449.5C -0.5,299.5 -0.5,149.5 -0.5,-0.5 Z"/></g>
<g><path style="opacity:1" fill="#161d31" d="M 561.5,19.5 C 564.794,19.259 567.794,20.0924 570.5,22C 573.198,27.6229 572.698,33.1229 569,38.5C 565.992,43.8498 562.492,48.8498 558.5,53.5C 553.024,52.398 548.024,50.2313 543.5,47C 538.967,40.1971 539.967,34.1971 546.5,29C 548.955,27.3695 551.455,27.2028 554,28.5C 556.053,25.0195 558.553,22.0195 561.5,19.5 Z"/></g>
<g><path style="opacity:1" fill="#f5f6f6" d="M 564.5,23.5 C 566.527,23.3379 568.527,23.5045 570.5,24C 571.081,24.8926 571.415,25.8926 571.5,27C 568.988,36.026 564.655,44.026 558.5,51C 549.054,51.2246 544.887,46.7246 546,37.5C 548.038,32.7676 551.538,30.6009 556.5,31C 557.126,31.7504 557.626,32.5838 558,33.5C 559.431,29.6262 561.597,26.2928 564.5,23.5 Z"/></g>
<g><path style="opacity:1" fill="#efe4fc" d="M 537.5,85.5 C 534.897,89.2585 531.564,90.2585 527.5,88.5C 528.429,83.3979 531.429,81.2313 536.5,82C 537.337,83.0113 537.67,84.1779 537.5,85.5 Z"/></g>
<g><path style="opacity:1" fill="#6635a2" d="M 527.5,88.5 C 531.564,90.2585 534.897,89.2585 537.5,85.5C 538.222,85.0825 538.722,84.4158 539,83.5C 542.605,88.4757 541.438,91.9757 535.5,94C 530.921,95.5772 527.921,94.0772 526.5,89.5C 526.624,88.8933 526.957,88.56 527.5,88.5 Z"/></g>
<g><path style="opacity:1" fill="#f0ebf7" d="M 552.5,106.5 C 548.167,110.5 543.833,110.5 539.5,106.5C 539.336,103.813 539.503,101.146 540,98.5C 541.473,96.9929 543.307,96.3262 545.5,96.5C 551.995,96.6359 554.328,99.9693 552.5,106.5 Z"/></g>
<g><path style="opacity:1" fill="#2a3042" d="M 542.5,99.5 C 545.32,99.2475 547.986,99.7475 550.5,101C 547.682,104.129 544.682,104.295 541.5,101.5C 541.863,100.817 542.196,100.15 542.5,99.5 Z"/></g>
<g><path style="opacity:1" fill="#151c2f" d="M 241.5,105.5 C 254.274,105.36 258.44,111.36 254,123.5C 250.171,131.163 245.837,138.496 241,145.5C 239.735,147.397 238.069,148.73 236,149.5C 226.902,148.052 219.569,143.719 214,136.5C 212.396,128.978 214.563,122.811 220.5,118C 223.751,115.548 227.251,115.048 231,116.5C 234.007,112.327 237.507,108.66 241.5,105.5 Z"/></g>
<g><path style="opacity:1" fill="#5f6372" d="M 539.5,106.5 C 543.833,110.5 548.167,110.5 552.5,106.5C 552.737,107.791 552.404,108.791 551.5,109.5C 547.316,111.044 543.316,110.71 539.5,108.5C 539.5,107.833 539.5,107.167 539.5,106.5 Z"/></g>
<g><path style="opacity:1" fill="#f9f9fa" d="M 245.5,110.5 C 247.857,110.337 250.19,110.503 252.5,111C 253.116,112.4 253.449,113.9 253.5,115.5C 250.538,127.758 244.705,138.424 236,147.5C 218.045,144.266 214.878,135.766 226.5,122C 230.969,119.377 234.469,120.21 237,124.5C 238.086,118.641 240.92,113.975 245.5,110.5 Z"/></g>
<g><path style="opacity:1" fill="#cfcbd8" d="M 539.5,108.5 C 543.316,110.71 547.316,111.044 551.5,109.5C 551.5,109.833 551.5,110.167 551.5,110.5C 547.539,113.048 543.539,113.048 539.5,110.5C 539.5,109.833 539.5,109.167 539.5,108.5 Z"/></g>
<g><path style="opacity:1" fill="#10182b" d="M 245.5,172.5 C 254.476,171.904 261.643,175.238 267,182.5C 267.667,197.167 267.667,211.833 267,226.5C 265.65,231.185 262.817,234.685 258.5,237C 247.337,243.081 236.337,249.414 225.5,256C 220.191,255.564 215.191,253.897 210.5,251C 208.383,249.269 206.883,247.102 206,244.5C 205.333,229.167 205.333,213.833 206,198.5C 207.122,196.376 208.622,194.543 210.5,193C 222.23,186.14 233.896,179.307 245.5,172.5 Z"/></g>
<g><path style="opacity:1" fill="#f8f8fa" d="M 259.5,181.5 C 261.766,181.141 263.599,181.808 265,183.5C 265.667,197.833 265.667,212.167 265,226.5C 263.939,229.562 262.106,232.062 259.5,234C 249.003,239.748 238.67,245.748 228.5,252C 226.305,253.373 223.971,253.706 221.5,253C 220.343,237.908 220.176,222.741 221,207.5C 221.667,206.167 222.333,204.833 223,203.5C 235.075,195.906 247.242,188.573 259.5,181.5 Z"/></g>
<g><path style="opacity:1" fill="#fbfbfb" d="M 488.5,293.5 C 478.564,285.407 468.731,277.073 459,268.5C 461.908,255.498 459.908,243.164 453,231.5C 448.36,224.693 443.527,218.027 438.5,211.5C 442.772,210.523 446.772,211.357 450.5,214C 462.762,225.759 474.429,237.926 485.5,250.5C 487.472,254.105 490.139,257.105 493.5,259.5C 494.657,261.138 495.824,262.804 497,264.5C 504.473,249.884 511.14,234.884 517,219.5C 518.332,213.508 519.666,207.508 521,201.5C 522.907,197.59 525.573,194.256 529,191.5C 530.068,196.235 532.901,199.402 537.5,201C 545.483,202.474 552.983,201.307 560,197.5C 561.759,194.036 562.926,190.37 563.5,186.5C 566.136,185.029 568.636,183.363 571,181.5C 572.274,192.25 568.774,201.083 560.5,208C 554.325,211.588 547.991,214.922 541.5,218C 540,219.5 538.5,221 537,222.5C 532.101,240.167 527.268,257.833 522.5,275.5C 513.002,280.748 503.669,286.248 494.5,292C 492.655,293.128 490.655,293.628 488.5,293.5 Z"/></g>
<g><path style="opacity:1" fill="#181e32" d="M 432.5,194.5 C 432.5,195.167 432.833,195.5 433.5,195.5C 432.722,196.156 432.056,196.989 431.5,198C 432.08,205.586 436.08,209.252 443.5,209C 446.785,209.759 449.785,211.092 452.5,213C 464.653,224.532 475.986,236.699 486.5,249.5C 485.833,249.5 485.5,249.833 485.5,250.5C 474.429,237.926 462.762,225.759 450.5,214C 446.772,211.357 442.772,210.523 438.5,211.5C 443.527,218.027 448.36,224.693 453,231.5C 459.908,243.164 461.908,255.498 459,268.5C 468.731,277.073 478.564,285.407 488.5,293.5C 487.833,293.5 487.5,293.833 487.5,294.5C 477.251,287.091 467.417,279.091 458,270.5C 457.868,293.53 458.701,316.53 460.5,339.5C 460.499,344.678 460.166,349.678 459.5,354.5C 459.5,353.833 459.167,353.5 458.5,353.5C 457.933,328.486 456.933,303.486 455.5,278.5C 455.583,271.348 456.583,264.348 458.5,257.5C 457.984,247.784 455.15,238.784 450,230.5C 444.667,223.167 439.333,215.833 434,208.5C 432.186,207.24 430.353,207.24 428.5,208.5C 434.946,218.059 439.779,228.393 443,239.5C 444.248,246.215 443.248,252.548 440,258.5C 425.707,265.263 413.041,262.929 402,251.5C 397.346,241.04 393.179,230.373 389.5,219.5C 389.5,218.5 389.5,217.5 389.5,216.5C 391.905,221.17 394.239,226.003 396.5,231C 407.919,235.083 417.752,241.583 426,250.5C 428.803,242.89 432.636,235.89 437.5,229.5C 434.466,222.595 430.8,216.095 426.5,210C 424.19,209.503 421.857,209.337 419.5,209.5C 419.5,205.833 419.5,202.167 419.5,198.5C 412.207,199.014 406.207,196.514 401.5,191C 405.087,192.089 408.754,193.422 412.5,195C 419.203,195.713 425.87,195.546 432.5,194.5 Z"/></g>
<g><path style="opacity:1" fill="#5d2c9b" d="M 254.5,197.5 C 255.573,211.398 250.906,223.564 240.5,234C 237.446,236.208 234.113,237.208 230.5,237C 233.5,235.333 235.833,233 237.5,230C 234.354,229.89 233.354,228.557 234.5,226C 233.584,225.626 232.75,225.126 232,224.5C 232.331,220.473 231.998,216.473 231,212.5C 234.909,213.695 239.075,213.695 243.5,212.5C 242.655,206.694 244.655,202.194 249.5,199C 250.784,198.316 251.951,198.483 253,199.5C 253.717,198.956 254.217,198.289 254.5,197.5 Z"/></g>
<g><path style="opacity:1" fill="#582597" d="M 458.5,353.5 C 430.241,373.243 404.241,370.576 380.5,345.5C 373.817,353.831 365.151,358.831 354.5,360.5C 354.261,354.435 354.761,348.435 356,342.5C 360.544,330.863 363.878,318.863 366,306.5C 366.5,295.505 366.667,284.505 366.5,273.5C 376.856,271.977 382.689,265.977 384,255.5C 384.667,249.167 384.667,242.833 384,236.5C 382.315,227.434 380.482,218.434 378.5,209.5C 380.527,209.338 382.527,209.505 384.5,210C 385.895,213.388 387.562,216.555 389.5,219.5C 393.179,230.373 397.346,241.04 402,251.5C 413.041,262.929 425.707,265.263 440,258.5C 443.248,252.548 444.248,246.215 443,239.5C 439.779,228.393 434.946,218.059 428.5,208.5C 430.353,207.24 432.186,207.24 434,208.5C 439.333,215.833 444.667,223.167 450,230.5C 455.15,238.784 457.984,247.784 458.5,257.5C 456.583,264.348 455.583,271.348 455.5,278.5C 456.933,303.486 457.933,328.486 458.5,353.5 Z"/></g>
<g><path style="opacity:1" fill="#131a2e" d="M 539.5,110.5 C 543.539,113.048 547.539,113.048 551.5,110.5C 561.767,118.4 565.267,128.734 562,141.5C 558.757,145.093 558.757,148.76 562,152.5C 562.333,163.167 562.667,173.833 563,184.5C 565.167,183 567.333,181.5 569.5,180C 570.784,179.316 571.951,179.483 573,180.5C 572.913,185.473 572.579,190.473 572,195.5C 566.87,207.292 558.037,214.792 545.5,218C 543.04,219.458 540.873,221.291 539,223.5C 534.531,239.076 530.364,254.742 526.5,270.5C 526.833,271.167 527.167,271.833 527.5,272.5C 549.106,259.78 570.939,247.447 593,235.5C 595.722,236.444 598.222,237.777 600.5,239.5C 601.499,252.149 601.832,264.816 601.5,277.5C 600.833,265.5 600.167,253.5 599.5,241.5C 557.804,265.01 516.47,289.01 475.5,313.5C 474.175,325.34 474.175,337.34 475.5,349.5C 476.107,349.376 476.44,349.043 476.5,348.5C 478.05,347.559 479.716,346.893 481.5,346.5C 482.167,346.5 482.5,346.833 482.5,347.5C 480.133,349.023 477.633,350.356 475,351.5C 471.694,350.348 468.694,348.681 466,346.5C 465.333,333.833 465.333,321.167 466,308.5C 472.5,304.667 479,300.833 485.5,297C 486.381,296.292 487.047,295.458 487.5,294.5C 487.5,293.833 487.833,293.5 488.5,293.5C 490.655,293.628 492.655,293.128 494.5,292C 503.669,286.248 513.002,280.748 522.5,275.5C 527.268,257.833 532.101,240.167 537,222.5C 538.5,221 540,219.5 541.5,218C 547.991,214.922 554.325,211.588 560.5,208C 568.774,201.083 572.274,192.25 571,181.5C 568.636,183.363 566.136,185.029 563.5,186.5C 562.926,190.37 561.759,194.036 560,197.5C 552.983,201.307 545.483,202.474 537.5,201C 532.901,199.402 530.068,196.235 529,191.5C 525.573,194.256 522.907,197.59 521,201.5C 519.666,207.508 518.332,213.508 517,219.5C 511.14,234.884 504.473,249.884 497,264.5C 495.824,262.804 494.657,261.138 493.5,259.5C 493.5,258.833 493.833,258.5 494.5,258.5C 495.151,259.091 495.818,259.757 496.5,260.5C 507.061,241.651 514.561,221.651 519,200.5C 521.58,195.916 524.913,191.916 529,188.5C 529.333,176.167 529.667,163.833 530,151.5C 531.363,150.107 532.196,148.441 532.5,146.5C 526.53,132.764 528.864,120.764 539.5,110.5 Z"/></g>
<g><path style="opacity:1" fill="#271a50" d="M 558.5,158.5 C 558.56,157.957 558.893,157.624 559.5,157.5C 560.825,169.66 560.825,181.66 559.5,193.5C 559.828,181.655 559.495,169.988 558.5,158.5 Z"/></g>
<g><path style="opacity:1" fill="#572596" d="M 558.5,158.5 C 559.495,169.988 559.828,181.655 559.5,193.5C 558.969,195.624 557.635,197.124 555.5,198C 549.903,199.456 544.237,199.789 538.5,199C 535.898,198.117 533.731,196.617 532,194.5C 531.333,182.167 531.333,169.833 532,157.5C 540.582,163.774 549.416,164.107 558.5,158.5 Z"/></g>
<g><path style="opacity:1" fill="#ebe3f7" d="M 534.5,146.5 C 541.794,149.121 549.127,149.121 556.5,146.5C 561.544,152.84 560.211,157.007 552.5,159C 546.747,159.851 541.08,159.517 535.5,158C 533.981,156.649 532.648,155.149 531.5,153.5C 533.327,151.513 534.327,149.179 534.5,146.5 Z"/></g>
<g><path style="opacity:1" fill="#ddd6ea" d="M 531.5,137.5 C 540.375,143.834 549.542,144.167 559,138.5C 559.865,140.888 559.032,142.388 556.5,143C 548.692,146.454 541.025,146.12 533.5,142C 531.963,140.89 531.297,139.39 531.5,137.5 Z"/></g>
<g><path style="opacity:1" fill="#dcd5e9" d="M 531.5,131.5 C 540.26,137.718 549.26,138.052 558.5,132.5C 559.754,134.259 559.421,135.759 557.5,137C 548.997,140.597 540.664,140.263 532.5,136C 531.62,134.644 531.286,133.144 531.5,131.5 Z"/></g>
<g><path style="opacity:1" fill="#ba80f6" d="M 396.5,234.5 C 397.251,233.427 398.251,233.26 399.5,234C 410.44,238.543 419.607,245.377 427,254.5C 429.446,246.942 432.946,239.942 437.5,233.5C 439.584,238.23 440.917,243.23 441.5,248.5C 441.509,255.32 438.176,259.153 431.5,260C 420.578,261.783 411.411,258.617 404,250.5C 401.496,245.101 398.996,239.768 396.5,234.5 Z"/></g>
<g><path style="opacity:1" fill="#f7f5fa" d="M 599.5,241.5 C 599.667,253.505 599.5,265.505 599,277.5C 598.5,278 598,278.5 597.5,279C 558.405,300.964 519.739,323.464 481.5,346.5C 479.716,346.893 478.05,347.559 476.5,348.5C 475.505,337.012 475.172,325.345 475.5,313.5C 516.47,289.01 557.804,265.01 599.5,241.5 Z"/></g>
<g><path style="opacity:1" fill="#8a47de" d="M 589.5,257.5 C 595.191,257.548 596.857,260.215 594.5,265.5C 591.827,266.501 589.493,268.001 587.5,270C 588.5,270.667 589.5,270.667 590.5,270C 594.339,266.809 595.172,267.642 593,272.5C 588.099,277.153 584.933,276.32 583.5,270C 583.812,264.88 585.812,260.714 589.5,257.5 Z"/></g>
<g><path style="opacity:1" fill="#10182b" d="M 246.5,261.5 C 254.805,261.735 261.638,265.069 267,271.5C 267.954,287.567 267.621,303.567 266,319.5C 264.5,322.333 262.333,324.5 259.5,326C 248.337,332.081 237.337,338.414 226.5,345C 217.366,345.841 210.533,342.341 206,334.5C 205.333,319.167 205.333,303.833 206,288.5C 206.792,286.413 207.959,284.579 209.5,283C 222.224,276.312 234.557,269.145 246.5,261.5 Z"/></g>
<g><path style="opacity:1" fill="#e7d9f9" d="M 589.5,261.5 C 591.843,262.967 591.51,264.301 588.5,265.5C 588.167,265.167 587.833,264.833 587.5,264.5C 588.193,263.482 588.859,262.482 589.5,261.5 Z"/></g>
<g><path style="opacity:1" fill="#8540dd" d="M 580.5,263.5 C 581.49,269.31 581.823,275.31 581.5,281.5C 580.958,286.376 578.291,289.376 573.5,290.5C 569.961,289.365 569.628,287.532 572.5,285C 576.401,286.102 578.234,284.602 578,280.5C 576.192,282.843 574.026,283.51 571.5,282.5C 568.385,273.067 571.385,266.734 580.5,263.5 Z"/></g>
<g><path style="opacity:1" fill="#cfb5f2" d="M 580.5,263.5 C 580.56,262.957 580.893,262.624 581.5,262.5C 582.817,268.988 582.817,275.322 581.5,281.5C 581.823,275.31 581.49,269.31 580.5,263.5 Z"/></g>
<g><path style="opacity:1" fill="#eee6f9" d="M 487.5,294.5 C 487.047,295.458 486.381,296.292 485.5,297C 479,300.833 472.5,304.667 466,308.5C 465.333,321.167 465.333,333.833 466,346.5C 468.694,348.681 471.694,350.348 475,351.5C 477.633,350.356 480.133,349.023 482.5,347.5C 484.816,346.194 487.15,344.861 489.5,343.5C 490.901,351.558 490.735,359.558 489,367.5C 487.6,370.902 485.433,373.736 482.5,376C 475.77,379.357 469.437,383.19 463.5,387.5C 462.417,387.539 461.417,387.873 460.5,388.5C 459.749,387.624 459.249,386.624 459,385.5C 458.727,376.983 458.227,368.483 457.5,360C 457.395,357.822 458.061,355.988 459.5,354.5C 460.166,349.678 460.499,344.678 460.5,339.5C 458.701,316.53 457.868,293.53 458,270.5C 467.417,279.091 477.251,287.091 487.5,294.5 Z"/></g>
<g><path style="opacity:1" fill="#f0e6fb" d="M 575.5,270.5 C 576.5,270.5 577.5,270.5 578.5,270.5C 579.093,273.596 578.093,275.929 575.5,277.5C 574.286,275.141 574.286,272.808 575.5,270.5 Z"/></g>
<g><path style="opacity:1" fill="#fafafb" d="M 260.5,270.5 C 262.39,270.297 263.89,270.963 265,272.5C 265.667,287.167 265.667,301.833 265,316.5C 264.333,317.833 263.667,319.167 263,320.5C 252.084,327.71 240.917,334.543 229.5,341C 227.086,342.885 224.419,343.552 221.5,343C 220.841,335.243 220.508,327.409 220.5,319.5C 220.362,311.069 220.862,302.735 222,294.5C 223.167,293.333 224.333,292.167 225.5,291C 237.558,284.645 249.225,277.811 260.5,270.5 Z"/></g>
<g><path style="opacity:1" fill="#8945de" d="M 564.5,271.5 C 566.124,271.36 567.29,272.027 568,273.5C 568.828,278.202 568.662,282.869 567.5,287.5C 566.833,287.833 566.167,288.167 565.5,288.5C 564.513,285.232 564.18,281.898 564.5,278.5C 563.5,278.5 562.5,278.5 561.5,278.5C 561.826,282.884 561.492,287.217 560.5,291.5C 559.522,291.977 558.689,292.643 558,293.5C 557.333,287.833 557.333,282.167 558,276.5C 560.901,275.763 563.068,274.097 564.5,271.5 Z"/></g>
<g><path style="opacity:1" fill="#be9aec" d="M 540.5,280.5 C 540.56,279.957 540.893,279.624 541.5,279.5C 542.82,287.323 542.82,294.99 541.5,302.5C 541.825,294.981 541.492,287.648 540.5,280.5 Z"/></g>
<g><path style="opacity:1" fill="#8037dc" d="M 540.5,280.5 C 541.492,287.648 541.825,294.981 541.5,302.5C 540.85,302.804 540.183,303.137 539.5,303.5C 538.335,296.189 538.169,288.856 539,281.5C 539.383,280.944 539.883,280.611 540.5,280.5 Z"/></g>
<g><path style="opacity:1" fill="#8844de" d="M 550.5,279.5 C 554.004,279.792 555.671,281.792 555.5,285.5C 555.167,286.5 554.833,287.5 554.5,288.5C 552.032,289.803 549.699,291.303 547.5,293C 548,293.5 548.5,294 549,294.5C 550.351,292.981 551.851,291.648 553.5,290.5C 554.362,295.007 552.362,297.673 547.5,298.5C 546.558,298.392 545.725,298.059 545,297.5C 543.015,290.128 544.848,284.128 550.5,279.5 Z"/></g>
<g><path style="opacity:1" fill="#8139dc" d="M 533.5,283.5 C 534.823,286.938 535.49,290.771 535.5,295C 535.167,298.833 534.833,302.667 534.5,306.5C 533.914,306.709 533.414,307.043 533,307.5C 532.2,299.421 532.367,291.421 533.5,283.5 Z"/></g>
<g><path style="opacity:1" fill="#1e2338" d="M 599.5,241.5 C 600.167,253.5 600.833,265.5 601.5,277.5C 566.057,299.397 530.057,320.563 493.5,341C 492.683,349.088 492.183,357.255 492,365.5C 491.275,367.949 490.275,370.283 489,372.5C 481.403,378.715 473.236,384.048 464.5,388.5C 464.5,387.833 464.167,387.5 463.5,387.5C 469.437,383.19 475.77,379.357 482.5,376C 485.433,373.736 487.6,370.902 489,367.5C 490.735,359.558 490.901,351.558 489.5,343.5C 487.15,344.861 484.816,346.194 482.5,347.5C 482.5,346.833 482.167,346.5 481.5,346.5C 519.739,323.464 558.405,300.964 597.5,279C 598,278.5 598.5,278 599,277.5C 599.5,265.505 599.667,253.505 599.5,241.5 Z"/></g>
<g><path style="opacity:1" fill="#e8daf9" d="M 548.5,285.5 C 552.339,286.05 552.339,287.05 548.5,288.5C 547.913,287.767 547.913,286.767 548.5,285.5 Z"/></g>
<g><path style="opacity:1" fill="#61309d" d="M 246.5,285.5 C 247.152,286.449 247.486,287.615 247.5,289C 246.208,291.661 244.875,294.328 243.5,297C 243.67,299.527 244.67,300.027 246.5,298.5C 248.3,302.092 247.466,304.759 244,306.5C 243.831,313.191 243.331,319.858 242.5,326.5C 241.167,327.167 239.833,327.833 238.5,328.5C 237.67,322.528 237.17,316.528 237,310.5C 236.586,310.957 236.086,311.291 235.5,311.5C 233.958,308.414 234.458,305.747 237,303.5C 236.277,295.272 239.444,289.272 246.5,285.5 Z"/></g>
<g><path style="opacity:1" fill="#8a46de" d="M 524.5,294.5 C 526.144,294.286 527.644,294.62 529,295.5C 529.667,300.167 529.667,304.833 529,309.5C 526.219,310.983 523.552,312.649 521,314.5C 520.228,314.355 519.561,314.022 519,313.5C 518.333,311.833 518.333,310.167 519,308.5C 520.323,305.104 522.489,302.437 525.5,300.5C 523.669,300.674 521.835,301.674 520,303.5C 519.833,303 519.667,302.5 519.5,302C 520.589,299.084 522.256,296.584 524.5,294.5 Z"/></g>
<g><path style="opacity:1" fill="#853fdd" d="M 507.5,298.5 C 509.164,299.949 509.998,301.949 510,304.5C 512.034,301.141 514.368,300.808 517,303.5C 517.667,307.833 517.667,312.167 517,316.5C 516,317.167 515,317.833 514,318.5C 513.825,314.789 513.325,311.122 512.5,307.5C 511.522,307.977 510.689,308.643 510,309.5C 509.827,313.541 509.327,317.541 508.5,321.5C 507.914,321.709 507.414,322.043 507,322.5C 506.2,314.421 506.367,306.421 507.5,298.5 Z"/></g>
<g><path style="opacity:1" fill="#f1eafb" d="M 524.5,305.5 C 525.688,307.496 525.021,308.329 522.5,308C 523.381,307.292 524.047,306.458 524.5,305.5 Z"/></g>
<g><path style="opacity:1" fill="#8946de" d="M 498.5,309.5 C 501.278,309.022 503.278,310.022 504.5,312.5C 504.023,313.478 503.357,314.311 502.5,315C 497.54,315.073 495.54,317.573 496.5,322.5C 498.867,321.836 500.867,320.503 502.5,318.5C 503.537,323.673 501.371,327.006 496,328.5C 494.739,328.241 493.739,327.574 493,326.5C 491.414,319.683 493.247,314.017 498.5,309.5 Z"/></g>
<g><path style="opacity:1" fill="#8843de" d="M 488.5,311.5 C 491.08,314.943 491.08,318.443 488.5,322C 488.611,323.722 489.111,323.888 490,322.5C 490.667,324.167 490.667,325.833 490,327.5C 488.209,328.912 487.042,330.745 486.5,333C 485.256,333.456 484.423,332.956 484,331.5C 483.804,333.904 482.638,335.571 480.5,336.5C 477.894,333.351 477.894,330.184 480.5,327C 479.612,325.78 478.945,324.447 478.5,323C 480.424,320.885 481.758,318.385 482.5,315.5C 484.102,314.45 484.935,315.117 485,317.5C 485.925,315.31 487.092,313.31 488.5,311.5 Z"/></g>
<g><path style="opacity:1" fill="#a0a4aa" d="M 475.5,313.5 C 475.172,325.345 475.505,337.012 476.5,348.5C 476.44,349.043 476.107,349.376 475.5,349.5C 474.175,337.34 474.175,325.34 475.5,313.5 Z"/></g>
<g><path style="opacity:1" fill="#dbc5f5" d="M 483.5,322.5 C 485.97,323.36 486.137,324.694 484,326.5C 483.51,325.207 483.343,323.873 483.5,322.5 Z"/></g>
<g><path style="opacity:1" fill="#0d1628" d="M 494.5,258.5 C 493.833,258.5 493.5,258.833 493.5,259.5C 490.139,257.105 487.472,254.105 485.5,250.5C 485.5,249.833 485.833,249.5 486.5,249.5C 487.5,249.833 488.167,250.5 488.5,251.5C 488.56,252.043 488.893,252.376 489.5,252.5C 490.832,179.668 490.832,107.001 489.5,34.5C 486.403,33.2124 483.403,33.7124 480.5,36C 428.5,66 376.5,96 324.5,126C 318.52,129.46 315.187,134.627 314.5,141.5C 313.833,160.83 313.5,180.33 313.5,200C 313.512,220.05 314.179,239.884 315.5,259.5C 306.041,269.748 297.541,280.748 290,292.5C 288,296.167 288,299.833 290,303.5C 292.422,307.344 295.089,311.01 298,314.5C 309.5,325.333 321,336.167 332.5,347C 338.156,352.149 344.49,356.316 351.5,359.5C 352.429,349.923 354.429,340.59 357.5,331.5C 353.408,331.524 349.408,331.191 345.5,330.5C 345.842,329.662 346.508,329.328 347.5,329.5C 351.546,329.19 355.379,328.19 359,326.5C 360.811,321.256 362.311,315.922 363.5,310.5C 355.291,303.087 350.458,293.754 349,282.5C 347.855,281.316 346.688,281.316 345.5,282.5C 344.833,282.5 344.167,282.5 343.5,282.5C 353.078,275.708 360.578,267.041 366,256.5C 366.499,261.489 366.666,266.489 366.5,271.5C 376.011,269.821 381.178,264.155 382,254.5C 382.705,240.266 381.205,226.266 377.5,212.5C 371.246,212.82 365.246,214.153 359.5,216.5C 358.833,216.5 358.167,216.5 357.5,216.5C 363.978,192.653 367.144,168.319 367,143.5C 368.52,137.132 372.02,132.132 377.5,128.5C 381.007,119.746 387.34,114.246 396.5,112C 407.842,110.026 419.175,110.026 430.5,112C 447.172,117.17 453.672,128.337 450,145.5C 446.069,155.063 444.402,165.063 445,175.5C 444.057,182.337 441.557,188.503 437.5,194C 436.255,194.791 434.922,195.291 433.5,195.5C 432.833,195.5 432.5,195.167 432.5,194.5C 436.717,192.143 439.55,188.477 441,183.5C 443.449,171.287 444.115,158.954 443,146.5C 441.394,136.279 435.561,132.445 425.5,135C 421.711,137.127 418.211,139.627 415,142.5C 405.914,139.376 399.914,142.376 397,151.5C 395.915,156.437 395.248,161.437 395,166.5C 392.562,171.985 389.062,172.818 384.5,169C 383.5,167.333 382.5,165.667 381.5,164C 375.143,162.519 372.643,165.019 374,171.5C 376.095,177.624 380.262,180.457 386.5,180C 387.965,178.226 389.298,176.392 390.5,174.5C 391.167,176.5 391.833,178.5 392.5,180.5C 392.75,190.503 393.084,200.503 393.5,210.5C 391.396,210.201 389.396,210.534 387.5,211.5C 388.456,213.075 389.123,214.742 389.5,216.5C 389.5,217.5 389.5,218.5 389.5,219.5C 387.562,216.555 385.895,213.388 384.5,210C 382.527,209.505 380.527,209.338 378.5,209.5C 380.482,218.434 382.315,227.434 384,236.5C 384.667,242.833 384.667,249.167 384,255.5C 382.689,265.977 376.856,271.977 366.5,273.5C 366.667,284.505 366.5,295.505 366,306.5C 363.878,318.863 360.544,330.863 356,342.5C 354.761,348.435 354.261,354.435 354.5,360.5C 365.151,358.831 373.817,353.831 380.5,345.5C 404.241,370.576 430.241,373.243 458.5,353.5C 459.167,353.5 459.5,353.833 459.5,354.5C 458.061,355.988 457.395,357.822 457.5,360C 458.227,368.483 458.727,376.983 459,385.5C 459.249,386.624 459.749,387.624 460.5,388.5C 461.417,387.873 462.417,387.539 463.5,387.5C 464.167,387.5 464.5,387.833 464.5,388.5C 429.301,408.596 394.301,428.929 359.5,449.5C 358.167,449.5 356.833,449.5 355.5,449.5C 355.5,446.167 355.5,442.833 355.5,439.5C 366.945,433.228 378.278,426.728 389.5,420C 394.696,416.107 397.696,410.94 398.5,404.5C 398.135,398.631 395.135,396.464 389.5,398C 378.446,404.191 367.446,410.357 356.5,416.5C 355.833,412.5 355.167,408.5 354.5,404.5C 354.833,390.484 354.499,376.484 353.5,362.5C 347.47,359.967 341.804,356.801 336.5,353C 329.333,346.5 322.167,340 315,333.5C 314.5,372.165 314.333,410.832 314.5,449.5C 309.833,449.5 305.167,449.5 300.5,449.5C 300.667,406.165 300.5,362.832 300,319.5C 296.667,315.5 293.333,311.5 290,307.5C 288.119,304.576 286.952,301.409 286.5,298C 289.309,289.218 293.809,281.385 300,274.5C 300.333,226.5 300.667,178.5 301,130.5C 302.676,125.822 305.509,121.989 309.5,119C 363.997,87.9193 418.33,56.586 472.5,25C 474.5,24.3333 476.5,24.3333 478.5,25C 482.5,27.3333 486.5,29.6667 490.5,32C 491.126,32.7504 491.626,33.5838 492,34.5C 492.333,108.5 492.667,182.5 493,256.5C 493.717,257.044 494.217,257.711 494.5,258.5 Z"/></g>
<g><path style="opacity:1" fill="#f3ebfe" d="M 354.5,404.5 C 354.5,408.833 354.5,413.167 354.5,417.5C 354.176,424.354 354.509,431.021 355.5,437.5C 355.5,438.167 355.5,438.833 355.5,439.5C 355.5,442.833 355.5,446.167 355.5,449.5C 341.833,449.5 328.167,449.5 314.5,449.5C 314.333,410.832 314.5,372.165 315,333.5C 322.167,340 329.333,346.5 336.5,353C 341.804,356.801 347.47,359.967 353.5,362.5C 354.499,376.484 354.833,390.484 354.5,404.5 Z"/></g>
<g><path style="opacity:1" fill="#202739" d="M 343.5,282.5 C 344.167,282.5 344.833,282.5 345.5,282.5C 337.902,288.644 329.569,293.81 320.5,298C 327.773,310.089 336.773,320.589 347.5,329.5C 346.508,329.328 345.842,329.662 345.5,330.5C 344.527,330.013 343.527,329.513 342.5,329C 332.358,318.53 323.358,307.197 315.5,295C 311.112,292.139 306.446,289.806 301.5,288C 308.831,287.919 315.164,290.419 320.5,295.5C 328.457,291.511 336.124,287.178 343.5,282.5 Z"/></g>
<g><path style="opacity:1" fill="#efe6fa" d="M 347.5,329.5 C 336.773,320.589 327.773,310.089 320.5,298C 329.569,293.81 337.902,288.644 345.5,282.5C 346.688,281.316 347.855,281.316 349,282.5C 350.458,293.754 355.291,303.087 363.5,310.5C 362.311,315.922 360.811,321.256 359,326.5C 355.379,328.19 351.546,329.19 347.5,329.5 Z"/></g>
<g><path style="opacity:1" fill="#1f2638" d="M 314.5,141.5 C 314.333,180.168 314.5,218.835 315,257.5C 327.137,244.362 339.637,231.529 352.5,219C 354.078,217.906 355.745,217.072 357.5,216.5C 358.167,216.5 358.833,216.5 359.5,216.5C 344.197,230.136 329.531,244.469 315.5,259.5C 314.179,239.884 313.512,220.05 313.5,200C 313.5,180.33 313.833,160.83 314.5,141.5 Z"/></g>
<g><path style="opacity:1" fill="#fbfbfb" d="M 343.5,282.5 C 336.124,287.178 328.457,291.511 320.5,295.5C 315.164,290.419 308.831,287.919 301.5,288C 306.446,289.806 311.112,292.139 315.5,295C 323.358,307.197 332.358,318.53 342.5,329C 343.527,329.513 344.527,330.013 345.5,330.5C 349.408,331.191 353.408,331.524 357.5,331.5C 354.429,340.59 352.429,349.923 351.5,359.5C 344.49,356.316 338.156,352.149 332.5,347C 321,336.167 309.5,325.333 298,314.5C 295.089,311.01 292.422,307.344 290,303.5C 288,299.833 288,296.167 290,292.5C 297.541,280.748 306.041,269.748 315.5,259.5C 329.531,244.469 344.197,230.136 359.5,216.5C 365.246,214.153 371.246,212.82 377.5,212.5C 381.205,226.266 382.705,240.266 382,254.5C 381.178,264.155 376.011,269.821 366.5,271.5C 366.666,266.489 366.499,261.489 366,256.5C 360.578,267.041 353.078,275.708 343.5,282.5 Z"/></g>
<g><path style="opacity:1" fill="#d6cfe3" d="M 489.5,34.5 C 490.832,107.001 490.832,179.668 489.5,252.5C 488.893,252.376 488.56,252.043 488.5,251.5C 489.499,179.335 489.833,107.002 489.5,34.5 Z"/></g>
<g><path style="opacity:1" fill="#f2e9fd" d="M 489.5,34.5 C 489.833,107.002 489.499,179.335 488.5,251.5C 488.167,250.5 487.5,249.833 486.5,249.5C 475.986,236.699 464.653,224.532 452.5,213C 449.785,211.092 446.785,209.759 443.5,209C 436.08,209.252 432.08,205.586 431.5,198C 432.056,196.989 432.722,196.156 433.5,195.5C 434.922,195.291 436.255,194.791 437.5,194C 441.557,188.503 444.057,182.337 445,175.5C 444.402,165.063 446.069,155.063 450,145.5C 453.672,128.337 447.172,117.17 430.5,112C 419.175,110.026 407.842,110.026 396.5,112C 387.34,114.246 381.007,119.746 377.5,128.5C 372.02,132.132 368.52,137.132 367,143.5C 367.144,168.319 363.978,192.653 357.5,216.5C 355.745,217.072 354.078,217.906 352.5,219C 339.637,231.529 327.137,244.362 315,257.5C 314.5,218.835 314.333,180.168 314.5,141.5C 315.187,134.627 318.52,129.46 324.5,126C 376.5,96 428.5,66 480.5,36C 483.403,33.7124 486.403,33.2124 489.5,34.5 Z"/></g>
<g><path style="opacity:1" fill="#fafafa" d="M 432.5,194.5 C 425.87,195.546 419.203,195.713 412.5,195C 408.754,193.422 405.087,192.089 401.5,191C 406.207,196.514 412.207,199.014 419.5,198.5C 419.5,202.167 419.5,205.833 419.5,209.5C 421.857,209.337 424.19,209.503 426.5,210C 430.8,216.095 434.466,222.595 437.5,229.5C 432.636,235.89 428.803,242.89 426,250.5C 417.752,241.583 407.919,235.083 396.5,231C 394.239,226.003 391.905,221.17 389.5,216.5C 389.123,214.742 388.456,213.075 387.5,211.5C 389.396,210.534 391.396,210.201 393.5,210.5C 393.084,200.503 392.75,190.503 392.5,180.5C 392.664,177.813 392.497,175.146 392,172.5C 391.283,173.044 390.783,173.711 390.5,174.5C 389.298,176.392 387.965,178.226 386.5,180C 380.262,180.457 376.095,177.624 374,171.5C 372.643,165.019 375.143,162.519 381.5,164C 382.5,165.667 383.5,167.333 384.5,169C 389.062,172.818 392.562,171.985 395,166.5C 395.248,161.437 395.915,156.437 397,151.5C 399.914,142.376 405.914,139.376 415,142.5C 418.211,139.627 421.711,137.127 425.5,135C 435.561,132.445 441.394,136.279 443,146.5C 444.115,158.954 443.449,171.287 441,183.5C 439.55,188.477 436.717,192.143 432.5,194.5 Z"/></g>
<g><path style="opacity:1" fill="#191f33" d="M 416.5,178.5 C 416.735,177.903 417.235,177.57 418,177.5C 420.545,178.738 423.045,180.071 425.5,181.5C 424.533,182.984 423.2,183.984 421.5,184.5C 421.313,181.31 419.646,179.31 416.5,178.5 Z"/></g>
<g><path style="opacity:1" fill="#bd87f4" d="M 416.5,178.5 C 419.646,179.31 421.313,181.31 421.5,184.5C 417.686,184.349 416.019,182.349 416.5,178.5 Z"/></g>
<g><path style="opacity:1" fill="#6d737d" d="M 392.5,180.5 C 391.833,178.5 391.167,176.5 390.5,174.5C 390.783,173.711 391.283,173.044 392,172.5C 392.497,175.146 392.664,177.813 392.5,180.5 Z"/></g>
<g><path style="opacity:1" fill="#212839" d="M 425.5,163.5 C 427.584,165.077 429.584,166.91 431.5,169C 430.5,169.5 429.5,170 428.5,170.5C 426.673,168.513 425.673,166.179 425.5,163.5 Z"/></g>
<g><path style="opacity:1" fill="#252c3c" d="M 410.5,158.5 C 412.75,158.181 414.75,158.681 416.5,160C 413.993,160.093 411.826,160.926 410,162.5C 409.421,161.072 409.588,159.738 410.5,158.5 Z"/></g>
<g><path style="opacity:1" fill="#222a3a" d="M 434.5,156.5 C 436.665,156.116 438.332,156.783 439.5,158.5C 437.902,158.61 436.235,158.943 434.5,159.5C 433.438,158.575 433.438,157.575 434.5,156.5 Z"/></g>
<g><path style="opacity:1" fill="#212839" d="M 408.5,150.5 C 410.429,150.231 412.095,150.731 413.5,152C 411.453,153.073 409.453,154.239 407.5,155.5C 406.348,153.603 406.681,151.936 408.5,150.5 Z"/></g>
<g><path style="opacity:1" fill="#293040" d="M 436.5,147.5 C 439.321,147.316 440.988,148.649 441.5,151.5C 439.129,152.337 436.796,152.003 434.5,150.5C 435.193,149.482 435.859,148.482 436.5,147.5 Z"/></g>
<g><path style="opacity:1" fill="#303548" d="M 348.5,126.5 C 349.725,127.152 350.392,128.319 350.5,130C 350.455,132.22 349.455,133.72 347.5,134.5C 346.246,132.741 346.579,131.241 348.5,130C 347.316,128.855 347.316,127.688 348.5,126.5 Z"/></g>
<g><path style="opacity:1" fill="#303648" d="M 343.5,127.5 C 344.748,128.334 345.415,129.667 345.5,131.5C 346.157,134.841 344.824,136.841 341.5,137.5C 339.741,133.454 340.408,130.121 343.5,127.5 Z"/></g>
<g><path style="opacity:1" fill="#ddd6e9" d="M 342.5,130.5 C 344.972,131.749 345.139,133.415 343,135.5C 342.506,133.866 342.34,132.199 342.5,130.5 Z"/></g>
<g><path style="opacity:1" fill="#182032" d="M 328.5,127.5 C 331.652,126.959 334.152,127.959 336,130.5C 337.383,139.901 333.883,146.735 325.5,151C 322.196,152.042 320.029,150.875 319,147.5C 318.135,138.896 321.302,132.23 328.5,127.5 Z"/></g>
<g><path style="opacity:1" fill="#e6def2" d="M 327.5,138.5 C 331.138,137.737 332.638,139.07 332,142.5C 330.189,146.655 327.023,148.655 322.5,148.5C 322.075,144.017 323.741,140.683 327.5,138.5 Z"/></g>
<g><path style="opacity:1" fill="#dfd7eb" d="M 327.5,138.5 C 326.5,138.5 325.5,138.5 324.5,138.5C 324.032,135.1 325.365,132.767 328.5,131.5C 329.846,134.1 329.512,136.433 327.5,138.5 Z"/></g>
<g><path style="opacity:1" fill="#404557" d="M 359.5,120.5 C 360.693,120.97 361.36,121.97 361.5,123.5C 360.899,127.378 360.065,127.378 359,123.5C 358.947,126.245 357.78,128.245 355.5,129.5C 354.749,128.624 354.249,127.624 354,126.5C 353.798,128.256 353.298,129.922 352.5,131.5C 350.7,127.908 351.534,125.241 355,123.5C 355.333,123.833 355.667,124.167 356,124.5C 356.69,122.65 357.856,121.316 359.5,120.5 Z"/></g>
<g><path style="opacity:1" fill="#252b3e" d="M 371.5,119.5 C 372.043,119.56 372.376,119.893 372.5,120.5C 371.04,122.422 369.373,123.089 367.5,122.5C 368.901,121.479 370.235,120.479 371.5,119.5 Z"/></g>
<g><path style="opacity:1" fill="#404457" d="M 364.5,117.5 C 365.693,117.97 366.36,118.97 366.5,120.5C 366.711,123.124 365.544,124.79 363,125.5C 362.109,122.502 362.609,119.836 364.5,117.5 Z"/></g>
<g><path style="opacity:1" fill="#3a3f52" d="M 374.5,109.5 C 375.391,110.261 376.058,111.261 376.5,112.5C 375.167,113.833 375.167,115.167 376.5,116.5C 376.167,117.5 375.5,118.167 374.5,118.5C 373.259,115.463 373.259,112.463 374.5,109.5 Z"/></g>
<g><path style="opacity:1" fill="#1d2537" d="M 481.5,46.5 C 482.124,46.9169 482.457,47.5836 482.5,48.5C 481.242,50.6869 480.242,53.0202 479.5,55.5C 480.065,57.4048 481.065,59.0715 482.5,60.5C 480.671,61.2824 479.171,60.6157 478,58.5C 476.401,61.3778 474.567,64.0445 472.5,66.5C 472.167,66.1667 471.833,65.8333 471.5,65.5C 472.833,62.8333 474.167,60.1667 475.5,57.5C 474.167,56.1667 472.833,54.8333 471.5,53.5C 473.164,52.7769 474.831,53.1103 476.5,54.5C 478.178,51.8053 479.844,49.1386 481.5,46.5 Z"/></g>
<g><path style="opacity:1" fill="#121a2d" d="M 544.5,337.5 C 543.124,343.503 541.29,349.503 539,355.5C 538.5,362.158 538.334,368.825 538.5,375.5C 537.833,375.167 537.167,374.833 536.5,374.5C 536.829,368.794 536.495,363.128 535.5,357.5C 533.999,358.752 532.332,359.752 530.5,360.5C 529.503,367.803 529.169,375.137 529.5,382.5C 528.279,381.972 527.113,381.305 526,380.5C 525.333,373.167 525.333,365.833 526,358.5C 528.14,356.513 530.64,355.18 533.5,354.5C 536.789,348.927 538.623,342.927 539,336.5C 541.118,335.261 542.951,335.595 544.5,337.5 Z"/></g>
<g><path style="opacity:1" fill="#faf9fb" d="M 544.5,337.5 C 546.71,337.894 548.043,339.227 548.5,341.5C 548.34,343.199 548.506,344.866 549,346.5C 551.824,345.182 554.324,343.515 556.5,341.5C 557.496,341.414 558.329,341.748 559,342.5C 558.496,344.862 558.663,347.195 559.5,349.5C 558.079,354.964 556.413,360.297 554.5,365.5C 549.415,369.256 544.082,372.589 538.5,375.5C 538.334,368.825 538.5,362.158 539,355.5C 541.29,349.503 543.124,343.503 544.5,337.5 Z"/></g>
<g><path style="opacity:1" fill="#151b2f" d="M 556.5,341.5 C 554.324,343.515 551.824,345.182 549,346.5C 548.506,344.866 548.34,343.199 548.5,341.5C 551.296,338.982 553.963,338.982 556.5,341.5 Z"/></g>
<g><path style="opacity:1" fill="#e0e2e4" d="M 379.5,348.5 C 384.509,349.88 385.176,352.047 381.5,355C 377.286,357.274 372.953,359.274 368.5,361C 366.167,361.667 363.833,361.667 361.5,361C 368.762,358.559 374.762,354.392 379.5,348.5 Z"/></g>
<g><path style="opacity:1" fill="#10182b" d="M 245.5,351.5 C 254.496,350.915 261.662,354.248 267,361.5C 267.667,376.167 267.667,390.833 267,405.5C 266.036,409.468 263.869,412.635 260.5,415C 248.996,421.92 237.329,428.586 225.5,435C 217.158,435.077 210.658,431.577 206,424.5C 205.333,408.833 205.333,393.167 206,377.5C 207.5,374.667 209.667,372.5 212.5,371C 223.893,364.978 234.893,358.478 245.5,351.5 Z"/></g>
<g><path style="opacity:1" fill="#e6e5e9" d="M 536.5,374.5 C 536.957,379.468 534.624,382.134 529.5,382.5C 529.169,375.137 529.503,367.803 530.5,360.5C 532.332,359.752 533.999,358.752 535.5,357.5C 536.495,363.128 536.829,368.794 536.5,374.5 Z"/></g>
<g><path style="opacity:1" fill="#f7f7f9" d="M 259.5,360.5 C 261.766,360.141 263.599,360.808 265,362.5C 265.952,377.901 265.619,393.235 264,408.5C 263.044,409.579 262.211,410.745 261.5,412C 249.5,419 237.5,426 225.5,433C 224.167,433.667 222.833,433.667 221.5,433C 220.343,417.241 220.176,401.408 221,385.5C 222.167,383 224,381.167 226.5,380C 237.893,373.978 248.893,367.478 259.5,360.5 Z"/></g>
<g><path style="opacity:1" fill="#ccced2" d="M 450.5,365.5 C 451.376,365.369 452.043,365.702 452.5,366.5C 450.006,373.49 447.506,380.49 445,387.5C 444.586,387.957 444.086,388.291 443.5,388.5C 442.511,384.893 442.177,381.226 442.5,377.5C 439.903,377.357 437.569,376.523 435.5,375C 440.564,371.809 445.564,368.642 450.5,365.5 Z"/></g>
<g><path style="opacity:1" fill="#1d2536" d="M 445.5,370.5 C 446.043,370.56 446.376,370.893 446.5,371.5C 444.877,375.058 442.21,376.224 438.5,375C 440.898,373.476 443.231,371.976 445.5,370.5 Z"/></g>
<g><path style="opacity:1" fill="#192132" d="M 447.5,371.5 C 448.097,371.735 448.43,372.235 448.5,373C 447.137,376.09 445.97,379.256 445,382.5C 444.333,380.167 444.333,377.833 445,375.5C 446.481,374.529 447.315,373.196 447.5,371.5 Z"/></g>
<g><path style="opacity:1" fill="#c7c9cd" d="M 423.5,383.5 C 425.89,383.685 426.89,385.018 426.5,387.5C 425.918,391.155 425.418,394.822 425,398.5C 421.919,402.386 417.919,405.052 413,406.5C 412.5,406.167 412,405.833 411.5,405.5C 415.434,403.617 419.268,401.617 423,399.5C 423.608,396.183 424.108,392.849 424.5,389.5C 424.351,387.68 423.684,386.18 422.5,385C 423.056,384.617 423.389,384.117 423.5,383.5 Z"/></g>
<g><path style="opacity:1" fill="#64349f" d="M 249.5,375.5 C 252.044,375.104 254.211,375.771 256,377.5C 256.667,385.5 256.667,393.5 256,401.5C 254.789,404.759 252.956,407.592 250.5,410C 245.288,413.105 239.955,415.939 234.5,418.5C 232.912,417.99 231.745,416.99 231,415.5C 230.333,407.5 230.333,399.5 231,391.5C 235.304,383.943 241.471,378.61 249.5,375.5 Z"/></g>
<g><path style="opacity:1" fill="#f4f0f8" d="M 249.5,378.5 C 251.39,378.297 252.89,378.963 254,380.5C 254.896,388.246 254.563,395.913 253,403.5C 252.044,404.579 251.211,405.745 250.5,407C 246.5,409.333 242.5,411.667 238.5,414C 236.741,414.798 235.074,414.631 233.5,413.5C 232.37,406.55 232.203,399.55 233,392.5C 234.061,389.438 235.894,386.938 238.5,385C 242.23,382.807 245.897,380.64 249.5,378.5 Z"/></g>
<g><path style="opacity:1" fill="#64359f" d="M 250.5,381.5 C 252.807,382.405 252.807,383.738 250.5,385.5C 249.374,384.192 249.374,382.858 250.5,381.5 Z"/></g>
<g><path style="opacity:1" fill="#6e41a5" d="M 244.5,386.5 C 249.776,387.293 251.609,390.293 250,395.5C 249.113,400.964 246.113,404.63 241,406.5C 236.874,404.819 235.54,401.819 237,397.5C 238.536,393.069 241.036,389.403 244.5,386.5 Z"/></g>
<g><path style="opacity:1" fill="#f8f6fb" d="M 243.5,390.5 C 244.822,390.33 245.989,390.663 247,391.5C 248.882,398.447 246.382,402.113 239.5,402.5C 238.741,397.687 240.075,393.687 243.5,390.5 Z"/></g>
<g><path style="opacity:1" fill="#d7d8db" d="M 418.5,380.5 C 419.496,380.414 420.329,380.748 421,381.5C 421.667,386.833 421.667,392.167 421,397.5C 417.531,400.985 413.364,402.985 408.5,403.5C 408.334,398.156 408.501,392.823 409,387.5C 412.145,385.024 415.312,382.69 418.5,380.5 Z"/></g>
<g><path style="opacity:1" fill="#1e2536" d="M 418.5,382.5 C 419.805,384.397 420.471,386.731 420.5,389.5C 420.333,391.833 420.167,394.167 420,396.5C 417,398.5 414,400.5 411,402.5C 410.333,397.5 410.333,392.5 411,387.5C 413.479,385.686 415.979,384.019 418.5,382.5 Z"/></g>
<g><path style="opacity:1" fill="#dadbde" d="M 414.5,387.5 C 415.5,387.5 416.5,387.5 417.5,387.5C 417.769,389.429 417.269,391.095 416,392.5C 415.667,391.5 415.333,390.5 415,389.5C 414.577,390.956 413.744,391.456 412.5,391C 413.305,389.887 413.972,388.721 414.5,387.5 Z"/></g>
<g><path style="opacity:1" fill="#c8cace" d="M 355.5,439.5 C 355.5,438.833 355.5,438.167 355.5,437.5C 354.509,431.021 354.176,424.354 354.5,417.5C 355.492,417.672 356.158,417.338 356.5,416.5C 367.446,410.357 378.446,404.191 389.5,398C 395.135,396.464 398.135,398.631 398.5,404.5C 397.696,410.94 394.696,416.107 389.5,420C 378.278,426.728 366.945,433.228 355.5,439.5 Z"/></g>
<g><path style="opacity:1" fill="#131b2c" d="M 355.5,437.5 C 355.338,435.473 355.505,433.473 356,431.5C 357.579,432.8 358.745,432.466 359.5,430.5C 360.791,430.737 361.791,430.404 362.5,429.5C 362.215,427.712 362.548,426.045 363.5,424.5C 364.729,428.286 365.396,428.286 365.5,424.5C 365.06,421.032 363.727,420.699 361.5,423.5C 360.833,423.833 360.167,424.167 359.5,424.5C 357.589,424.574 356.422,425.574 356,427.5C 354.996,424.007 355.496,420.841 357.5,418C 367.997,412.252 378.33,406.252 388.5,400C 396.075,398.079 398.575,400.912 396,408.5C 394.71,412.24 392.543,415.407 389.5,418C 378.278,424.728 366.945,431.228 355.5,437.5 Z"/></g>
<g><path style="opacity:1" fill="#d2d3d7" d="M 390.5,405.5 C 391.5,405.5 392.5,405.5 393.5,405.5C 393.756,407.912 392.756,409.579 390.5,410.5C 389.334,408.833 389.334,407.166 390.5,405.5 Z"/></g>
<g><path style="opacity:1" fill="#d5d7da" d="M 385.5,408.5 C 387.225,408.843 387.725,409.843 387,411.5C 386.29,412.973 385.124,413.64 383.5,413.5C 383.392,411.486 384.058,409.82 385.5,408.5 Z"/></g>
<g><path style="opacity:1" fill="#56596b" d="M 354.5,404.5 C 355.167,408.5 355.833,412.5 356.5,416.5C 356.158,417.338 355.492,417.672 354.5,417.5C 354.5,413.167 354.5,408.833 354.5,404.5 Z"/></g>
<g><path style="opacity:1" fill="#f7f8f8" d="M 379.5,412.5 C 382.041,413.623 382.041,414.956 379.5,416.5C 378.374,415.192 378.374,413.858 379.5,412.5 Z"/></g>
<g><path style="opacity:1" fill="#f4f5f5" d="M 367.5,417.5 C 368.478,417.811 369.145,418.478 369.5,419.5C 368.821,421.588 368.488,423.588 368.5,425.5C 366.26,423.039 365.927,420.373 367.5,417.5 Z"/></g>
<g><path style="opacity:1" fill="#eff0f1" d="M 362.5,429.5 C 361.539,427.735 361.205,425.735 361.5,423.5C 363.727,420.699 365.06,421.032 365.5,424.5C 365.396,428.286 364.729,428.286 363.5,424.5C 362.548,426.045 362.215,427.712 362.5,429.5 Z"/></g>
<g><path style="opacity:1" fill="#676d78" d="M 361.5,423.5 C 361.205,425.735 361.539,427.735 362.5,429.5C 361.791,430.404 360.791,430.737 359.5,430.5C 358.761,430.631 358.094,430.464 357.5,430C 360.233,428.772 360.9,426.939 359.5,424.5C 360.167,424.167 360.833,423.833 361.5,423.5 Z"/></g>
</svg>
