<?xml version="1.0" standalone="no"?>
<!DOCTYPE svg PUBLIC "-//W3C//DTD SVG 20010904//EN"
 "http://www.w3.org/TR/2001/REC-SVG-20010904/DTD/svg10.dtd">
<svg version="1.0" xmlns="http://www.w3.org/2000/svg"
 width="800.000000pt" height="450.000000pt" viewBox="0 0 800.000000 450.000000"
 preserveAspectRatio="xMidYMid meet">

<g transform="translate(0.000000,450.000000) scale(0.100000,-0.100000)"
fill="#000000" stroke="none">
<path d="M5579 4259 c-22 -24 -44 -39 -52 -36 -44 17 -117 -64 -117 -129 0
-29 6 -46 23 -61 28 -26 92 -58 132 -67 28 -6 34 -3 71 51 50 70 89 146 99
190 6 28 2 37 -23 63 -45 45 -85 41 -133 -11z m137 -25 c7 -28 -28 -109 -86
-193 -37 -55 -43 -61 -68 -55 -65 16 -102 47 -102 86 0 38 23 81 55 102 27 18
65 14 65 -7 1 -7 8 2 17 18 42 81 105 107 119 49z"/>
<path d="M4740 4253 c-28 -12 -1625 -935 -1656 -959 -18 -13 -41 -43 -53 -67
-21 -43 -21 -52 -21 -753 l0 -710 -44 -60 c-61 -82 -96 -153 -96 -192 0 -43
20 -79 85 -157 l55 -64 0 -646 0 -645 70 0 70 0 2 581 3 580 100 -91 c111
-102 192 -161 254 -186 l41 -16 0 -274 c0 -151 2 -274 5 -274 3 0 83 45 179
100 99 57 184 100 199 100 30 0 57 -33 57 -70 -1 -35 -33 -101 -64 -129 -14
-14 -102 -68 -194 -122 l-167 -96 -3 -52 c-3 -47 -1 -51 19 -51 27 0 1251 704
1289 742 50 49 60 85 60 215 l0 118 544 313 c300 172 547 320 550 329 9 22 7
366 -2 378 -11 16 -68 45 -87 45 -10 0 -162 -83 -338 -185 -176 -102 -321
-184 -322 -183 -7 7 114 470 128 491 9 14 58 46 109 72 106 53 181 120 202
180 8 22 18 73 21 113 6 65 5 72 -12 72 -10 0 -35 -11 -56 -25 l-37 -26 0 155
c0 122 -3 163 -16 189 -15 31 -15 36 0 65 11 21 16 57 16 109 0 91 -19 141
-72 190 -30 30 -37 32 -67 23 -20 -6 -42 -5 -58 1 -23 9 -31 5 -64 -27 -57
-56 -69 -89 -69 -192 0 -55 4 -93 11 -98 7 -4 8 -20 4 -43 -4 -20 -9 -119 -12
-220 l-4 -184 -43 -41 c-47 -46 -63 -84 -94 -216 -16 -70 -148 -396 -182 -450
-7 -12 -12 -12 -29 4 -21 19 -21 21 -21 1131 0 1047 -1 1113 -17 1127 -19 16
-147 89 -154 87 -2 0 -11 -3 -19 -6z m168 -1190 c1 -601 -1 -1093 -5 -1092 -5
0 -57 57 -118 125 -151 172 -274 289 -316 302 -19 6 -51 13 -72 17 -40 6 -61
30 -72 81 -5 28 -3 32 25 44 60 25 107 147 111 288 2 48 11 104 26 149 27 85
31 195 7 251 -8 20 -29 52 -47 70 -70 73 -158 96 -340 90 -120 -4 -129 -6
-194 -39 -53 -27 -75 -45 -101 -84 -18 -28 -52 -71 -76 -96 -49 -54 -66 -105
-66 -202 0 -124 -21 -324 -50 -472 -25 -128 -33 -152 -52 -164 -13 -8 -112
-103 -220 -212 l-198 -198 0 595 c0 576 1 596 20 634 11 22 33 49 48 60 15 11
389 229 832 485 566 327 812 464 830 463 l25 -3 3 -1092z m451 93 c51 -27 120
-30 184 -9 44 16 57 17 57 7 0 -31 -52 -49 -136 -49 -68 0 -87 4 -110 21 -27
19 -43 44 -29 44 3 0 19 -7 34 -14z m-969 -34 c37 -37 50 -104 50 -250 0 -179
-40 -295 -110 -319 -61 -21 -171 -16 -246 11 l-67 25 25 -26 c15 -15 52 -32
89 -43 l64 -17 3 -51 c3 -52 3 -52 37 -52 39 0 54 -18 114 -138 l31 -62 -36
-56 c-20 -31 -45 -78 -56 -105 l-20 -49 -65 59 c-39 36 -94 73 -141 96 -42 20
-83 40 -91 43 -7 4 -31 49 -52 100 l-38 93 31 6 30 6 -7 161 c-3 89 -9 171
-12 184 -5 22 -6 22 -30 -12 -29 -44 -59 -47 -102 -11 -56 47 -62 134 -11 148
21 5 60 -22 60 -43 0 -5 14 -17 31 -25 27 -15 33 -15 54 -1 24 15 28 30 40
121 9 67 37 130 69 150 19 13 40 16 76 13 45 -5 54 -2 101 33 43 33 59 39 101
39 41 0 54 -5 78 -28z m969 -26 c51 -27 120 -30 184 -9 44 15 57 17 57 7 0
-47 -174 -67 -239 -29 -19 11 -36 26 -39 33 -5 16 3 15 37 -2z m106 -81 c39 0
79 3 91 8 18 6 23 2 34 -34 13 -39 13 -43 -8 -59 -25 -20 -108 -41 -138 -35
-10 2 -31 6 -45 9 -14 3 -37 15 -52 26 -25 20 -25 20 -9 60 14 33 20 38 37 32
11 -4 52 -7 90 -7z m244 -414 c-14 -118 -58 -170 -207 -245 -48 -24 -97 -55
-110 -69 -18 -19 -38 -85 -88 -283 -36 -142 -66 -259 -67 -260 -1 -1 -76 -45
-166 -97 l-165 -96 -50 40 c-163 129 -266 224 -261 238 16 39 16 121 1 185
-22 93 -63 174 -141 279 -36 48 -65 89 -65 92 0 3 9 5 20 5 40 0 96 -32 154
-88 53 -52 273 -291 373 -406 l42 -48 32 69 c104 226 162 374 185 475 22 93
32 116 61 149 l35 39 17 -32 c24 -46 73 -68 154 -68 107 0 167 42 167 115 0
17 13 33 43 53 23 17 43 29 44 28 1 -1 -2 -34 -8 -75z m-1922 -287 c45 -176
53 -364 18 -437 -18 -39 -73 -83 -110 -89 -18 -3 -20 3 -23 72 l-3 74 -40 -63
c-66 -105 -186 -207 -343 -292 l-75 -40 -41 30 c-23 16 -56 33 -73 36 -18 4
-41 9 -52 11 -11 3 11 -12 50 -33 58 -33 77 -51 116 -107 72 -106 197 -253
234 -276 28 -17 43 -20 86 -14 49 7 52 6 45 -12 -17 -44 -46 -182 -46 -221 0
-23 -4 -44 -9 -47 -20 -13 -145 82 -325 246 -191 174 -290 286 -302 341 -7 35
35 125 99 209 124 164 541 589 614 627 38 19 134 41 158 37 5 -1 15 -25 22
-52z m623 -306 c0 -90 -70 -128 -195 -107 -75 13 -138 49 -170 97 -31 46 -68
152 -53 152 30 0 161 -82 217 -137 36 -34 66 -62 67 -60 1 1 14 29 29 62 14
33 38 80 52 105 l27 45 12 -55 c7 -30 13 -76 14 -102z m1581 -291 c-5 -5 -285
-168 -622 -363 l-614 -354 -3 177 c-1 97 1 180 5 184 5 4 285 168 623 363
l615 355 3 -176 c1 -98 -2 -181 -7 -186z m-1245 -60 c71 -60 130 -111 131
-115 2 -4 -40 -31 -93 -61 -52 -30 -102 -60 -110 -68 -11 -11 -14 -51 -14
-189 0 -97 4 -183 9 -193 6 -10 28 -25 49 -35 l40 -18 70 41 c39 23 73 41 76
41 3 0 6 -46 6 -102 0 -112 -16 -164 -61 -204 -30 -27 -239 -147 -245 -141 -3
2 -9 73 -15 157 -10 144 -10 153 9 173 19 22 19 26 -3 427 -12 223 -20 409
-17 413 5 10 11 6 168 -126z m-1247 -27 c15 -70 54 -143 102 -191 44 -44 45
-49 12 -154 -20 -63 -22 -65 -78 -76 -35 -6 -54 -5 -74 6 -31 15 -144 146
-210 239 l-41 59 72 40 c40 21 100 58 133 82 33 24 63 44 67 44 3 1 11 -22 17
-49z m337 -641 c21 -24 22 -23 -68 -69 -31 -16 -76 -32 -100 -36 l-43 -6 55
32 c30 17 71 46 90 65 19 19 37 35 41 35 3 0 14 -9 25 -21z m653 -266 c-17
-54 -34 -102 -37 -107 -9 -16 -22 19 -22 61 0 39 -3 43 -30 50 -17 4 -30 13
-29 18 2 14 143 95 147 84 2 -5 -11 -53 -29 -106z m-271 -117 c3 -88 -1 -97
-62 -128 -57 -29 -29 -34 30 -6 l49 23 9 68 c7 53 6 71 -3 77 -9 5 -10 10 -2
14 24 15 31 -6 25 -72 -9 -87 -16 -99 -76 -127 -47 -22 -53 -22 -75 -8 -22 15
-24 21 -21 97 l3 81 50 32 c27 18 54 32 60 30 5 -2 11 -39 13 -81z"/>
<path d="M4801 3995 c-14 -22 -26 -41 -27 -43 -1 -2 -12 2 -24 8 -31 16 -39 2
-11 -19 l23 -18 -21 -41 c-24 -47 -25 -52 -11 -52 5 0 19 18 30 41 21 40 22
40 41 23 27 -25 37 -9 11 19 l-21 23 20 33 c11 18 19 41 17 50 -2 11 -11 3
-27 -24z"/>
<path d="M3745 3388 c-8 -21 -2 -68 9 -71 11 -3 16 57 5 74 -6 11 -9 10 -14
-3z"/>
<path d="M3643 3307 c-5 -6 -10 -25 -12 -40 -2 -26 -1 -28 18 -17 12 6 21 21
21 35 0 28 -14 40 -27 22z"/>
<path d="M3703 3287 c-22 -9 -32 -27 -15 -27 11 1 46 29 41 34 -2 2 -14 -1
-26 -7z"/>
<path d="M3593 3283 c-8 -3 -13 -20 -12 -41 l1 -37 8 30 c4 17 8 22 9 13 2
-28 21 -21 21 6 0 27 -8 36 -27 29z"/>
<path d="M3538 3249 c-11 -6 -18 -22 -18 -40 0 -34 19 -30 21 4 1 17 2 18 6 5
8 -30 20 -20 15 12 -2 17 -5 30 -6 30 0 0 -9 -5 -18 -11z"/>
<path d="M3487 3223 c-12 -11 -8 -24 6 -17 6 4 4 -2 -5 -13 -19 -20 -24 -43
-10 -43 17 0 32 25 32 52 0 27 -9 35 -23 21z"/>
<path d="M3270 3198 c-68 -46 -103 -164 -60 -203 25 -23 59 -14 98 24 59 60
81 151 44 184 -25 23 -43 21 -82 -5z m27 -62 c-8 -12 -21 -21 -28 -21 -20 0
-22 30 -3 49 13 13 19 14 30 5 13 -10 13 -15 1 -33z m31 -49 c4 -22 -50 -77
-77 -77 -30 0 -28 44 4 76 29 28 68 29 73 1z"/>
<path d="M3433 3213 c-14 -5 -18 -93 -5 -93 18 0 32 26 32 62 0 38 -3 41 -27
31z m8 -66 c-8 -8 -11 -4 -11 14 0 33 14 47 18 19 2 -12 -1 -27 -7 -33z"/>
<path d="M4361 3006 c-13 -16 -9 -20 32 -30 30 -7 35 4 11 28 -19 20 -28 20
-43 2z"/>
<path d="M4080 2975 c-7 -8 -10 -18 -6 -22 9 -9 59 9 60 22 1 17 -40 17 -54 0z"/>
<path d="M4353 2923 c-23 -9 -14 -20 17 -20 18 0 29 5 27 11 -4 13 -26 17 -44
9z"/>
<path d="M4106 2894 c-9 -24 -7 -29 6 -16 7 7 23 12 36 12 13 0 20 4 17 10
-10 16 -52 12 -59 -6z"/>
<path d="M4266 2830 c9 -44 10 -45 34 -34 20 9 20 10 -10 39 l-30 29 6 -34z"/>
<path d="M4170 2710 c0 -5 7 -10 15 -10 9 0 21 -11 27 -25 13 -29 21 -31 38
-10 15 18 15 17 -27 39 -37 18 -53 20 -53 6z"/>
<path d="M5876 1890 c-21 -26 -26 -42 -26 -86 0 -79 34 -87 84 -21 26 35 13
47 -19 17 -14 -13 -28 -20 -32 -16 -5 5 2 15 15 25 62 45 62 45 54 76 -12 42
-43 44 -76 5z m44 -30 c0 -10 -31 -23 -38 -15 -8 7 19 35 29 29 5 -3 9 -9 9
-14z"/>
<path d="M5775 1841 c-52 -30 -81 -113 -55 -162 13 -24 25 -24 50 1 19 19 20
19 20 1 0 -20 -27 -48 -37 -38 -13 13 -41 -13 -36 -33 10 -37 63 -19 88 30 16
30 22 221 8 219 -5 0 -21 -8 -38 -18z m15 -75 c0 -22 -17 -46 -32 -46 -12 0
-9 55 4 68 15 15 28 6 28 -22z"/>
<path d="M5635 1760 c-4 -6 -18 -15 -31 -20 -23 -9 -24 -14 -24 -91 0 -60 3
-80 13 -77 7 3 14 30 18 65 3 32 9 65 13 71 16 26 26 9 26 -43 0 -55 4 -62 28
-46 9 5 12 28 10 77 -3 62 -5 69 -25 72 -11 2 -24 -2 -28 -8z"/>
<path d="M5397 1683 c-4 -3 -7 -55 -7 -115 0 -83 3 -109 13 -106 8 3 13 38 15
116 2 102 -2 125 -21 105z"/>
<path d="M5480 1665 c-31 -33 -42 -141 -16 -151 24 -9 59 9 75 40 19 35 6 45
-23 17 -15 -14 -26 -18 -30 -12 -4 6 11 22 34 36 43 27 45 31 30 69 -12 33
-40 33 -70 1z m40 -30 c0 -8 -2 -15 -4 -15 -2 0 -12 -3 -21 -7 -15 -5 -16 -3
-6 15 13 25 31 29 31 7z"/>
<path d="M5342 1651 c-9 -6 -12 -37 -10 -119 2 -88 6 -110 16 -103 9 6 12 37
10 119 -2 88 -6 110 -16 103z"/>
<path d="M5247 1539 c-20 -12 -52 -69 -38 -69 5 0 17 7 26 16 9 9 19 14 22 10
4 -3 -8 -21 -25 -39 -51 -52 -40 -136 11 -90 12 11 30 23 40 26 15 6 17 17 15
79 -3 77 -13 90 -51 67z m-1 -127 c-14 -14 -16 -14 -16 -1 0 20 23 44 29 28 2
-6 -4 -18 -13 -27z"/>
<path d="M5083 1503 c-10 -3 -13 -36 -13 -119 0 -97 2 -113 15 -108 11 5 15
21 15 59 0 62 7 85 26 85 9 0 14 -17 16 -57 3 -54 4 -56 21 -39 26 26 19 144
-10 153 -7 3 -21 -5 -32 -16 l-20 -20 -3 33 c-2 21 -8 31 -15 29z"/>
<path d="M4984 1385 c-48 -33 -68 -156 -29 -171 31 -12 90 47 83 83 -3 16 -7
14 -27 -9 -28 -32 -41 -28 -41 12 0 27 12 43 35 46 6 0 16 2 23 2 18 3 11 46
-8 50 -8 1 -25 -4 -36 -13z"/>
<path d="M4883 1373 c-7 -3 -13 -13 -13 -23 0 -10 -4 -22 -10 -25 -5 -3 -10 1
-10 10 0 23 -16 10 -34 -27 -10 -20 -14 -43 -10 -64 3 -18 1 -34 -5 -38 -14
-9 -14 -46 0 -46 6 0 9 -7 5 -15 -11 -30 14 -14 28 18 9 21 15 26 15 14 1 -24
25 -16 30 9 2 10 9 23 17 27 16 9 19 47 4 47 -5 0 -10 9 -10 20 0 11 5 20 10
20 11 0 12 36 2 61 -4 9 -13 14 -19 12z m-23 -117 c0 -8 -4 -18 -10 -21 -5 -3
-10 3 -10 14 0 12 5 21 10 21 6 0 10 -6 10 -14z"/>
<path d="M4438 775 c-21 -11 -38 -23 -38 -27 0 -16 35 -7 57 14 13 12 23 17
23 11 0 -6 -7 -16 -15 -23 -9 -7 -15 -28 -14 -49 l0 -36 20 50 c13 30 17 55
12 65 -7 14 -12 14 -45 -5z"/>
<path d="M4153 644 l-43 -25 0 -75 c0 -74 0 -75 23 -63 72 38 77 46 77 120 0
38 -3 69 -7 69 -5 0 -27 -12 -50 -26z m22 -46 c-3 -13 -11 -36 -16 -53 -7 -26
-8 -24 -4 15 2 25 2 39 -1 33 -3 -7 -10 -13 -15 -13 -6 0 -5 8 1 20 15 29 44
27 35 -2z"/>
<path d="M5348 3683 c7 -3 16 -2 19 1 4 3 -2 6 -13 5 -11 0 -14 -3 -6 -6z"/>
<path d="M5384 3667 c4 -11 -4 -28 -20 -44 -20 -19 -33 -24 -60 -21 -39 5 -39
5 -18 -27 21 -32 39 -37 79 -21 50 21 60 48 35 93 -12 21 -19 30 -16 20z"/>
<path d="M5433 3493 c-21 -8 -15 -20 12 -27 32 -8 75 12 54 25 -15 9 -46 11
-66 2z"/>
<path d="M2387 3417 c-15 -12 -36 -35 -47 -52 -17 -25 -24 -29 -59 -26 -33 2
-46 -3 -80 -34 -68 -61 -86 -140 -46 -202 18 -28 106 -77 173 -97 l52 -15 55
77 c104 147 149 257 127 308 -28 59 -124 82 -175 41z m134 -27 c45 -25 14
-131 -83 -275 -60 -91 -64 -95 -93 -89 -85 17 -145 68 -145 124 0 31 36 95 66
119 33 26 79 27 93 4 5 -10 11 -16 13 -13 2 3 15 27 29 54 16 31 38 56 59 68
41 21 36 21 61 8z"/>
<path d="M5414 3406 c25 -20 63 -20 96 0 15 9 17 12 5 8 -26 -10 -74 -10 -100
0 -20 8 -20 7 -1 -8z"/>
<path d="M2282 2667 c-105 -61 -200 -123 -210 -137 -14 -21 -18 -54 -20 -215
-5 -246 -1 -270 50 -318 22 -21 53 -40 69 -44 16 -3 32 -10 35 -14 13 -22 63
-1 243 104 159 92 197 118 213 147 16 31 18 60 18 261 l0 227 -42 34 c-56 46
-100 68 -135 68 -17 0 -100 -42 -221 -113z m373 -10 c4 -13 5 -116 3 -229 -3
-191 -5 -209 -24 -235 -18 -25 -288 -191 -369 -228 -53 -24 -55 -15 -55 229 0
193 2 225 18 249 20 33 364 236 399 237 15 0 25 -7 28 -23z"/>
<path d="M2545 2510 c-4 -6 -13 -9 -21 -6 -26 10 -75 -45 -81 -91 -5 -39 -8
-43 -40 -49 -19 -4 -45 -2 -59 4 -24 11 -24 11 -22 -49 1 -34 7 -64 14 -70 7
-6 10 -17 7 -25 -3 -8 4 -17 18 -22 l23 -9 -31 -32 c-27 -27 -29 -31 -12 -31
82 0 174 127 203 278 7 38 16 74 19 79 3 5 2 15 -2 22 -6 10 -10 10 -16 1z"/>
<path d="M2280 1771 c-101 -59 -193 -120 -205 -135 -19 -26 -20 -42 -20 -256
0 -214 1 -230 20 -257 25 -34 142 -95 171 -88 25 5 361 199 388 223 43 39 46
61 46 295 l0 223 -32 30 c-52 49 -102 74 -144 74 -31 -1 -77 -23 -224 -109z
m370 0 c6 -12 10 -102 10 -223 0 -173 -3 -208 -18 -238 -14 -29 -48 -53 -202
-142 -102 -60 -194 -107 -205 -106 -19 3 -20 12 -23 235 -2 228 -2 232 20 258
23 26 373 234 395 235 7 0 17 -9 23 -19z"/>
<path d="M2443 1616 c-40 -26 -63 -71 -63 -124 0 -26 -5 -42 -15 -46 -9 -3
-15 -18 -15 -35 0 -23 4 -29 15 -25 13 5 15 -8 15 -85 0 -50 2 -91 5 -91 3 0
17 7 30 16 24 15 25 21 25 110 0 83 2 95 20 106 12 8 20 24 20 40 0 30 -9 35
-28 16 -9 -9 -12 -5 -12 19 0 21 7 37 21 46 14 11 19 23 17 45 l-3 29 -32 -21z"/>
<path d="M5397 1138 c-12 -6 -17 -22 -17 -51 -1 -43 -41 -152 -52 -141 -4 3
-20 -2 -37 -12 l-31 -18 0 -111 c0 -105 7 -135 32 -135 4 0 8 47 8 105 l0 105
33 20 32 20 3 -90 c4 -120 22 -116 22 5 0 71 5 107 20 145 11 28 20 67 20 87
0 21 6 41 16 47 14 11 13 13 -8 23 -16 7 -30 8 -41 1z"/>
<path d="M5502 1088 c-6 -6 -12 -22 -12 -35 l0 -23 41 20 c22 12 39 26 36 33
-5 17 -50 20 -65 5z"/>
<path d="M2455 971 c-65 -30 -338 -191 -363 -214 -38 -35 -44 -79 -40 -297 3
-184 5 -208 23 -234 21 -32 126 -86 165 -86 40 1 391 211 418 250 21 32 22 41
22 262 l0 230 -36 31 c-40 37 -112 77 -134 77 -8 0 -33 -9 -55 -19z m199 -97
c3 -9 6 -109 6 -222 0 -180 -2 -212 -18 -241 -14 -26 -56 -55 -207 -142 -104
-60 -196 -108 -205 -107 -13 3 -15 35 -18 231 -2 179 1 233 12 254 15 30 366
241 402 242 12 1 25 -6 28 -15z"/>
<path d="M2448 707 c-117 -68 -137 -105 -138 -253 0 -84 3 -106 18 -125 l19
-22 44 21 c153 74 179 114 179 271 0 56 -5 111 -10 122 -15 27 -47 23 -112
-14z m90 -9 c17 -17 16 -190 -2 -232 -10 -25 -33 -45 -83 -75 -116 -69 -128
-59 -121 104 5 110 13 124 113 181 66 37 76 39 93 22z"/>
<path d="M2503 665 c-8 -22 6 -33 17 -15 13 20 12 30 0 30 -6 0 -13 -7 -17
-15z"/>
<path d="M2416 594 c-49 -54 -52 -153 -3 -162 25 -5 74 49 86 95 23 83 -29
125 -83 67z m66 -21 c8 -31 -12 -82 -38 -100 -25 -16 -27 -16 -40 2 -8 11 -12
26 -9 33 3 8 5 19 5 26 0 19 39 56 59 56 10 0 21 -8 23 -17z"/>
<path d="M3875 482 c-28 -15 -110 -61 -183 -102 l-131 -75 0 -50 c0 -27 3 -43
6 -35 13 34 43 34 43 -1 0 -11 -4 -18 -9 -14 -5 3 -13 0 -17 -6 -5 -8 -3 -9 6
-4 8 5 11 3 8 -6 -3 -8 -13 -13 -22 -13 -11 1 -16 -6 -16 -28 l0 -29 58 32
c314 179 340 200 350 285 4 38 1 50 -13 61 -24 17 -22 17 -80 -15z m65 -50 c0
-5 -6 -16 -13 -27 -16 -20 -33 -5 -23 20 6 16 36 21 36 7z m-60 -31 c0 -21
-13 -41 -26 -41 -17 0 -17 5 -4 31 11 20 30 26 30 10z m-60 -45 c0 -7 -7 -19
-15 -26 -12 -10 -15 -9 -15 7 0 11 3 23 7 26 11 12 23 8 23 -7z m-124 -76 c2
-43 -10 -54 -20 -17 -6 25 3 71 12 62 3 -3 7 -23 8 -45z m-37 -37 c-1 -24 -3
-29 -6 -15 -6 31 -21 28 -26 -5 -3 -23 -4 -22 -6 9 -1 33 7 45 32 47 4 1 6
-16 6 -36z"/>
</g>
</svg>
